<svg width="12" height="12" viewBox="0 0 12 12" fill="none" xmlns="http://www.w3.org/2000/svg">
<path d="M10.713 5.54746L2.213 1.54746C2.12741 1.50719 2.03215 1.49202 1.93828 1.50372C1.84442 1.51542 1.75579 1.5535 1.6827 1.61355C1.60962 1.67361 1.55506 1.75316 1.52538 1.84297C1.49569 1.93279 1.4921 2.02918 1.515 2.12096L2.121 4.54546L6 5.99996L2.121 7.45446L1.515 9.87896C1.49166 9.97081 1.49496 10.0674 1.52451 10.1574C1.55406 10.2475 1.60863 10.3272 1.68185 10.3874C1.75507 10.4476 1.84391 10.4856 1.93797 10.4972C2.03203 10.5087 2.12743 10.4932 2.213 10.4525L10.713 6.45246C10.7989 6.41208 10.8715 6.34809 10.9224 6.26796C10.9733 6.18783 11.0003 6.09488 11.0003 5.99996C11.0003 5.90505 10.9733 5.81209 10.9224 5.73196C10.8715 5.65183 10.7989 5.58784 10.713 5.54746Z" fill="white"/>
</svg>
