<svg width="21" height="13" viewBox="0 0 21 13" fill="none" xmlns="http://www.w3.org/2000/svg">
<path d="M20.1759 5.92633H1.96337L6.90642 0.983283C7.13226 0.757437 7.13226 0.395231 6.90642 0.169385C6.68057 -0.0564615 6.31836 -0.0564615 6.09252 0.169385L0.169385 6.09252C-0.0564615 6.31836 -0.0564615 6.68057 0.169385 6.90642L6.09252 12.8295C6.20331 12.9403 6.35245 13 6.49734 13C6.64222 13 6.79136 12.9446 6.90216 12.8295C7.128 12.6037 7.128 12.2415 6.90216 12.0157L1.95911 7.07261H20.1759C20.4955 7.07261 20.7512 6.81693 20.7512 6.49734C20.7512 6.17774 20.4955 5.92633 20.1759 5.92633Z" fill="black"/>
</svg>
