<svg width="9" height="7" viewBox="0 0 9 7" fill="none" xmlns="http://www.w3.org/2000/svg">
<path fill-rule="evenodd" clip-rule="evenodd" d="M0.119825 6.33609C-0.0399416 6.48799 -0.0399416 6.73423 0.119825 6.88613C0.279583 7.03796 0.538603 7.03796 0.698361 6.88613L3.97109 3.77498C4.13085 3.62312 4.13085 3.37689 3.97109 3.22502L0.698361 0.113907C0.538603 -0.0379691 0.279583 -0.0379691 0.119825 0.113907C-0.0399416 0.265776 -0.0399416 0.512005 0.119825 0.663874L3.10328 3.5L0.119825 6.33609ZM5.02891 6.33609C4.86915 6.48799 4.86915 6.73423 5.02891 6.88613C5.18867 7.03796 5.44769 7.03796 5.60745 6.88613L8.88022 3.77498C9.03993 3.62312 9.03993 3.37689 8.88022 3.22502L5.60745 0.113907C5.44769 -0.0379691 5.18867 -0.0379691 5.02891 0.113907C4.86915 0.265776 4.86915 0.512005 5.02891 0.663874L8.01237 3.5L5.02891 6.33609Z" fill="#455A64"/>
</svg>
