<svg width="17" height="17" viewBox="0 0 17 17" fill="none" xmlns="http://www.w3.org/2000/svg">
<g clip-path="url(#clip0_992_1303)">
<path d="M17 3.51091V13.4892C17 14.4094 16.2572 15.1522 15.337 15.1522H1.66304C0.74282 15.1522 0 14.4094 0 13.4892V3.51091C0 3.48136 0 3.45178 0.00368555 3.42223C0.0480449 2.57223 0.724326 1.89591 1.57433 1.85159C1.60388 1.8479 1.63346 1.8479 1.66301 1.8479H15.3369C15.3665 1.8479 15.3997 1.8479 15.4293 1.85159C16.2756 1.89595 16.9519 2.57223 16.9963 3.41854C17 3.44809 17 3.48136 17 3.51091Z" fill="#E6F3FF"/>
<path d="M15.4294 1.85159C15.3997 1.8479 15.3666 1.8479 15.337 1.8479H8.5V15.1523H15.337C16.2572 15.1523 17 14.4094 17 13.4892V3.51095C17 3.48139 17 3.44813 16.9963 3.41854C16.952 2.57226 16.2756 1.89595 15.4294 1.85159Z" fill="#CFDBE6"/>
<path d="M16.9963 3.41855C16.952 2.57224 16.2757 1.89596 15.4294 1.8516C12.7131 4.56778 11.1878 6.09313 8.5 8.78092C7.48037 7.76069 2.57689 2.85413 1.57436 1.85156C0.724359 1.89592 0.0480449 2.5722 0.00371875 3.4222C0 3.45179 0 3.48137 0 3.51092V13.4892C0 14.4094 0.74282 15.1522 1.66304 15.1522H2.2174V5.63592L7.71654 11.1314C7.9309 11.3494 8.21545 11.4566 8.50003 11.4566C8.78458 11.4566 9.06917 11.3494 9.28353 11.1314L14.7827 5.63224V15.1522H15.337C16.2572 15.1522 17.0001 14.4094 17.0001 13.4892V3.51092C17 3.48137 17 3.4481 16.9963 3.41855Z" fill="#FF4B26"/>
<path d="M9.28346 11.1314L14.7826 5.63224V15.1522H15.337C16.2572 15.1522 17 14.4094 17 13.4892V3.51092C17 3.48137 17 3.4481 16.9963 3.41852C16.952 2.5722 16.2757 1.89592 15.4294 1.85156C12.7132 4.56778 11.1878 6.09313 8.5 8.78092V11.4566C8.78455 11.4566 9.06914 11.3494 9.28346 11.1314Z" fill="#D93F21"/>
</g>
<defs>
<clipPath id="clip0_992_1303">
<rect width="17" height="17" fill="white"/>
</clipPath>
</defs>
</svg>
