<svg width="37" height="37" viewBox="0 0 37 37" fill="none" xmlns="http://www.w3.org/2000/svg">
<circle cx="18.5" cy="18.5" r="18.5" fill="#008ED6"/>
<path d="M13.3387 19.1846H15.6406V28.6613C15.6406 28.8484 15.7923 29 15.9794 29H19.8824C20.0695 29 20.2211 28.8484 20.2211 28.6613V19.2292H22.8674C23.0394 19.2292 23.1842 19.1001 23.2038 18.9292L23.6057 15.4404C23.6168 15.3444 23.5864 15.2483 23.5222 15.1762C23.4579 15.1042 23.3659 15.0629 23.2693 15.0629H20.2212V12.8759C20.2212 12.2167 20.5762 11.8824 21.2764 11.8824C21.3762 11.8824 23.2693 11.8824 23.2693 11.8824C23.4564 11.8824 23.608 11.7307 23.608 11.5436V8.34122C23.608 8.15411 23.4564 8.00251 23.2693 8.00251H20.5227C20.5034 8.00156 20.4604 8 20.3969 8C19.9204 8 18.2639 8.09355 16.9554 9.29733C15.5056 10.6313 15.7071 12.2285 15.7553 12.5054V15.0628H13.3387C13.1516 15.0628 13 15.2144 13 15.4016V18.8458C13 19.0329 13.1516 19.1846 13.3387 19.1846Z" fill="white"/>
</svg>
