<svg width="27" height="26" viewBox="0 0 27 26" fill="none" xmlns="http://www.w3.org/2000/svg">
<path d="M19.7802 16.5206C19.3781 16.2917 18.9585 16.1706 18.5658 16.1706C17.982 16.1706 17.504 16.438 17.2146 16.9245C16.7568 17.472 16.1891 18.1119 16.0514 18.2111C14.9851 18.9345 14.1504 18.8524 13.2268 17.9289L8.07222 12.7738C7.15448 11.8561 7.07012 11.011 7.7886 9.9506C7.88912 9.81193 8.52907 9.24378 9.07657 8.78559C9.42572 8.57781 9.66536 8.26905 9.77037 7.89029C9.90994 7.38632 9.80717 6.7935 9.47777 6.21593C9.40014 6.08309 7.5521 2.95336 5.84946 2.05268C5.53173 1.88439 5.17361 1.79553 4.81459 1.79553C4.22311 1.79553 3.66664 2.0262 3.24838 2.44401L2.1094 3.58254C0.308034 5.38346 -0.34403 7.42492 0.170262 9.64992C0.599287 11.5042 1.84956 13.4775 3.88698 15.5145L10.4862 22.1136C13.0648 24.6923 15.5232 26 17.7931 26C19.4629 26 21.0188 25.2905 22.4181 23.8917L23.5566 22.7531C24.2482 22.0616 24.4052 21.0164 23.9479 20.1521C23.0473 18.4485 19.918 16.6014 19.7802 16.5206Z" fill="white"/>
<path d="M26.4516 16.6045C24.7957 16.6045 23.448 15.2569 23.448 13.6009C23.448 13.3527 23.2474 13.1521 22.9992 13.1521C22.7511 13.1521 22.5505 13.3527 22.5505 13.6009C22.5505 15.7523 24.3002 17.5021 26.4516 17.5021C26.6998 17.5021 26.9004 17.3015 26.9004 17.0533C26.9004 16.8051 26.6998 16.6045 26.4516 16.6045Z" fill="white"/>
<path d="M26.1169 15.554C26.365 15.554 26.5656 15.3534 26.5656 15.1052C26.5656 14.857 26.365 14.6564 26.1169 14.6564C25.7192 14.6564 25.3966 14.3333 25.3966 13.9361C25.3966 13.688 25.196 13.4874 24.9478 13.4874C24.6996 13.4874 24.499 13.688 24.499 13.9361C24.499 14.8278 25.2247 15.554 26.1169 15.554Z" fill="white"/>
<path d="M8.94957 0.897542C10.606 0.897542 11.9532 2.2452 11.9532 3.90117C11.9532 4.14934 12.1542 4.34994 12.402 4.34994C12.6497 4.34994 12.8507 4.14934 12.8507 3.90117C12.8507 1.74976 11.1005 0 8.94957 0C8.70185 0 8.5008 0.200601 8.5008 0.448771C8.5008 0.696941 8.70185 0.897542 8.94957 0.897542Z" fill="white"/>
<path d="M8.83603 2.39735C8.83603 2.64552 9.03708 2.84612 9.2848 2.84612C9.68196 2.84612 10.0046 3.16924 10.0046 3.5664C10.0046 3.81457 10.2057 4.01517 10.4534 4.01517C10.7011 4.01517 10.9022 3.81457 10.9022 3.5664C10.9022 2.67424 10.1765 1.94858 9.2848 1.94858C9.03708 1.94858 8.83603 2.14918 8.83603 2.39735Z" fill="white"/>
</svg>
