<svg width="12" height="28" viewBox="0 0 12 28" fill="none" xmlns="http://www.w3.org/2000/svg">
<path d="M11.6407 24.2283L11.2612 25.7796C10.1228 26.2289 9.21341 26.5709 8.53624 26.8061C7.85833 27.0419 7.07065 27.1593 6.17319 27.1593C4.79499 27.1593 3.723 26.8216 2.95844 26.151C2.19388 25.4778 1.81148 24.6246 1.81148 23.5896C1.81148 23.1889 1.83923 22.7768 1.89691 22.357C1.95509 21.9366 2.04759 21.4632 2.17416 20.934L3.59691 15.8983C3.72348 15.4161 3.83107 14.9592 3.91724 14.5271C4.00462 14.0977 4.04673 13.7027 4.04673 13.347C4.04673 12.7039 3.91359 12.2541 3.64851 12.0012C3.38344 11.749 2.87762 11.621 2.1267 11.621C1.7589 11.621 1.38088 11.6799 0.995558 11.7938C0.608532 11.9082 0.277734 12.0187 0 12.1215L0.380454 10.569C1.31248 10.1895 2.20337 9.86454 3.05556 9.59484C3.90775 9.32441 4.71296 9.18907 5.47459 9.18907C6.8433 9.18907 7.89947 9.51987 8.64115 10.1815C9.38283 10.8435 9.75354 11.7018 9.75354 12.7594C9.75354 12.9783 9.7292 13.3638 9.67687 13.9149C9.62575 14.4672 9.53058 14.9733 9.39183 15.4336L7.97517 20.4491C7.85906 20.8519 7.75464 21.3125 7.66385 21.8307C7.57013 22.3455 7.52534 22.7389 7.52534 23.0027C7.52534 23.6687 7.67383 24.1234 7.97152 24.3651C8.2714 24.6068 8.78793 24.7271 9.52157 24.7271C9.866 24.7271 10.2579 24.666 10.6934 24.546C11.1276 24.426 11.4443 24.3206 11.6407 24.2283ZM12 3.17167C12 4.04552 11.6707 4.79182 11.0088 5.40546C10.3487 6.0213 9.55322 6.32946 8.62265 6.32946C7.68916 6.32946 6.89174 6.0213 6.22406 5.40546C5.5576 4.79158 5.22363 4.04552 5.22363 3.17167C5.22363 2.29952 5.5576 1.552 6.22406 0.930566C6.89052 0.310108 7.68941 0 8.62265 0C9.55297 0 10.3487 0.310838 11.0088 0.930566C11.6711 1.552 12 2.29976 12 3.17167Z" fill="white"/>
</svg>
