<svg width="37" height="37" viewBox="0 0 37 37" fill="none" xmlns="http://www.w3.org/2000/svg">
<circle cx="18.5" cy="18.5" r="18.5" fill="#008ED6"/>
<path d="M19 23C21.2091 23 23 21.2091 23 19C23 16.7909 21.2091 15 19 15C16.7909 15 15 16.7909 15 19C15 21.2091 16.7909 23 19 23Z" stroke="white" stroke-width="1.5" stroke-linecap="round" stroke-linejoin="round"/>
<path d="M10 23V15C10 12.2386 12.2386 10 15 10H23C25.7614 10 28 12.2386 28 15V23C28 25.7614 25.7614 28 23 28H15C12.2386 28 10 25.7614 10 23Z" stroke="white" stroke-width="1.5"/>
<path d="M24.5 13.51L24.51 13.4989" stroke="white" stroke-width="1.5" stroke-linecap="round" stroke-linejoin="round"/>
</svg>
