<svg width="27" height="33" viewBox="0 0 27 33" fill="none" xmlns="http://www.w3.org/2000/svg">
<path d="M25.5313 5.25C24.6563 4.375 23.3438 4.15625 22.25 4.59375C22.25 3.9375 22.0313 3.28125 21.375 2.625C20.9375 2.1875 20.0625 1.75 18.9688 1.75C18.3125 1.75 17.875 1.96875 17.4375 1.96875C17.4375 1.53125 17.2188 1.3125 17 0.875C15.9063 -0.4375 13.7188 -0.4375 12.625 0.875C12.1875 1.3125 11.75 1.75 11.75 2.1875C11.3125 2.1875 10.875 1.96875 10.4375 1.96875C9.34375 1.96875 8.6875 2.40625 8.03125 3.0625C6.9375 4.15625 6.9375 5.90625 6.9375 5.90625V14.2188C6.28125 13.5625 5.1875 12.4688 3.65625 12.4688C3.21875 12.4688 2.5625 12.6875 2.125 12.9063C1.25 13.3438 0.812502 14 0.593752 14.875C-0.0624979 17.0625 1.90625 20.125 1.90625 20.3438C2.125 20.5625 4.53125 26.25 6.71875 28.6563C8.90625 31.2813 11.3125 32.8125 17.4375 32.8125C23.7813 32.8125 26.625 29.3125 26.625 21.6562V9.625C26.625 9.40625 26.8438 6.78125 25.5313 5.25ZM13.5 4.375C13.5 3.71875 13.2813 2.1875 14.5938 2.1875C15.6875 2.1875 15.6875 3.28125 15.6875 4.375V13.125C15.6875 13.7812 16.125 14.2188 16.7813 14.2188C17.4375 14.2188 17.875 13.7812 17.875 13.125V4.8125C17.875 4.8125 17.875 3.9375 18.9688 3.9375C20.2813 3.9375 20.0625 5.90625 20.0625 5.90625V13.125C20.0625 13.7812 20.5 14.2188 21.1563 14.2188C21.8125 14.2188 22.25 13.7812 22.25 13.125V7.875C22.25 7.65625 22.25 6.5625 23.3438 6.5625C24.4375 6.5625 24.4375 8.75 24.4375 8.75V21.6562C24.4375 29.0938 21.5938 30.625 17.4375 30.625C12.1875 30.625 10.2188 29.5312 8.46875 27.125C6.5 24.9375 3.875 19.25 3.875 19.0312C3.21875 18.375 2.34375 16.4062 2.5625 15.5312C2.5625 15.3125 2.78125 15.0938 3 14.875C3.21875 14.875 3.4375 14.6562 3.4375 14.6562C4.3125 14.6562 5.1875 15.75 5.40625 16.1875L6.71875 18.1562C6.9375 18.5938 7.59375 18.8125 8.03125 18.5938C8.90625 18.5938 9.125 18.1563 9.125 17.7188V6.34375C9.125 5.46875 9.125 4.15625 10.2188 4.15625C11.0938 4.15625 11.3125 4.8125 11.3125 5.90625V13.125C11.3125 13.7812 11.75 14.2188 12.4063 14.2188C13.0625 14.2188 13.5 13.7812 13.5 13.125V4.375Z" fill="white"/>
</svg>
