<svg width="90" height="12" viewBox="0 0 90 12" fill="none" xmlns="http://www.w3.org/2000/svg">
<path d="M0.493386 11L2.30447 0.0909088H4.61093L3.81725 4.90092H3.96107L8.68053 0.0909088H11.4451L6.60312 4.9755L9.68195 11H6.92272L4.69616 6.51491L3.32187 7.91051L2.79985 11H0.493386ZM13.8994 11.1598C13.0649 11.1598 12.3742 10.9822 11.8273 10.6271C11.2804 10.2685 10.8951 9.77131 10.6714 9.13565C10.4512 8.49645 10.4104 7.75249 10.5489 6.90376C10.6838 6.0657 10.9644 5.33239 11.3905 4.70383C11.8166 4.07528 12.3582 3.587 13.0151 3.23899C13.6721 2.88743 14.4125 2.71165 15.2364 2.71165C16.0673 2.71165 16.7563 2.89098 17.3031 3.24964C17.85 3.60476 18.2353 4.10192 18.459 4.74112C18.6828 5.38033 18.7254 6.12429 18.5869 6.97301C18.4484 7.80753 18.1643 8.53906 17.7346 9.16761C17.3049 9.79616 16.7634 10.2862 16.11 10.6378C15.4565 10.9858 14.7197 11.1598 13.8994 11.1598ZM14.1231 9.40199C14.5066 9.40199 14.8457 9.29368 15.1405 9.07706C15.4388 8.85689 15.6856 8.55859 15.8809 8.18217C16.0798 7.8022 16.2183 7.37251 16.2964 6.89311C16.3745 6.42081 16.3798 6.00178 16.3124 5.63601C16.2449 5.26669 16.1028 4.9755 15.8862 4.76243C15.6732 4.54936 15.3802 4.44283 15.0073 4.44283C14.6238 4.44283 14.2829 4.55291 13.9846 4.77308C13.6863 4.9897 13.4395 5.288 13.2442 5.66797C13.0489 6.04794 12.9122 6.4794 12.834 6.96236C12.7595 7.43111 12.7541 7.85014 12.818 8.21946C12.882 8.58523 13.0222 8.87464 13.2389 9.08771C13.4555 9.29723 13.7502 9.40199 14.1231 9.40199ZM22.4594 6.26989L21.671 11H19.4072L20.7708 2.81818H22.9281L22.6938 4.26172H22.7843C23.0435 3.78232 23.4093 3.40412 23.8816 3.12713C24.3575 2.85014 24.899 2.71165 25.5063 2.71165C26.0744 2.71165 26.5485 2.83594 26.9285 3.08452C27.312 3.3331 27.5819 3.68643 27.7381 4.14453C27.8979 4.60263 27.9246 5.15128 27.818 5.79048L26.9445 11H24.6753L25.4796 6.19531C25.5613 5.6946 25.4974 5.30398 25.2879 5.02344C25.0819 4.73935 24.7499 4.5973 24.2918 4.5973C23.9864 4.5973 23.7058 4.663 23.4502 4.79439C23.1945 4.92578 22.9796 5.11754 22.8056 5.36967C22.6352 5.61825 22.5198 5.91832 22.4594 6.26989ZM34.4378 2.81818L34.1555 4.52273H29.223L29.5106 2.81818H34.4378ZM30.9488 0.857954H33.218L31.9502 8.4858C31.9147 8.69531 31.9201 8.85866 31.9662 8.97585C32.0124 9.08949 32.0887 9.16939 32.1953 9.21555C32.3054 9.26172 32.4367 9.2848 32.5894 9.2848C32.696 9.2848 32.8043 9.27592 32.9144 9.25817C33.0245 9.23686 33.1079 9.22088 33.1647 9.21023L33.25 10.8988C33.1221 10.9379 32.9499 10.9805 32.7333 11.0266C32.5202 11.0728 32.2681 11.1012 31.9769 11.1119C31.4229 11.1332 30.9541 11.0604 30.5706 10.8935C30.1871 10.723 29.9119 10.462 29.745 10.1104C29.5781 9.75888 29.5426 9.31676 29.6384 8.78409L30.9488 0.857954ZM36.8641 11.1545C36.3457 11.1545 35.8964 11.0639 35.5165 10.8828C35.14 10.6982 34.8631 10.4247 34.6855 10.0625C34.5079 9.70028 34.4636 9.25107 34.5523 8.71484C34.6305 8.2603 34.7778 7.88033 34.9945 7.57493C35.2146 7.26598 35.4827 7.0174 35.7988 6.82919C36.1148 6.64098 36.4646 6.49716 36.8481 6.39773C37.2352 6.2983 37.6347 6.23082 38.0467 6.19531C38.5225 6.1456 38.9096 6.09766 39.2079 6.05149C39.5097 6.00533 39.7352 5.93963 39.8844 5.8544C40.0335 5.76562 40.1241 5.63423 40.156 5.46023V5.42827C40.2093 5.09446 40.1472 4.83523 39.9696 4.65057C39.7956 4.46236 39.5168 4.36825 39.1333 4.36825C38.7285 4.36825 38.384 4.45703 38.0999 4.63459C37.8194 4.81214 37.6187 5.03764 37.498 5.31108L35.4312 5.14062C35.6159 4.64347 35.8947 4.21378 36.2675 3.85156C36.644 3.4858 37.0967 3.20526 37.6258 3.00994C38.155 2.81108 38.748 2.71165 39.405 2.71165C39.8595 2.71165 40.2839 2.76491 40.678 2.87145C41.0758 2.97798 41.4185 3.14311 41.7061 3.36683C41.9973 3.59055 42.2068 3.8782 42.3347 4.22976C42.466 4.57777 42.4927 4.99503 42.4146 5.48153L41.493 11H39.341L39.5328 9.86541H39.4689C39.2949 10.1211 39.0818 10.3466 38.8297 10.5419C38.5775 10.7337 38.2881 10.8846 37.9614 10.9947C37.6347 11.1012 37.269 11.1545 36.8641 11.1545ZM37.775 9.58842C38.1052 9.58842 38.4089 9.52273 38.6859 9.39134C38.9664 9.25639 39.1972 9.07528 39.3783 8.84801C39.563 8.62074 39.6802 8.36328 39.7299 8.07564L39.8684 7.20739C39.7974 7.25355 39.6944 7.29439 39.5594 7.3299C39.428 7.36541 39.2842 7.39915 39.128 7.43111C38.9753 7.45952 38.8208 7.48615 38.6646 7.51101C38.5083 7.53232 38.368 7.55362 38.2437 7.57493C37.9703 7.61399 37.7253 7.67614 37.5087 7.76136C37.292 7.84659 37.1163 7.962 36.9813 8.1076C36.8464 8.24964 36.7629 8.4272 36.731 8.64027C36.6812 8.94922 36.754 9.18537 36.9494 9.34872C37.1482 9.50852 37.4234 9.58842 37.775 9.58842ZM45.6985 8.6456L46.1512 5.92365H46.4815L49.6296 2.81818H52.2343L48.0369 6.9304H47.4936L45.6985 8.6456ZM43.2535 11L45.0646 0.0909088H47.3338L45.5227 11H43.2535ZM48.3671 11L46.5561 7.43643L48.3299 5.8331L51.0252 11H48.3671ZM55.4983 11L57.3093 0.0909088H61.6133C62.4372 0.0909088 63.1137 0.248934 63.6428 0.564986C64.1755 0.877486 64.5483 1.3125 64.7614 1.87003C64.978 2.42401 65.0277 3.06321 64.9106 3.78764C64.7898 4.51562 64.527 5.1566 64.1222 5.71058C63.7209 6.26101 63.1989 6.6907 62.5562 6.99964C61.9134 7.30859 61.1712 7.46307 60.3296 7.46307H57.5863L57.89 5.6147H60.2603C60.7078 5.6147 61.0895 5.53835 61.4056 5.38565C61.7252 5.2294 61.9791 5.01456 62.1673 4.74112C62.3555 4.46413 62.478 4.14631 62.5348 3.78764C62.5952 3.42187 62.5757 3.10405 62.4763 2.83416C62.3768 2.56428 62.1939 2.35476 61.9276 2.20561C61.6648 2.05291 61.3115 1.97656 60.8676 1.97656H59.3122L57.8047 11H55.4983ZM65.2102 11L67.0213 0.0909088H71.3252C72.1491 0.0909088 72.8256 0.248934 73.3547 0.564986C73.8874 0.877486 74.2603 1.3125 74.4733 1.87003C74.6899 2.42401 74.7397 3.06321 74.6225 3.78764C74.5017 4.51562 74.2389 5.1566 73.8341 5.71058C73.4328 6.26101 72.9108 6.6907 72.2681 6.99964C71.6253 7.30859 70.8831 7.46307 70.0415 7.46307H67.2983L67.6019 5.6147H69.9723C70.4197 5.6147 70.8014 5.53835 71.1175 5.38565C71.4371 5.2294 71.691 5.01456 71.8792 4.74112C72.0674 4.46413 72.1899 4.14631 72.2468 3.78764C72.3071 3.42187 72.2876 3.10405 72.1882 2.83416C72.0887 2.56428 71.9059 2.35476 71.6395 2.20561C71.3767 2.05291 71.0234 1.97656 70.5795 1.97656H69.0241L67.5166 11H65.2102ZM79.0396 0.0909088L77.2286 11H74.9221L76.7332 0.0909088H79.0396ZM83.0467 11H79.1262L80.9373 0.0909088H84.7832C85.8805 0.0909088 86.7913 0.31463 87.5158 0.762073C88.2437 1.20952 88.7569 1.8505 89.0552 2.68501C89.3535 3.51598 89.4067 4.50852 89.215 5.66264C89.0303 6.7777 88.6628 7.73473 88.1123 8.53374C87.5619 9.32919 86.857 9.93999 85.9976 10.3661C85.1383 10.7887 84.1546 11 83.0467 11ZM81.7629 9.02379H83.1798C83.8652 9.02379 84.4653 8.89595 84.9802 8.64027C85.4987 8.38459 85.9231 7.99041 86.2533 7.45774C86.5871 6.92507 86.8233 6.24325 86.9618 5.41229C87.0932 4.62393 87.0843 3.98473 86.9351 3.49467C86.7896 3.00107 86.5072 2.64062 86.0882 2.41335C85.6692 2.18253 85.1187 2.06712 84.4369 2.06712H82.9188L81.7629 9.02379Z" fill="white"/>
</svg>
