<svg width="30" height="29" viewBox="0 0 30 29" fill="none" xmlns="http://www.w3.org/2000/svg">
<path d="M26 11.8C27.0091 12.3811 27.8273 13.2432 28.3549 14.2813C28.8824 15.3194 29.0965 16.4886 28.9709 17.6463C28.8454 18.804 28.3857 19.9001 27.648 20.801C26.9102 21.7019 25.9262 22.3687 24.816 22.72C24.4236 24.5006 23.4349 26.0938 22.0135 27.2359C20.5921 28.3779 18.8233 29.0003 17 29H14C13.7348 29 13.4804 28.8946 13.2929 28.7071C13.1054 28.5196 13 28.2652 13 28C13 27.7348 13.1054 27.4804 13.2929 27.2929C13.4804 27.1053 13.7348 27 14 27H17C18.2412 27.0003 19.4521 26.6159 20.4657 25.8995C21.4794 25.1831 22.246 24.1701 22.66 23H22C21.7348 23 21.4804 22.8946 21.2929 22.7071C21.1054 22.5196 21 22.2652 21 22V12C21 11.7348 21.1054 11.4804 21.2929 11.2929C21.4804 11.1053 21.7348 11 22 11H23C23.324 11 23.642 11.026 23.954 11.076C23.7289 8.85777 22.6884 6.80209 21.0341 5.30723C19.3799 3.81237 17.2296 2.98477 15 2.98477C12.7704 2.98477 10.6201 3.81237 8.96589 5.30723C7.31163 6.80209 6.27114 8.85777 6.046 11.076C6.36149 11.0255 6.68049 11 7 11H8C8.26522 11 8.51957 11.1053 8.70711 11.2929C8.89464 11.4804 9 11.7348 9 12V22C9 22.2652 8.89464 22.5196 8.70711 22.7071C8.51957 22.8946 8.26522 23 8 23H7C5.67796 23.0015 4.39245 22.5663 3.3432 21.762C2.29394 20.9577 1.53969 19.8294 1.19763 18.5524C0.855572 17.2754 0.944858 15.9211 1.45162 14.7001C1.95838 13.479 2.85423 12.4595 4 11.8C4 8.88261 5.15893 6.08471 7.22183 4.02181C9.28473 1.95891 12.0826 0.799988 15 0.799988C17.9174 0.799988 20.7153 1.95891 22.7782 4.02181C24.8411 6.08471 26 8.88261 26 11.8ZM7 13C5.93913 13 4.92172 13.4214 4.17157 14.1716C3.42143 14.9217 3 15.9391 3 17C3 18.0609 3.42143 19.0783 4.17157 19.8284C4.92172 20.5786 5.93913 21 7 21V13ZM27 17C27 15.9391 26.5786 14.9217 25.8284 14.1716C25.0783 13.4214 24.0609 13 23 13V21C24.0609 21 25.0783 20.5786 25.8284 19.8284C26.5786 19.0783 27 18.0609 27 17Z" fill="white"/>
</svg>
