<svg width="19" height="14" viewBox="0 0 19 14" fill="none" xmlns="http://www.w3.org/2000/svg">
<path d="M0 2.27983V11.3918C0 12.6474 1.08117 13.6716 2.40649 13.6716H10.1801C11.5054 13.6716 12.5866 12.6474 12.5866 11.3918V9.91597C12.5866 9.66633 12.3734 9.46441 12.1099 9.46441C11.8464 9.46441 11.6333 9.66633 11.6333 9.91597V11.3918C11.6333 12.1517 10.9784 12.7722 10.1762 12.7722H2.40649C1.60432 12.7722 0.949419 12.1517 0.949419 11.3918V2.27983C0.949419 1.51989 1.60432 0.899449 2.40649 0.899449H10.1801C10.9823 0.899449 11.6372 1.51989 11.6372 2.27983V3.75566C11.6372 4.0053 11.8503 4.20722 12.1138 4.20722C12.3773 4.20722 12.5905 4.0053 12.5905 3.75566V2.27983C12.5905 1.02427 11.5093 0 10.184 0H2.40649C1.08117 0 0 1.0206 0 2.27983Z" fill="black"/>
<path d="M14.935 10.2317C15.028 10.3198 15.1481 10.3638 15.2721 10.3638C15.3961 10.3638 15.5162 10.3198 15.6092 10.2317L18.8605 7.15152C19.0465 6.9753 19.0465 6.69261 18.8605 6.5164L15.6092 3.43624C15.4232 3.26002 15.1248 3.26002 14.9388 3.43624C14.7528 3.61246 14.7528 3.89514 14.9388 4.07136L17.3802 6.38423H8.47115C8.20764 6.38423 7.99451 6.58615 7.99451 6.83579C7.99451 7.08543 8.20764 7.28735 8.47115 7.28735H17.3763L14.935 9.60022C14.7489 9.77277 14.7489 10.0591 14.935 10.2317Z" fill="black"/>
</svg>
