<svg width="13" height="21" viewBox="0 0 13 21" fill="none" xmlns="http://www.w3.org/2000/svg">
<path d="M6.15369 0C2.76052 0 0 2.76052 0 6.15369C0 7.07906 0.200441 7.9684 0.595595 8.7976C0.603549 8.81534 0.611901 8.83276 0.62081 8.85018L5.27024 17.8524C5.44093 18.1828 5.78176 18.3904 6.15361 18.3904C6.52554 18.3904 6.86637 18.1829 7.03698 17.8524L11.6851 8.85264C11.6932 8.83713 11.7007 8.82146 11.7078 8.80564C12.1056 7.97404 12.3072 7.082 12.3072 6.15369C12.3074 2.76052 9.54687 0 6.15369 0ZM6.15369 9.37466C4.37764 9.37466 2.93272 7.92974 2.93272 6.15369C2.93272 4.37772 4.37764 2.9328 6.15369 2.9328C7.92974 2.9328 9.37466 4.37772 9.37466 6.15369C9.37466 7.92974 7.92974 9.37466 6.15369 9.37466Z" fill="#FF1E00"/>
<path d="M8.52406 19.8069H3.78332C3.45378 19.8069 3.18677 20.0739 3.18677 20.4034C3.18677 20.733 3.45378 21 3.78332 21H8.52406C8.8536 21 9.12061 20.733 9.12061 20.4034C9.12061 20.0739 8.85352 19.8069 8.52406 19.8069Z" fill="#FF1E00"/>
</svg>
