<svg width="43" height="43" viewBox="0 0 43 43" fill="none" xmlns="http://www.w3.org/2000/svg">
<circle cx="21" cy="21" r="17" fill="#1F2D49"/>
<mask id="path-2-inside-1_1160_1482" fill="white">
<path d="M21.5 -9.39795e-07C24.3234 -1.06321e-06 27.1192 0.556113 29.7277 1.63659C32.3362 2.71707 34.7063 4.30074 36.7028 6.2972C38.6993 8.29366 40.2829 10.6638 41.3634 13.2723C42.4439 15.8808 43 18.6766 43 21.5C43 24.3234 42.4439 27.1192 41.3634 29.7277C40.2829 32.3362 38.6993 34.7063 36.7028 36.7028C34.7063 38.6993 32.3362 40.2829 29.7277 41.3634C27.1192 42.4439 24.3234 43 21.5 43L21.5 41.0105C24.0622 41.0105 26.5992 40.5058 28.9663 39.5253C31.3335 38.5449 33.4843 37.1077 35.296 35.296C37.1077 33.4843 38.5449 31.3335 39.5253 28.9663C40.5058 26.5992 41.0105 24.0622 41.0105 21.5C41.0105 18.9378 40.5058 16.4008 39.5253 14.0337C38.5449 11.6665 37.1077 9.51571 35.296 7.70399C33.4843 5.89228 31.3335 4.45514 28.9663 3.47465C26.5992 2.49415 24.0622 1.9895 21.5 1.9895L21.5 -9.39795e-07Z"/>
</mask>
<path d="M21.5 -9.39795e-07C24.3234 -1.06321e-06 27.1192 0.556113 29.7277 1.63659C32.3362 2.71707 34.7063 4.30074 36.7028 6.2972C38.6993 8.29366 40.2829 10.6638 41.3634 13.2723C42.4439 15.8808 43 18.6766 43 21.5C43 24.3234 42.4439 27.1192 41.3634 29.7277C40.2829 32.3362 38.6993 34.7063 36.7028 36.7028C34.7063 38.6993 32.3362 40.2829 29.7277 41.3634C27.1192 42.4439 24.3234 43 21.5 43L21.5 41.0105C24.0622 41.0105 26.5992 40.5058 28.9663 39.5253C31.3335 38.5449 33.4843 37.1077 35.296 35.296C37.1077 33.4843 38.5449 31.3335 39.5253 28.9663C40.5058 26.5992 41.0105 24.0622 41.0105 21.5C41.0105 18.9378 40.5058 16.4008 39.5253 14.0337C38.5449 11.6665 37.1077 9.51571 35.296 7.70399C33.4843 5.89228 31.3335 4.45514 28.9663 3.47465C26.5992 2.49415 24.0622 1.9895 21.5 1.9895L21.5 -9.39795e-07Z" stroke="#1F2D49" stroke-width="2" mask="url(#path-2-inside-1_1160_1482)"/>
<g clip-path="url(#clip0_1160_1482)">
<path d="M20.9101 27.112L29.554 21.6761C30.1487 21.3022 30.1487 20.696 29.554 20.3222L20.9101 14.888C20.3153 14.5141 19.9108 14.7752 20.0068 15.4713L20.3225 17.4085C20.4185 18.1042 19.9265 18.6682 19.224 18.6682L13.2722 18.6682C12.5697 18.6682 12 19.2376 12 19.9401L12 22.0574C12 22.7603 12.5694 23.3296 13.2722 23.3296L19.2237 23.3296C19.9261 23.3296 20.4181 23.894 20.3221 24.5894L20.0064 26.5287C19.9108 27.2244 20.3153 27.4859 20.9101 27.112Z" fill="white"/>
</g>
<defs>
<clipPath id="clip0_1160_1482">
<rect width="18" height="18" fill="white" transform="translate(30 12) rotate(90)"/>
</clipPath>
</defs>
</svg>
