<svg width="18" height="18" viewBox="0 0 18 18" fill="none" xmlns="http://www.w3.org/2000/svg">
<path d="M17.6125 14.2313L15.3313 11.4312L15.25 6.5C15.2527 6.46672 15.2527 6.43328 15.25 6.4C14.5313 2.4875 12.2563 0.25 9 0.25C5.5625 0.25 2.8 2.75 2.125 6.3875C2.12162 6.42492 2.12162 6.46258 2.125 6.5L2.04375 11.5L0.337503 14.3C0.282648 14.395 0.253769 14.5028 0.253769 14.6125C0.253769 14.7222 0.282648 14.83 0.337503 14.925C0.390441 15.0218 0.468055 15.1028 0.56246 15.1599C0.656866 15.217 0.764698 15.2481 0.875003 15.25H6.5C6.5 15.913 6.7634 16.5489 7.23224 17.0178C7.70108 17.4866 8.33696 17.75 9 17.75C9.66304 17.75 10.2989 17.4866 10.7678 17.0178C11.2366 16.5489 11.5 15.913 11.5 15.25H17.125C17.2428 15.2497 17.3581 15.216 17.4576 15.153C17.5572 15.09 17.6368 15.0001 17.6875 14.8938C17.7388 14.7875 17.759 14.6689 17.7457 14.5517C17.7324 14.4344 17.6863 14.3233 17.6125 14.2313ZM9 16.5C8.66848 16.5 8.35054 16.3683 8.11612 16.1339C7.8817 15.8995 7.75 15.5815 7.75 15.25H10.25C10.25 15.5815 10.1183 15.8995 9.88389 16.1339C9.64947 16.3683 9.33152 16.5 9 16.5ZM1.98125 14L3.23125 11.975C3.28743 11.8804 3.31761 11.7726 3.31875 11.6625L3.375 6.5625C3.94375 3.53125 6.2 1.5 9 1.5C12.5188 1.5 13.6438 4.625 14 6.5625L14.0875 11.6625C14.0883 11.8035 14.1368 11.94 14.225 12.05L15.8125 14H1.98125Z" fill="black"/>
</svg>
