<svg width="286" height="257" viewBox="0 0 286 257" fill="none" xmlns="http://www.w3.org/2000/svg">
<g filter="url(#filter0_d_1160_1305)">
<path d="M63.4475 10H214.598C216.884 10 219.076 10.9079 220.693 12.524C222.307 14.1401 223.215 16.3319 223.215 18.6175V28.132H54.83V18.6175C54.83 16.3319 55.7382 14.1401 57.354 12.524C58.9702 10.9079 61.1622 10 63.4475 10Z" fill="#1C85E8"/>
<path d="M54.83 28.132H223.215V180.764C223.215 182.833 222.809 184.881 222.016 186.793C221.224 188.704 220.066 190.441 218.602 191.904C217.14 193.367 215.402 194.527 213.492 195.319C211.579 196.11 209.531 196.518 207.462 196.518H70.5837C68.515 196.518 66.4664 196.11 64.5552 195.319C62.6437 194.527 60.907 193.367 59.4443 191.904C57.9813 190.441 56.821 188.704 56.0292 186.793C55.2377 184.881 54.83 182.833 54.83 180.764V28.132Z" fill="url(#paint0_linear_1160_1305)"/>
<path d="M164.849 136.403H118.663V158.833H164.849V136.403Z" fill="#FFCCB3"/>
<path d="M118.391 150.231C112.975 155.561 110.844 181.808 111.129 196.518H175.606C175.606 196.518 175.491 164.439 170.602 153.629C166.107 143.688 158.634 158.352 118.391 150.231Z" fill="#1F2D49"/>
<path d="M157.089 34.3233C157.089 34.3233 162.438 28.221 172.823 27.3332C183.207 26.4454 186.314 35.5408 185.871 41.1288C185.427 46.7168 177.288 58.2581 178.916 63.1411C180.544 68.0239 172.89 65.6566 172.056 55.8906C171.222 46.1249 168.114 32.5121 159.68 37.3948L157.089 34.3233Z" fill="#080B09"/>
<path d="M158.712 31.4668C158.712 31.4668 159.992 30.7254 160.918 32.4549C161.845 34.1843 163.575 37.6962 161.382 38.6271C159.189 39.5583 158.712 31.4668 158.712 31.4668Z" fill="#1C85E8"/>
<path d="M129.049 87.7081C129.049 87.7081 137.344 97.019 134.586 100.006C129.121 106.144 114.588 117.68 109.826 121.499C109.62 121.656 109.386 121.771 109.135 121.837C108.885 121.904 108.624 121.92 108.368 121.885C108.111 121.85 107.864 121.764 107.641 121.633C107.417 121.502 107.222 121.328 107.066 121.121L95.8058 106.317C95.3655 105.747 95.1602 105.03 95.2319 104.313C95.3039 103.596 95.6474 102.935 96.1919 102.463L118.004 83.6545L129.049 87.7081Z" fill="#1C85E8"/>
<path d="M115.953 99.5453C115.953 99.5453 105.614 105.69 104.683 118.036L106.742 120.681C106.742 120.681 108.034 122.934 109.826 121.499C111.618 120.064 119.905 113.425 119.905 113.425L115.953 99.5453Z" fill="#0E66AF"/>
<path d="M125.619 104.226C132.067 104.226 137.295 98.9982 137.295 92.5495C137.295 86.101 132.067 80.8732 125.619 80.8732C119.17 80.8732 113.943 86.101 113.943 92.5495C113.943 98.9982 119.17 104.226 125.619 104.226Z" fill="#1C85E8"/>
<path d="M95.2141 129.15L85.0101 115.64L94.6698 108.14L96.1839 106.921L106.769 120.763L104.925 122.089L95.2141 129.15Z" fill="#FFCCB3"/>
<path d="M104.925 122.089C102.192 118.429 97.0519 111.277 94.6698 108.14L96.1839 106.921L106.742 120.681L104.925 122.089Z" fill="#FF967C"/>
<path d="M89.957 131.025C94.6382 131.025 98.4331 127.23 98.4331 122.548C98.4331 117.867 94.6382 114.072 89.957 114.072C85.2756 114.072 81.4807 117.867 81.4807 122.548C81.4807 127.23 85.2756 131.025 89.957 131.025Z" fill="#FFCCB3"/>
<path d="M97.1339 117.989C97.1339 117.989 69.7915 77.8345 68.5276 74.4245C67.2976 71.0942 60.8393 79.1079 60.8393 79.1079L82.0007 125.278L97.1339 117.989Z" fill="#FFCCB3"/>
<path d="M134.776 61.9921L131.489 84.9088C131.489 84.9088 130.626 87.9505 134.456 88.4108C138.285 88.8714 146.451 87.8424 149.367 84.7348C152.283 81.6271 151.263 80.0874 151.263 80.0874L145.078 55.2136L134.776 61.9921Z" fill="#FFCCB3"/>
<path d="M134.319 64.9576L142.359 62.1177L132.398 76.881L134.319 64.9576Z" fill="#FF967C"/>
<path d="M125.679 33.6854C125.679 33.6854 118.781 49.8931 122.376 61.0015C124.721 68.246 129.827 69.5485 141.52 64.1194C152.241 59.1416 155.026 55.3761 155.026 55.3761L156.607 37.3085C156.607 37.3085 132.685 19.2392 125.679 33.6854Z" fill="#FFCCB3"/>
<path d="M131.431 78.3199C131.431 78.3199 122.595 80.775 120.802 82.2096C119.008 83.6442 117.704 95.3049 115.054 101.065C111.13 109.592 108.59 114.128 115.182 123.498C119.157 129.15 117.805 143.519 117.805 143.519H166.211C164.744 115.266 171.234 81.9609 171.234 81.9609L149.388 76.9269C144.462 77.7761 131.431 78.3199 131.431 78.3199Z" fill="#1C85E8"/>
<path d="M129.886 78.7757C129.886 78.7757 130.539 74.3345 132.628 74.0218C134.716 73.7092 147.477 71.7897 149.462 72.6256C151.446 73.4612 153.849 78.7757 153.849 78.7757C153.849 78.7757 149.775 88.713 143.925 89.2352C138.075 89.7577 128.006 87.9543 129.071 84.2594C130.136 80.5649 129.886 78.7757 129.886 78.7757Z" fill="#1C85E8"/>
<path d="M125.912 80.1259C125.912 80.1259 127.323 88.6967 134.99 88.5616C142.656 88.4262 153.796 76.9269 153.796 76.9269" stroke="white" stroke-width="1.35709" stroke-miterlimit="10"/>
<path d="M160.645 92.5495C160.645 92.5495 153.028 97.5859 155.272 102.668C157.795 108.382 157.773 123.099 150.532 124.021C137.611 125.666 143.225 127.926 149.199 129.37C155.173 130.813 152.727 130.815 152.727 137.004C152.727 141.409 166.57 145.228 166.211 141.669C163.804 117.856 173.809 102.778 160.645 92.5495Z" fill="#0E66AF"/>
<path d="M125.065 57.5313L131.481 57.8487C131.459 57.9277 131.424 58.0358 131.373 58.1629C131.264 58.4387 131.083 58.802 130.796 59.1537C130.227 59.8512 129.232 60.5141 127.515 60.3404C126.43 60.1325 125.813 59.4032 125.464 58.7127C125.289 58.367 125.183 58.0333 125.121 57.786C125.095 57.6845 125.077 57.598 125.065 57.5313Z" fill="#E56441" stroke="#E56441"/>
<path d="M125.488 46.8768C125.756 45.8827 125.427 44.9294 124.752 44.7474C124.078 44.5654 123.314 45.2238 123.045 46.2179C122.777 47.212 123.107 48.1652 123.781 48.3472C124.456 48.529 125.22 47.8709 125.488 46.8768Z" fill="#080B09"/>
<path d="M135.415 49.7073C135.683 48.7132 135.354 47.76 134.679 47.578C134.005 47.3962 133.24 48.0543 132.972 49.0484C132.704 50.0425 133.034 50.9958 133.708 51.1778C134.383 51.3598 135.147 50.7014 135.415 49.7073Z" fill="#080B09"/>
<path d="M122.978 41.742L128.024 43.1927C128.112 43.2102 128.203 43.1952 128.281 43.1506C128.359 43.1059 128.417 43.0347 128.447 42.95C128.47 42.7908 128.46 42.6286 128.419 42.4731C128.378 42.3174 128.305 42.172 128.206 42.0454C128.107 41.9185 127.983 41.8132 127.842 41.7357C127.701 41.6583 127.546 41.6099 127.386 41.5941L123.052 41.138C122.719 41.0483 122.562 41.6299 122.978 41.742Z" fill="#080B09"/>
<path d="M140.23 46.0556L133.387 44.6554C133.449 44.4518 133.553 44.2632 133.692 44.1023C133.831 43.9411 134.002 43.8109 134.195 43.7202C134.387 43.6294 134.596 43.5798 134.809 43.5748C135.022 43.5697 135.233 43.6094 135.43 43.6911L140.425 45.6628C140.591 45.7074 140.479 46.1231 140.23 46.0556Z" fill="#080B09"/>
<path d="M128.54 47.1611L125.294 51.5321L126.516 53.2603" stroke="#E56441" stroke-width="2.23881" stroke-linecap="round"/>
<path d="M134.576 94.8493C135.205 94.8493 135.714 93.4418 135.714 91.7053C135.714 89.9691 135.205 88.5613 134.576 88.5613C133.948 88.5613 133.438 89.9691 133.438 91.7053C133.438 93.4418 133.948 94.8493 134.576 94.8493Z" fill="white"/>
<path d="M187.029 138.107L170.154 139.489L167.274 127.26L163.804 117.856L181.562 115.731L183.782 126.255L187.029 138.107Z" fill="#FFCCB3"/>
<path d="M182.162 118.573L182.784 121.524L165.296 121.9L164.146 118.783L182.162 118.573Z" fill="#FF967C"/>
<path d="M168.331 104.946C174.779 104.946 180.007 99.719 180.007 93.2702C180.007 86.8217 174.779 81.594 168.331 81.594C161.882 81.594 156.654 86.8217 156.654 93.2702C156.654 99.719 161.882 104.946 168.331 104.946Z" fill="#1C85E8"/>
<path d="M166.079 87.781C166.079 87.781 178.384 85.761 179.429 89.6905C181.687 97.5922 184.462 110.277 185.137 116.344C185.16 116.602 185.131 116.862 185.053 117.109C184.975 117.355 184.849 117.584 184.682 117.782C184.515 117.98 184.31 118.143 184.08 118.261C183.85 118.38 183.598 118.451 183.34 118.472L164.807 120.054C164.09 120.121 163.375 119.91 162.808 119.466C162.241 119.021 161.866 118.377 161.759 117.664L156.74 94.938L166.079 87.781Z" fill="#1C85E8"/>
<path d="M129.98 32.1448C129.98 32.1448 130.417 40.0174 137.086 43.8323C137.086 43.8323 139.036 49.8704 146.315 51.2904C146.315 51.2904 145.885 45.7408 149.354 45.7995C155.245 45.8992 152.347 54.8351 148.365 56.3011C145.658 57.2974 144.028 60.8336 148.045 68.8924C157.271 65.602 163.759 52.3129 161.215 37.5694C159.179 25.7625 144.541 21.9069 141.534 22.2915C141.534 22.2915 129.045 17.9769 122.469 29.8101C116.847 39.9256 122.097 45.9627 122.097 45.9627L125.093 36.9599C125.093 36.9599 126.344 37.8386 129.98 32.1448Z" fill="#080B09"/>
<path d="M187.091 167.28H142.397C141.532 167.28 140.698 166.964 140.049 166.392C139.401 165.82 138.984 165.031 138.877 164.173L134.751 131.249C134.689 130.75 134.733 130.243 134.881 129.762C135.03 129.281 135.278 128.838 135.611 128.46C135.944 128.083 136.354 127.781 136.812 127.574C137.271 127.367 137.768 127.26 138.271 127.26H191.217C191.72 127.26 192.217 127.367 192.676 127.574C193.134 127.781 193.544 128.083 193.876 128.46C194.209 128.838 194.458 129.281 194.607 129.762C194.755 130.243 194.799 130.75 194.737 131.249L190.611 164.173C190.504 165.031 190.087 165.82 189.439 166.392C188.79 166.964 187.956 167.28 187.091 167.28Z" fill="url(#paint1_linear_1160_1305)"/>
<path d="M164.849 149.793C166.582 149.793 167.986 148.389 167.986 146.656C167.986 144.923 166.582 143.519 164.849 143.519C163.117 143.519 161.712 144.923 161.712 146.656C161.712 148.389 163.117 149.793 164.849 149.793Z" fill="white"/>
<path d="M62.0014 81.7457L59.3082 76.5786C59.3082 76.5786 49.7849 71.131 48.6812 69.1616C47.5773 67.1917 47.1435 61.5681 49.0974 60.1282C49.0974 60.1282 41.4993 54.4213 42.7928 53.265C44.082 52.025 59.01 63.1145 59.01 63.1145C59.01 63.1145 57.1926 54.9446 59.9545 54.5617C60.7027 57.7283 61.9843 60.7445 63.7446 63.4808C66.6525 67.9767 67.0107 72.0035 67.0107 72.0035L70.4378 78.5809L62.0014 81.7457Z" fill="#FFCCB3"/>
<path d="M49.6096 60.2726L54.211 63.1725" stroke="#FF967C" stroke-width="2.87188" stroke-linecap="round" stroke-linejoin="round"/>
<path d="M48.9236 63.5902L52.8288 66.0177" stroke="#FF967C" stroke-width="2.87188" stroke-linecap="round" stroke-linejoin="round"/>
<path d="M49.6826 67.1768L52.2873 68.823" stroke="#FF967C" stroke-width="2.87188" stroke-linecap="round" stroke-linejoin="round"/>
<path d="M67.6095 21.259C68.8207 21.259 69.8025 20.2772 69.8025 19.066C69.8025 17.8547 68.8207 16.8729 67.6095 16.8729C66.3982 16.8729 65.4164 17.8547 65.4164 19.066C65.4164 20.2772 66.3982 21.259 67.6095 21.259Z" fill="white"/>
<path d="M76.4669 21.259C77.6781 21.259 78.6599 20.2772 78.6599 19.066C78.6599 17.8547 77.6781 16.8729 76.4669 16.8729C75.2556 16.8729 74.2738 17.8547 74.2738 19.066C74.2738 20.2772 75.2556 21.259 76.4669 21.259Z" fill="white"/>
<path d="M84.7892 21.259C86.0004 21.259 86.9822 20.2772 86.9822 19.066C86.9822 17.8547 86.0004 16.8729 84.7892 16.8729C83.578 16.8729 82.5962 17.8547 82.5962 19.066C82.5962 20.2772 83.578 21.259 84.7892 21.259Z" fill="white"/>
<path opacity="0.7" d="M18.9133 18.7972C27.7304 26.3168 50.9828 43.4619 80.5145 44.281C81.1185 44.2991 81.6913 44.5521 82.1118 44.9861C82.5322 45.4198 82.7669 46.0007 82.7662 46.6049V93.3974C82.7664 93.9943 82.5373 94.5685 82.1258 95.001C81.7144 95.4334 81.1523 95.6912 80.5561 95.7208C71.6771 96.1625 38.0073 96.1111 15.6974 72.2254C15.2995 71.7964 15.0793 71.2323 15.0811 70.6474V20.5693C15.0808 20.1253 15.2077 19.6903 15.4469 19.3159C15.6861 18.9419 16.0273 18.6438 16.4305 18.4575C16.8334 18.271 17.2817 18.2038 17.7217 18.2642C18.1617 18.3244 18.5751 18.5091 18.9133 18.7972Z" fill="#FEBB94"/>
<path d="M22.2579 32.5862C22.2579 32.5862 29.2156 39.3469 38.7259 43.5464" stroke="white" stroke-width="7.4328" stroke-miterlimit="10" stroke-linecap="round"/>
<path opacity="0.4" d="M22.2579 40.7825C22.2579 40.7825 31.9412 49.8146 44.5376 53.1682" stroke="white" stroke-width="7.4328" stroke-miterlimit="10" stroke-linecap="round"/>
<path d="M20.8156 70.7529V51.2081L27.668 56.1116V76.1288L20.8156 70.7529Z" fill="white"/>
<path d="M32.3814 78.6506V64.7249L39.2338 68.8229V82.5891L32.3814 78.6506Z" fill="white"/>
<path d="M61.6825 89.5521V75.6264L54.83 74.6885V88.4547L61.6825 89.5521Z" fill="white"/>
<path d="M72.938 90.1483V65.7669H66.0856V89.9891L72.938 90.1483Z" fill="white"/>
<path d="M43.6059 84.7521V78.3853L50.4583 80.3123V87.2337L43.6059 84.7521Z" fill="white"/>
<g opacity="0.7">
<path d="M36.0753 115.757C44.8923 122.231 68.1447 139.126 97.6764 136.443C97.9635 136.409 98.2548 136.437 98.5301 136.526C98.8054 136.615 99.0584 136.762 99.272 136.957C99.4856 137.152 99.6548 137.391 99.7679 137.657C99.881 137.923 99.9356 138.21 99.9281 138.499V185.292C99.9131 185.911 99.6852 186.507 99.2825 186.977C98.8801 187.449 98.3275 187.766 97.718 187.878C88.8388 189.372 51.9102 188.634 32.8591 169.567C32.662 169.369 32.5061 169.134 32.4003 168.876C32.2945 168.617 32.241 168.341 32.2431 168.062V117.983C32.2431 116 34.5662 114.649 36.0753 115.757Z" fill="#96BAFD"/>
</g>
<path d="M177.99 165.936C177.99 165.936 180.353 166.132 179.997 167.325C179.641 168.517 177.532 167.966 175.606 169.158C173.681 170.351 166.068 171.201 162.265 170.567C158.462 169.934 157.406 165.936 157.406 165.936C157.406 165.936 156.77 162.144 163.487 161.755C170.204 161.365 173.33 163.521 174.499 165.857L177.99 165.936Z" fill="#FFCCB3"/>
<path d="M160.261 162.344L161.712 166.246" stroke="#E56441" stroke-width="2.23881" stroke-linecap="round"/>
<path d="M164.019 161.709L165.469 165.611" stroke="#E56441" stroke-width="2.23881" stroke-linecap="round"/>
<path d="M167.986 162.039L169.437 165.941" stroke="#E56441" stroke-width="2.23881" stroke-linecap="round"/>
<path opacity="0.7" d="M249.475 119.563C237.177 130.052 204.743 153.968 163.549 155.111C162.707 155.136 161.908 155.489 161.321 156.094C160.734 156.7 160.407 157.51 160.408 158.352V223.623C160.408 224.456 160.728 225.257 161.302 225.86C161.876 226.463 162.659 226.823 163.491 226.864C175.876 227.48 222.841 227.409 253.963 194.091C254.517 193.492 254.826 192.705 254.823 191.889V122.035C254.823 121.416 254.645 120.809 254.312 120.287C253.978 119.765 253.502 119.35 252.94 119.09C252.378 118.83 251.752 118.736 251.14 118.82C250.526 118.904 249.949 119.162 249.475 119.563Z" fill="#1C85E8"/>
<path d="M244.812 138.798C244.812 138.798 235.106 148.228 221.841 154.086" stroke="white" stroke-width="10.368" stroke-miterlimit="10" stroke-linecap="round"/>
<path opacity="0.4" d="M244.812 150.231C244.812 150.231 231.303 162.83 213.733 167.508" stroke="white" stroke-width="10.368" stroke-miterlimit="10" stroke-linecap="round"/>
<path d="M238.504 98.9144H200.961C200.224 98.9144 199.495 99.0596 198.814 99.3414C198.134 99.6232 197.515 100.036 196.994 100.557C196.474 101.078 196.061 101.696 195.779 102.377C195.497 103.057 195.352 103.787 195.352 104.523V116.138C195.352 116.875 195.497 117.604 195.779 118.285C196.061 118.965 196.474 119.584 196.994 120.104C197.515 120.625 198.134 121.039 198.814 121.32C199.495 121.602 200.224 121.747 200.961 121.747H214.289L218.221 125.68C218.589 126.048 219.088 126.255 219.61 126.255C220.131 126.255 220.63 126.048 220.999 125.68L224.93 121.747H238.504C239.99 121.747 241.42 121.156 242.47 120.104C243.523 119.053 244.112 117.626 244.112 116.138V104.523C244.112 103.036 243.523 101.609 242.47 100.557C241.42 99.5054 239.99 98.9144 238.504 98.9144Z" fill="white"/>
<path d="M224.588 106.72C224.087 106.257 223.43 106 222.748 106C222.066 106 221.409 106.257 220.907 106.72L220.214 107.36L219.521 106.72C219.02 106.257 218.363 106 217.681 106C216.998 106 216.341 106.257 215.84 106.72C215.576 106.96 215.364 107.252 215.219 107.578C215.075 107.904 215 108.257 215 108.614C215 108.971 215.075 109.324 215.219 109.65C215.364 109.976 215.576 110.268 215.84 110.507L220.214 114.562L224.588 110.561C224.864 110.323 225.087 110.028 225.237 109.697C225.39 109.365 225.468 109.005 225.468 108.641C225.468 108.276 225.39 107.916 225.237 107.584C225.087 107.253 224.864 106.958 224.588 106.72Z" fill="#F4608A"/>
<path d="M168.889 198.535C168.889 198.535 177.916 196.645 182.044 192.266C187.512 186.465 188.773 179.508 194.765 178.792C204.168 177.67 209.618 210.866 221.034 206.375C232.449 201.883 229.751 177.093 236.543 172.891C241.222 169.997 243.653 178.605 250.205 176.36" stroke="white" stroke-width="10.368" stroke-miterlimit="10" stroke-linecap="round"/>
<path opacity="0.7" d="M80.0536 171.295C86.8015 173.222 102.588 176.664 123.273 174.29C123.606 174.242 123.944 174.268 124.266 174.365C124.587 174.461 124.884 174.627 125.135 174.85C125.386 175.073 125.585 175.347 125.72 175.655C125.854 175.963 125.919 176.296 125.912 176.632V208.557C125.897 209.261 125.633 209.938 125.169 210.467C124.704 210.996 124.067 211.345 123.37 211.451C116.005 212.458 94.1365 214.611 77.8398 207.575C77.4229 207.391 77.0698 207.087 76.8254 206.702C76.5809 206.317 76.4563 205.868 76.4669 205.413V174.119C76.4669 172.268 78.3302 170.803 80.0536 171.295Z" fill="url(#paint2_linear_1160_1305)"/>
<path d="M50.4247 163.1C45.5046 161.366 41.5162 155.971 41.5162 151.051C41.5162 146.13 45.5046 143.548 50.4247 145.283V139.565C42.4762 136.762 36.0327 140.934 36.0327 148.882C36.0327 156.831 42.4762 165.546 50.4247 168.349C58.0375 171.033 64.2656 167.318 64.7786 160.016L59.2986 158.084C58.9113 162.51 55.0876 164.745 50.4247 163.1Z" fill="white"/>
<path d="M52.2522 138.382V144.1C57.1723 145.835 61.1607 151.23 61.1607 156.15C61.1607 156.407 61.1474 156.656 61.1261 156.901L66.6058 158.833C66.6284 158.511 66.6442 158.184 66.6442 157.848C66.6442 149.9 60.2005 141.184 52.2522 138.382Z" fill="#1C85E8"/>
<path d="M50.4247 163.1V168.349" stroke="white" stroke-width="2.42819" stroke-miterlimit="10"/>
<path d="M41.5162 151.051L36.0327 149.117" stroke="white" stroke-width="2.42819" stroke-miterlimit="10"/>
<path d="M73.5049 151.868L83.6798 153.802" stroke="white" stroke-width="10.368" stroke-miterlimit="10" stroke-linecap="round"/>
<path opacity="0.4" d="M73.5049 167.811L83.6798 169.745" stroke="white" stroke-width="10.368" stroke-miterlimit="10" stroke-linecap="round"/>
<path d="M73.5049 160.002L88.1231 162.78" stroke="white" stroke-width="10.368" stroke-miterlimit="10" stroke-linecap="round"/>
<g opacity="0.7">
<path d="M257.014 15.0967C248.197 21.5707 232.068 37.896 196.866 43.32C194.171 43.7352 193.162 45.6527 193.162 47.7716V92.4045C193.177 93.0238 193.405 93.619 193.807 94.0899C194.21 94.5607 194.762 94.8786 195.372 94.9897C204.251 96.4845 238.446 87.7617 258.895 70.2001C260.848 68.5228 260.848 65.709 260.848 65.1243V17.3235C260.848 15.3403 258.524 13.9887 257.014 15.0967Z" fill="url(#paint3_linear_1160_1305)"/>
</g>
<path d="M197.816 51.2736V78.88C197.816 79.1204 197.87 79.3576 197.974 79.5742C198.077 79.7908 198.229 79.9814 198.416 80.1318C198.604 80.282 198.822 80.3883 199.056 80.4427C199.291 80.4969 199.534 80.4979 199.768 80.4455C204.797 79.3192 218.399 76.0631 226.988 72.0108C227.264 71.8809 227.495 71.6756 227.658 71.4188C227.818 71.1621 227.906 70.8645 227.903 70.5609V43.6768C227.906 43.408 227.838 43.1435 227.708 42.9073C227.58 42.6714 227.394 42.4718 227.166 42.3267C226.941 42.1815 226.682 42.0955 226.414 42.0767C226.146 42.0579 225.878 42.1068 225.632 42.2191C220.846 44.4237 209.343 49.2395 199.338 49.6727C198.927 49.6923 198.539 49.8698 198.256 50.1679C197.972 50.466 197.815 50.8621 197.816 51.2736Z" fill="white"/>
<path d="M199.059 74.4363V77.3398C199.059 77.5597 199.11 77.7766 199.208 77.9737C199.305 78.1707 199.446 78.3427 199.621 78.4761C199.796 78.6095 199.999 78.7007 200.215 78.7426C200.431 78.7847 200.653 78.7765 200.865 78.7185L215.911 74.605C216.15 74.5403 216.365 74.4155 216.541 74.2425C216.716 74.0695 216.842 73.8546 216.909 73.6179C216.977 73.3815 216.982 73.1318 216.924 72.8928C216.867 72.6537 216.749 72.4335 216.583 72.2535L208.515 63.5744C208.37 63.4187 208.194 63.2971 207.996 63.2189C207.798 63.1404 207.585 63.107 207.373 63.1213C207.161 63.1356 206.955 63.197 206.769 63.3011C206.584 63.4054 206.424 63.5496 206.301 63.7233L199.321 73.6119C199.151 73.8531 199.059 74.1409 199.059 74.4363Z" fill="#1C85E8"/>
<path opacity="0.6" d="M214.4 67.626L218.915 72.4172C219.06 72.5714 219.248 72.6787 219.454 72.7251C219.66 72.7717 219.875 72.7554 220.073 72.6785C221.407 72.1575 224.403 70.9796 225.92 70.3272C226.111 70.245 226.271 70.1091 226.386 69.9358C226.499 69.7626 226.559 69.5598 226.559 69.3524V64.8631C226.559 64.6339 226.484 64.411 226.349 64.2277L220.001 55.7238C219.885 55.5712 219.732 55.4518 219.557 55.3786C219.381 55.3054 219.188 55.2808 219 55.3074C218.812 55.3342 218.634 55.4109 218.484 55.53C218.336 55.6491 218.223 55.8058 218.155 55.9841L214.179 66.5226C214.109 66.7088 214.091 66.9109 214.131 67.106C214.169 67.301 214.264 67.4811 214.4 67.626Z" fill="#1C85E8"/>
<path d="M210.436 60.1448C211.775 60.1448 212.86 59.0597 212.86 57.7208C212.86 56.382 211.775 55.2969 210.436 55.2969C209.097 55.2969 208.011 56.382 208.011 57.7208C208.011 59.0597 209.097 60.1448 210.436 60.1448Z" fill="#FEBB94"/>
<path d="M234.893 41.3183C241.114 38.1638 247.101 34.5672 252.807 30.5567" stroke="white" stroke-width="10.368" stroke-miterlimit="10" stroke-linecap="round"/>
<path d="M234.893 51.7896C234.893 51.7896 238.97 49.8026 244.564 46.4089" stroke="white" stroke-width="10.368" stroke-miterlimit="10" stroke-linecap="round"/>
<path d="M234.893 62.0272C241.114 58.8724 247.101 55.2761 252.807 51.2656" stroke="white" stroke-width="10.368" stroke-miterlimit="10" stroke-linecap="round"/>
<path d="M234.893 73.5211C241.114 70.3663 247.101 66.77 252.807 62.7595" stroke="white" stroke-width="10.368" stroke-miterlimit="10" stroke-linecap="round"/>
<path d="M201.273 88.4071C202.496 88.4071 203.487 87.416 203.487 86.1932C203.487 84.9705 202.496 83.9791 201.273 83.9791C200.05 83.9791 199.059 84.9705 199.059 86.1932C199.059 87.416 200.05 88.4071 201.273 88.4071Z" fill="white"/>
<path d="M214.111 84.825C215.332 84.825 216.325 83.8339 216.325 82.6112C216.325 81.3884 215.332 80.3973 214.111 80.3973C212.888 80.3973 211.897 81.3884 211.897 82.6112C211.897 83.8339 212.888 84.825 214.111 84.825Z" fill="white"/>
<path d="M225.689 80.8701C226.913 80.8701 227.903 79.8788 227.903 78.6561C227.903 77.4333 226.913 76.4422 225.689 76.4422C224.468 76.4422 223.476 77.4333 223.476 78.6561C223.476 79.8788 224.468 80.8701 225.689 80.8701Z" fill="white"/>
</g>
<defs>
<filter id="filter0_d_1160_1305" x="0.0810852" y="0" width="285.767" height="257" filterUnits="userSpaceOnUse" color-interpolation-filters="sRGB">
<feFlood flood-opacity="0" result="BackgroundImageFix"/>
<feColorMatrix in="SourceAlpha" type="matrix" values="0 0 0 0 0 0 0 0 0 0 0 0 0 0 0 0 0 0 127 0" result="hardAlpha"/>
<feOffset dx="5" dy="10"/>
<feGaussianBlur stdDeviation="10"/>
<feComposite in2="hardAlpha" operator="out"/>
<feColorMatrix type="matrix" values="0 0 0 0 0.921569 0 0 0 0 0.921569 0 0 0 0 0.921569 0 0 0 0.41 0"/>
<feBlend mode="normal" in2="BackgroundImageFix" result="effect1_dropShadow_1160_1305"/>
<feBlend mode="normal" in="SourceGraphic" in2="effect1_dropShadow_1160_1305" result="shape"/>
</filter>
<linearGradient id="paint0_linear_1160_1305" x1="118.719" y1="-181.766" x2="208.984" y2="377.925" gradientUnits="userSpaceOnUse">
<stop stop-color="white"/>
<stop offset="1" stop-color="#94B9FF"/>
</linearGradient>
<linearGradient id="paint1_linear_1160_1305" x1="163.249" y1="127.165" x2="169.421" y2="212.567" gradientUnits="userSpaceOnUse">
<stop stop-color="white"/>
<stop offset="1" stop-color="#94B9FF"/>
</linearGradient>
<linearGradient id="paint2_linear_1160_1305" x1="99.9585" y1="171.1" x2="107.941" y2="259.114" gradientUnits="userSpaceOnUse">
<stop stop-color="white"/>
<stop offset="1" stop-color="#94B9FF"/>
</linearGradient>
<linearGradient id="paint3_linear_1160_1305" x1="218.842" y1="-85.5926" x2="269.58" y2="179.061" gradientUnits="userSpaceOnUse">
<stop stop-color="white"/>
<stop offset="1" stop-color="#94B9FF"/>
</linearGradient>
</defs>
</svg>
