<svg width="286" height="257" viewBox="0 0 286 257" fill="none" xmlns="http://www.w3.org/2000/svg">
<g filter="url(#filter0_d_1160_1494)">
<path d="M139.8 197.835C191.277 197.835 233.008 196.688 233.008 195.273C233.008 193.858 191.277 192.711 139.8 192.711C88.3228 192.711 46.5925 193.858 46.5925 195.273C46.5925 196.688 88.3228 197.835 139.8 197.835Z" fill="#F5F8FF"/>
<path d="M152.537 194.237H89.2518C84.1188 194.237 80.6631 190.349 81.5335 185.553L107.021 45.1225C107.892 40.3267 112.759 36.439 117.892 36.439H181.176C186.309 36.439 189.765 40.3267 188.895 45.1225L163.407 185.553C162.537 190.349 157.67 194.237 152.537 194.237Z" fill="#5CA4E6"/>
<path d="M144.632 194.237H81.3474C76.2143 194.237 72.7587 190.349 73.629 185.553L99.1168 45.1225C99.9872 40.3267 104.854 36.439 109.987 36.439H173.272C178.405 36.439 181.861 40.3267 180.99 45.1225L155.503 185.553C154.632 190.349 149.765 194.237 144.632 194.237Z" fill="#D1E8F7"/>
<path d="M144.996 189.542H82.6879C80.0224 189.542 78.2282 187.523 78.6802 185.033L103.979 45.6427C104.431 43.1525 106.958 41.134 109.624 41.134H171.932C174.597 41.134 176.391 43.1525 175.939 45.6427L150.64 185.033C150.188 187.523 147.661 189.542 144.996 189.542Z" fill="white"/>
<path d="M150.893 88.0992H91.3165L97.5258 56.0517C97.9327 54.0977 99.958 52.5137 102.049 52.5137H158.302C160.393 52.5137 161.759 54.0977 161.352 56.0517L155.417 84.5614C155.01 86.5151 152.985 88.0992 150.893 88.0992Z" fill="url(#paint0_linear_1160_1494)"/>
<path d="M146.092 83.9755H56.9013C54.81 83.9755 53.444 82.3914 53.8509 80.4374L59.786 51.9278C60.1928 49.9737 62.2179 48.3897 64.3095 48.3897H153.5C155.591 48.3897 156.957 49.9737 156.55 51.9278L150.615 80.4374C150.208 82.3914 148.183 83.9755 146.092 83.9755Z" fill="#FEBB94"/>
<path d="M140.401 185.908L85.0834 186.153C82.9919 186.153 81.6262 184.569 82.033 182.615L87.9681 154.105C88.3749 152.151 90.4001 150.567 92.4916 150.567L147.81 150.322C149.901 150.322 151.267 151.906 150.86 153.86L144.925 182.37C144.518 184.324 142.493 185.908 140.401 185.908Z" fill="#FEBB94"/>
<path d="M91.1674 177.274C92.7413 165.773 104.439 156.449 117.294 156.449C130.15 156.449 139.296 165.773 137.722 177.274" stroke="#FF967C" stroke-width="16.5208" stroke-miterlimit="10" stroke-linecap="round"/>
<path d="M91.1674 177.274C92.7413 165.773 104.439 156.449 117.294 156.449C123.657 156.449 129.111 158.733 132.806 162.434" stroke="white" stroke-width="16.5208" stroke-miterlimit="10" stroke-linecap="round"/>
<path d="M133.786 146.291H94.1771C92.063 146.291 90.634 144.69 90.9857 142.715L99.3509 95.7063C99.7023 93.7312 101.701 92.1302 103.815 92.1302H143.424C145.538 92.1302 146.967 93.7312 146.616 95.7063L138.25 142.715C137.899 144.69 135.9 146.291 133.786 146.291Z" fill="url(#paint1_linear_1160_1494)"/>
<path d="M106.374 116.989H100.974C100.677 116.998 100.392 117.102 100.166 117.282C99.9405 117.463 99.7874 117.71 99.7322 117.983L96.7992 134.466C96.7705 134.588 96.7724 134.714 96.8041 134.836C96.8362 134.957 96.8971 135.07 96.9827 135.166C97.0684 135.261 97.1763 135.338 97.2982 135.389C97.4203 135.44 97.5532 135.464 97.6866 135.46H103.087C103.384 135.451 103.669 135.347 103.895 135.166C104.12 134.986 104.273 134.739 104.329 134.466L107.262 117.983C107.29 117.861 107.288 117.735 107.256 117.614C107.225 117.492 107.164 117.379 107.078 117.283C106.993 117.187 106.885 117.111 106.762 117.06C106.641 117.009 106.508 116.984 106.374 116.989Z" fill="white"/>
<path d="M116.227 122.628H110.827C110.53 122.638 110.245 122.741 110.019 122.922C109.794 123.103 109.641 123.35 109.585 123.623L107.656 134.466C107.627 134.588 107.629 134.714 107.661 134.836C107.693 134.957 107.754 135.07 107.84 135.166C107.925 135.261 108.033 135.338 108.155 135.389C108.277 135.44 108.41 135.464 108.543 135.46H113.944C114.241 135.451 114.526 135.347 114.751 135.166C114.977 134.986 115.13 134.739 115.185 134.466L117.115 123.623C117.143 123.501 117.142 123.374 117.11 123.253C117.078 123.132 117.017 123.019 116.931 122.923C116.846 122.827 116.738 122.75 116.616 122.699C116.494 122.648 116.361 122.624 116.227 122.628Z" fill="white"/>
<path d="M129.271 106.761H123.87C123.573 106.77 123.289 106.874 123.063 107.055C122.837 107.236 122.684 107.483 122.629 107.756L117.876 134.466C117.847 134.588 117.849 134.714 117.881 134.836C117.913 134.957 117.974 135.07 118.059 135.166C118.145 135.261 118.253 135.338 118.375 135.389C118.497 135.44 118.63 135.464 118.763 135.46H124.164C124.461 135.451 124.746 135.347 124.971 135.166C125.197 134.986 125.35 134.739 125.405 134.466L130.158 107.756C130.187 107.634 130.185 107.507 130.153 107.386C130.121 107.265 130.06 107.152 129.975 107.056C129.889 106.96 129.781 106.883 129.659 106.832C129.537 106.781 129.404 106.757 129.271 106.761Z" fill="white"/>
<path d="M138.564 113.685H133.164C132.867 113.694 132.582 113.798 132.356 113.979C132.131 114.159 131.977 114.406 131.922 114.679L128.401 134.466C128.373 134.588 128.374 134.714 128.406 134.835C128.438 134.957 128.499 135.07 128.585 135.165C128.67 135.261 128.778 135.338 128.9 135.389C129.022 135.44 129.155 135.464 129.289 135.46H134.689C134.986 135.451 135.271 135.347 135.497 135.166C135.722 134.986 135.876 134.739 135.931 134.466L139.452 114.679C139.48 114.557 139.478 114.431 139.447 114.31C139.415 114.188 139.354 114.075 139.268 113.98C139.182 113.884 139.075 113.807 138.953 113.756C138.831 113.705 138.698 113.681 138.564 113.685Z" fill="white"/>
<path d="M103.304 97.9133H117.925" stroke="white" stroke-width="10" stroke-miterlimit="10" stroke-linecap="round"/>
<path d="M102.478 102.552H109.789" stroke="white" stroke-width="10" stroke-miterlimit="10" stroke-linecap="round"/>
<path opacity="0.6" d="M98.3752 138.819H101.203" stroke="white" stroke-width="6" stroke-miterlimit="10" stroke-linecap="round"/>
<path opacity="0.6" d="M109.232 138.819H112.06" stroke="white" stroke-width="6" stroke-miterlimit="10" stroke-linecap="round"/>
<path opacity="0.6" d="M119.452 138.819H122.28" stroke="white" stroke-width="6" stroke-miterlimit="10" stroke-linecap="round"/>
<path opacity="0.6" d="M129.977 138.819H132.805" stroke="white" stroke-width="6" stroke-miterlimit="10" stroke-linecap="round"/>
<path d="M185.742 146.291H146.133C144.019 146.291 142.59 144.69 142.941 142.715L151.307 95.7063C151.658 93.7312 153.657 92.1302 155.771 92.1302H195.38C197.494 92.1302 198.923 93.7312 198.572 95.7063L190.206 142.715C189.855 144.69 187.856 146.291 185.742 146.291Z" fill="url(#paint2_linear_1160_1494)"/>
<path d="M157.304 124.075H151.904C151.606 124.085 151.322 124.188 151.096 124.369C150.87 124.55 150.717 124.797 150.662 125.07L148.755 134.466C148.727 134.588 148.728 134.714 148.76 134.835C148.792 134.957 148.853 135.07 148.939 135.165C149.024 135.261 149.132 135.338 149.254 135.389C149.376 135.44 149.509 135.464 149.643 135.46H155.043C155.34 135.451 155.625 135.347 155.851 135.166C156.076 134.986 156.229 134.739 156.284 134.466L158.192 125.07C158.22 124.948 158.218 124.821 158.186 124.7C158.155 124.579 158.093 124.466 158.008 124.37C157.922 124.274 157.814 124.198 157.692 124.146C157.571 124.095 157.438 124.071 157.304 124.075Z" fill="white"/>
<path d="M170.223 109.526H164.822C164.525 109.535 164.241 109.639 164.015 109.82C163.789 110 163.636 110.247 163.581 110.52L159.612 134.466C159.583 134.588 159.585 134.714 159.617 134.836C159.649 134.957 159.71 135.07 159.795 135.166C159.881 135.261 159.989 135.338 160.111 135.389C160.233 135.44 160.366 135.464 160.499 135.46H165.9C166.197 135.451 166.482 135.347 166.707 135.167C166.933 134.986 167.086 134.739 167.141 134.466L171.11 110.52C171.139 110.398 171.137 110.272 171.105 110.151C171.073 110.029 171.012 109.916 170.927 109.821C170.841 109.725 170.733 109.648 170.611 109.597C170.489 109.546 170.356 109.522 170.223 109.526Z" fill="white"/>
<path d="M179.44 116.363H174.039C173.742 116.372 173.458 116.476 173.232 116.656C173.006 116.837 172.853 117.084 172.798 117.357L169.832 134.466C169.803 134.588 169.805 134.714 169.837 134.835C169.869 134.957 169.93 135.07 170.015 135.165C170.101 135.261 170.209 135.338 170.331 135.389C170.453 135.44 170.586 135.464 170.719 135.46H176.12C176.417 135.451 176.702 135.347 176.927 135.166C177.153 134.986 177.306 134.739 177.361 134.466L180.327 117.357C180.356 117.235 180.354 117.109 180.322 116.987C180.29 116.866 180.229 116.753 180.144 116.657C180.058 116.561 179.95 116.485 179.828 116.434C179.706 116.383 179.573 116.359 179.44 116.363Z" fill="white"/>
<path d="M190.52 113.685H185.12C184.822 113.694 184.538 113.798 184.312 113.979C184.086 114.159 183.933 114.406 183.878 114.679L180.357 134.466C180.329 134.588 180.33 134.714 180.362 134.835C180.394 134.957 180.455 135.07 180.541 135.165C180.626 135.261 180.734 135.338 180.856 135.389C180.978 135.44 181.111 135.464 181.245 135.46H186.645C186.942 135.451 187.227 135.347 187.453 135.166C187.678 134.986 187.831 134.739 187.886 134.466L191.407 114.679C191.436 114.557 191.434 114.431 191.402 114.31C191.37 114.188 191.31 114.075 191.224 113.98C191.138 113.884 191.03 113.807 190.908 113.756C190.786 113.705 190.653 113.681 190.52 113.685Z" fill="white"/>
<path d="M155.26 97.9133H169.881" stroke="white" stroke-width="10" stroke-miterlimit="10" stroke-linecap="round"/>
<path d="M154.434 102.552H161.745" stroke="white" stroke-width="10" stroke-miterlimit="10" stroke-linecap="round"/>
<path opacity="0.6" d="M150.331 138.819H153.159" stroke="white" stroke-width="6" stroke-miterlimit="10" stroke-linecap="round"/>
<path opacity="0.6" d="M161.188 138.819H164.016" stroke="white" stroke-width="6" stroke-miterlimit="10" stroke-linecap="round"/>
<path opacity="0.6" d="M171.408 138.819H174.236" stroke="white" stroke-width="6" stroke-miterlimit="10" stroke-linecap="round"/>
<path opacity="0.6" d="M181.933 138.819H184.761" stroke="white" stroke-width="6" stroke-miterlimit="10" stroke-linecap="round"/>
<path d="M17.6147 199.122L28.862 221.104L27.4672 221.727C26.9963 221.937 26.4556 221.964 25.9637 221.801C25.4718 221.639 25.0689 221.301 24.8441 220.861L15.2931 202.196C15.0683 201.756 15.0394 201.25 15.213 200.791C15.3868 200.331 15.7487 199.955 16.2196 199.745L17.6147 199.122Z" fill="#71C8EA"/>
<path d="M29.8598 194.158L22.0975 197.156L26.4522 202.909L33.3336 200.947L29.8598 194.158Z" fill="#FFCCB3"/>
<path d="M24.9016 197.386C24.9016 197.386 27.9321 201.758 28.3893 204.202C28.8466 206.645 30.4121 219.005 29.9908 220.119C29.688 220.92 28.5882 221.264 27.8903 221.336C27.7372 221.351 27.5828 221.322 27.4486 221.251C27.3144 221.181 27.2067 221.073 27.1411 220.943L16.9314 200.989C16.7607 200.656 16.7368 200.274 16.8644 199.925C16.9923 199.576 17.2615 199.288 17.6148 199.122C19.0272 198.459 21.1878 197.465 22.0976 197.156C23.5037 196.678 24.4318 196.681 24.9016 197.386Z" fill="#5661AE"/>
<path d="M79.8505 207.847L69.3026 226.038C69.0539 226.466 68.6334 226.785 68.1334 226.924C67.6333 227.063 67.0947 227.01 66.6359 226.778L65.2762 226.09L77.6986 204.667L79.0579 205.355C79.5167 205.587 79.8579 205.98 80.0065 206.448C80.1552 206.915 80.0992 207.418 79.8505 207.847Z" fill="#71C8EA"/>
<path d="M65.7374 199.132L73.3276 202.492L68.6672 208.032L61.9006 205.748L65.7374 199.132Z" fill="#FFCCB3"/>
<path d="M70.5146 202.589C70.5146 202.589 67.2514 206.813 66.6626 209.232C66.0741 211.651 63.842 223.921 64.2023 225.053C64.4613 225.867 65.5412 226.263 66.2343 226.368C66.3863 226.391 66.5421 226.368 66.68 226.304C66.8178 226.24 66.931 226.138 67.0038 226.011L78.28 206.565C78.4683 206.24 78.5129 205.86 78.4042 205.505C78.2955 205.15 78.042 204.849 77.6985 204.667C76.3237 203.938 74.2192 202.844 73.3276 202.492C71.9491 201.948 71.022 201.908 70.5146 202.589Z" fill="#5661AE"/>
<path d="M88.6041 173.219C88.6041 173.219 91.5099 186.7 89.2549 189.341L31.7959 203.086L26.896 194.512L60.4496 180.287L67.1695 171.683L88.6041 173.219Z" fill="#D1E8F7"/>
<path d="M74.064 182.838L61.3864 186.799L55.4707 189.117L63.1636 195.583L56.2859 197.034L37.5261 182.838H74.064Z" fill="#5CA4E6"/>
<path d="M30.4963 193.387L30.8863 194.654L39.7947 201.15L48.1628 199.242C48.1628 199.242 32.0198 192.065 30.4963 193.387Z" fill="#5CA4E6"/>
<path d="M46.6233 172.432C46.6233 172.432 30.3758 171.609 22.3226 172.271C17.137 172.696 15.2676 185.093 19.4058 187.349L63.8178 208.593L69.0515 199.758L40.4016 181.641L60.8984 178.947L46.6233 172.432Z" fill="#D1E8F7"/>
<path d="M23.6883 188.404C28.4865 188.404 32.3763 184.77 32.3763 180.287C32.3763 175.805 28.4865 172.17 23.6883 172.17C18.8898 172.17 15 175.805 15 180.287C15 184.77 18.8898 188.404 23.6883 188.404Z" fill="#D1E8F7"/>
<path d="M87.8116 189.452C92.6098 189.452 96.4996 185.818 96.4996 181.336C96.4996 176.853 92.6098 173.219 87.8116 173.219C83.0131 173.219 79.1233 176.853 79.1233 181.336C79.1233 185.818 83.0131 189.452 87.8116 189.452Z" fill="#D1E8F7"/>
<path d="M64.0117 143.034C63.0964 138.812 65.2489 138.921 65.9654 138.25C65.9654 138.25 68.6526 136.18 70.7003 138.109C72.8678 140.151 85.2925 156.008 85.2925 156.008L77.5184 162.688L76.0571 161.059L72.2719 156.841L68.2232 152.334L67.7203 151.821L62.2587 146.041C62.2587 146.041 64.5293 145.256 64.0117 143.034Z" fill="#5661AE"/>
<path d="M68.323 147.273C71.452 146.294 73.1386 143.131 72.0907 140.208C71.0428 137.285 67.657 135.709 64.528 136.688C61.3993 137.667 59.7125 140.83 60.7606 143.753C61.8085 146.676 65.1943 148.252 68.323 147.273Z" fill="#5661AE"/>
<path d="M67.7919 151.798C67.6351 150.916 67.3215 149.151 66.984 147.543L65.1906 139.759C65.1906 139.759 70.0077 146.411 72.2271 151.044C73.8707 154.516 75.7774 158.054 76.0928 161.048L72.3078 156.83L68.2591 152.323L67.7919 151.798Z" fill="#465393"/>
<path d="M93.0575 138.155C94.9048 135.007 94.0171 134.473 94.8029 132.682C95.5771 130.935 94.2026 126.602 95.5186 127.193C96.8344 127.784 97.2417 129.354 97.2417 129.354C98.1417 127.866 98.9706 125.129 101.125 124.816C103.28 124.503 103.47 125.136 104.692 126.073C107.941 128.598 103.798 132.394 103.106 133.839C102.661 134.745 99.3923 137.507 99.0302 138.111L97.3848 140.34L93.0575 138.155Z" fill="#FFCCB3"/>
<path d="M99.405 129.549L102.031 125.02L99.405 129.549Z" fill="#E56441"/>
<path d="M99.405 129.549L102.031 125.02" stroke="#E56441" stroke-width="0.94666" stroke-linecap="round"/>
<path d="M101.125 130.282L103.987 126.064L101.125 130.282Z" fill="#E56441"/>
<path d="M101.125 130.282L103.987 126.064" stroke="#E56441" stroke-width="0.94666" stroke-linecap="round"/>
<path d="M103.169 131.093L104.804 128.539L103.169 131.093Z" fill="#E56441"/>
<path d="M103.169 131.093L104.804 128.539" stroke="#E56441" stroke-width="0.94666" stroke-linecap="round"/>
<path d="M98.7563 133.535C98.7424 131.967 97.7352 130.07 97.7352 130.07L98.7563 133.535Z" fill="#E56441"/>
<path d="M98.7563 133.535C98.7424 131.967 97.7352 130.07 97.7352 130.07" stroke="#E56441" stroke-width="0.94666" stroke-linecap="round"/>
<path d="M77.4524 155.882L93.2608 136.214C93.3614 136.099 93.5045 136.022 93.6621 135.999C93.8196 135.976 93.9809 136.009 94.1143 136.09L98.2538 138.648C98.4506 138.772 98.5905 138.961 98.647 139.176C98.7035 139.392 98.672 139.619 98.5588 139.815L85.846 161.718L77.4524 155.882Z" fill="#5661AE"/>
<path d="M81.2933 164.189C84.2171 164.189 86.5874 161.975 86.5874 159.243C86.5874 156.512 84.2171 154.298 81.2933 154.298C78.3697 154.298 75.9995 156.512 75.9995 159.243C75.9995 161.975 78.3697 164.189 81.2933 164.189Z" fill="#5661AE"/>
<path d="M57.8181 133.902C57.8181 133.902 66.6894 136.096 68.2121 136.665C69.7351 137.234 69.8364 139.51 69.9381 141.123C70.0395 142.735 69.6986 178.947 69.6986 178.947L50.0655 178.242L35.3831 170.212C35.3831 170.212 36.0215 141.479 36.2245 140.151C36.4275 138.824 34.8321 137.68 36.5615 137.012L47.6785 134.268L57.8181 133.902Z" fill="#5661AE"/>
<path d="M43.0444 146.802L43.2025 173.557L34.7622 164.768L38.8458 145.97L43.0444 146.802Z" fill="#465393"/>
<path d="M46.2307 134.677C46.2307 134.677 44.9748 137.037 46.2307 138.664C47.4865 140.292 52.5143 141.873 55.9492 141.827C59.3839 141.78 61.2039 138.721 59.6468 134.437L53.958 132.944L47.6785 134.268L46.2307 134.677Z" fill="#465393"/>
<path d="M60.4498 114.341C60.4498 114.341 62.9233 119.327 60.2852 120.357C57.6471 121.387 57.9544 114.583 60.4498 114.341Z" fill="#93523E"/>
<path d="M57.6598 130.297L58.3754 137.835C58.3754 137.835 59.0614 138.846 56.3897 139.377C54.6711 139.718 50.043 138.014 49.1451 137.503C48.7632 137.314 48.4641 137.006 48.2992 136.633C48.1342 136.26 48.1138 135.844 48.2411 135.458C48.514 134.536 49.6449 126.851 49.6449 126.851L57.6598 130.297Z" fill="#FFCCB3"/>
<path d="M57.7977 131.75L53.5347 129.783L58.2872 136.906L57.7977 131.75Z" fill="#FF967C"/>
<path d="M59.0294 115.784C59.0294 115.784 61.5312 121.646 62.4385 125.757C63.3541 129.906 61.8933 130.942 59.9659 131.552C58.4455 132.034 56.0178 132.417 54.3664 131.934C51.3549 131.054 48.4087 128.511 47.7041 127.989C46.6131 127.181 45.5361 123.514 47.1349 121.439C48.7341 119.364 55.0343 112.845 59.0294 115.784Z" fill="#FFCCB3"/>
<path d="M55.8085 123.875C56.1413 123.752 56.2489 123.269 56.0491 122.794C55.8492 122.32 55.4177 122.034 55.085 122.156C54.7522 122.279 54.6446 122.762 54.8442 123.237C55.044 123.711 55.4758 123.997 55.8085 123.875Z" fill="#080B09"/>
<path d="M60.3813 122.163C60.7141 122.04 60.8218 121.556 60.6219 121.082C60.4223 120.608 59.9905 120.322 59.6578 120.445C59.325 120.567 59.2174 121.051 59.4172 121.525C59.6168 121.999 60.0486 122.285 60.3813 122.163Z" fill="#080B09"/>
<path d="M58.7042 122.972C58.7042 122.972 58.298 124.121 59.152 124.009C59.9638 123.876 60.5148 124.251 59.8054 125.02" fill="#E56441"/>
<path d="M58.7042 122.972C58.7042 122.972 58.298 124.121 59.152 124.009C59.9638 123.876 60.5148 124.251 59.8054 125.02" stroke="#E56441" stroke-width="0.94666" stroke-linecap="round"/>
<path d="M59.845 126.036L59.8492 126.035L59.8534 126.034C59.8653 126.03 59.8779 126.03 59.8897 126.033C59.9018 126.035 59.9128 126.041 59.9217 126.049C59.9307 126.057 59.9372 126.067 59.9406 126.078C59.9438 126.089 59.944 126.101 59.9409 126.112L59.9383 126.122L59.9372 126.132C59.885 126.634 59.751 126.933 59.5885 127.101C59.4314 127.263 59.2344 127.317 59.0109 127.302C58.7817 127.285 58.5298 127.195 58.2858 127.071C58.0447 126.948 57.8207 126.798 57.6476 126.669C57.6358 126.659 57.6271 126.646 57.6224 126.631C57.6172 126.616 57.6166 126.6 57.6208 126.585C57.6248 126.57 57.6334 126.555 57.6453 126.544C57.6573 126.533 57.6723 126.525 57.6889 126.522L57.6902 126.521C58.3504 126.365 59.3463 126.146 59.845 126.036Z" fill="#E56441" stroke="#E56441"/>
<path d="M52.9114 121.866L52.9739 121.948C53.054 122.075 53.1846 122.167 53.3371 122.204C53.4895 122.242 53.6518 122.221 53.7881 122.147L56.0958 120.819C56.2103 120.759 56.2964 120.661 56.3374 120.544C56.3781 120.428 56.3708 120.301 56.3164 120.19C56.2865 120.12 56.2413 120.057 56.1832 120.004C56.1255 119.952 56.0564 119.912 55.9805 119.886C55.9049 119.861 55.8242 119.851 55.7439 119.856C55.6635 119.862 55.5855 119.884 55.5149 119.92L53.1446 121.166C53.0792 121.197 53.0212 121.24 52.9737 121.292C52.9264 121.344 52.8907 121.405 52.8691 121.47C52.8473 121.535 52.8397 121.604 52.8471 121.672C52.8544 121.74 52.8762 121.806 52.9114 121.866Z" fill="#080B09"/>
<path d="M60.8835 118.46L58.1753 118.694C58.0952 118.702 58.0177 118.726 57.9482 118.764C57.8786 118.801 57.8184 118.853 57.7717 118.914C57.7249 118.975 57.6926 119.045 57.6769 119.119C57.6611 119.192 57.6621 119.268 57.68 119.342C57.7034 119.462 57.7743 119.571 57.8788 119.645C57.9836 119.719 58.1141 119.754 58.2449 119.742L60.9516 119.608C61.1086 119.597 61.2546 119.527 61.3573 119.416C61.46 119.304 61.5112 119.159 61.4997 119.012L61.5015 118.911C61.4939 118.843 61.4716 118.777 61.4361 118.717C61.4007 118.658 61.3526 118.605 61.2951 118.563C61.2373 118.521 61.1711 118.49 61.1005 118.472C61.0298 118.454 60.956 118.45 60.8835 118.46Z" fill="#080B09"/>
<path d="M55.9243 116.953C55.9243 116.953 54.5725 119.356 52.1201 120.069C49.6677 120.782 51.0079 124.398 51.0079 124.398C51.0079 124.398 49.3263 122.835 47.3933 123.715C45.4601 124.594 46.9274 128.047 49.5981 128.091L48.8716 131.976C48.8716 131.976 47.5191 130.402 46.0967 129.56C44.6741 128.718 39.5641 125.45 41.8214 121.145C41.8214 121.145 40.0552 115.101 44.8991 111.967C49.7431 108.833 53.9356 110.016 53.9356 110.016C53.9356 110.016 55.0904 108.304 57.7671 108.654C60.4438 109.003 61.061 113.512 60.1746 115.143C59.2883 116.774 57.8438 117.467 55.9243 116.953Z" fill="#93523E"/>
<path d="M35.7435 141.046C39.15 138.143 40.1559 139.924 41.1405 140.154C41.1405 140.154 44.4223 141.244 43.7021 143.877C42.941 146.663 34.7623 164.768 34.7623 164.768L24.634 161.969L25.3794 159.961L27.3076 154.761L29.3671 149.199L29.5798 148.533L32.0811 141.186C32.0811 141.186 33.9686 142.602 35.7435 141.046Z" fill="#5661AE"/>
<path d="M42.4896 146.069C44.6355 143.727 44.3429 140.204 41.8364 138.199C39.3299 136.194 35.5583 136.468 33.4126 138.809C31.2667 141.151 31.559 144.675 34.0658 146.679C36.5723 148.684 40.3436 148.411 42.4896 146.069Z" fill="#5661AE"/>
<path d="M33.7595 160.321L52.5632 177.536C52.6727 177.644 52.7352 177.787 52.7389 177.936C52.7426 178.085 52.6871 178.23 52.5831 178.343L49.3279 181.842C49.17 182.008 48.9518 182.113 48.7154 182.137C48.4793 182.161 48.2419 182.102 48.0497 181.972L26.4692 167.332L33.7595 160.321Z" fill="#5661AE"/>
<path d="M29.6898 168.385C32.6136 168.385 34.9838 166.171 34.9838 163.439C34.9838 160.708 32.6136 158.494 29.6898 158.494C26.7662 158.494 24.396 160.708 24.396 163.439C24.396 166.171 26.7662 168.385 29.6898 168.385Z" fill="#5661AE"/>
<path d="M60.2818 157.005L50.0768 183.419H29.5582C29.5582 182.612 29.9012 181.839 30.5116 181.269C31.1222 180.698 31.95 180.378 32.8132 180.378H47.6578L56.4697 157.005H60.2818Z" fill="white"/>
<path d="M60.2818 157.005H87.8116L77.1646 183.419H50.0769L60.2818 157.005Z" fill="url(#paint3_linear_1160_1494)"/>
<path d="M98.7224 70.8655C98.7224 70.8655 103.309 69.9628 104.764 72.0469C106.219 74.131 107.674 78.0462 110.972 77.5385C114.27 77.0309 116.792 66.7911 120.09 66.8819C123.387 66.9724 121.932 73.6781 125.521 73.7686C129.11 73.8591 128.237 70.0534 131.147 70.0534C134.057 70.0534 133.087 78.2088 136.87 78.2994C140.653 78.3902 140.264 67.788 145.987 67.9691" stroke="white" stroke-width="5" stroke-miterlimit="10" stroke-linecap="round"/>
<path d="M85.3321 69.4567C87.6682 64.0958 85.419 58.1744 80.3086 56.2307C75.1981 54.2869 69.1616 57.057 66.8255 62.4178C64.4894 67.7787 66.7386 73.7001 71.849 75.6439C76.9595 77.5876 82.9963 74.8175 85.3321 69.4567Z" stroke="#FF967C" stroke-width="16.5208" stroke-miterlimit="10" stroke-linecap="round"/>
<path d="M80.8372 74.644C78.1408 76.3056 74.8367 76.7801 71.849 75.6439C66.7386 73.7001 64.4894 67.7787 66.8255 62.4178C69.1616 57.057 75.1981 54.2869 80.3086 56.2307" stroke="white" stroke-width="16.5208" stroke-miterlimit="10" stroke-linecap="round"/>
<path d="M102.17 55.6094H122.355" stroke="white" stroke-width="10" stroke-miterlimit="10" stroke-linecap="round"/>
<path opacity="0.6" d="M101.214 60.811H109.426" stroke="white" stroke-width="10" stroke-miterlimit="10" stroke-linecap="round"/>
<path d="M254.984 184.894C254.926 184.9 254.9 184.931 254.932 184.955C254.905 184.985 254.905 184.985 254.913 185.039C254.79 185.413 254.703 185.797 254.653 186.185L259.633 189.924L260.184 189.345C260.184 189.345 258.346 187.221 257.658 186.603C257.361 186.331 257.096 186.083 256.831 185.835C256.599 185.611 256.392 185.356 256.192 185.157C255.914 184.8 255.108 184.937 255.1 184.882C255.068 184.858 254.984 184.894 254.984 184.894Z" fill="#233B62"/>
<path d="M217.331 152.406L222.14 156.76L249.025 181.016L249.516 181.434L249.729 181.742L249.761 181.766L253.569 187.157L253.994 187.774L254.136 187.979L256.712 191.652L254.59 192.638L253.976 192.921L253.109 193.311L251.741 193.973L251.717 194.003L250.265 194.701L250.194 194.598L246.885 188.689C246.244 187.548 245.343 186.55 244.248 185.766L215.012 164.858L209.456 160.883L217.331 152.406Z" fill="#FFCCB3"/>
<path d="M253.201 181.967C251.912 181.408 250.464 180.908 249.052 180.986C249.902 181.683 250.291 182.924 250.856 183.829C252.014 185.691 254.984 189.151 253.466 192.092C252.613 193.744 250.228 194.622 250.194 194.598C249.795 196.295 247.817 203.203 251.762 199.199C253.965 196.962 256.15 194.574 257.248 192.202C257.7 191.23 256.747 190.261 256.279 189.44C255.68 188.198 254.787 186.553 254.9 185.178L254.924 185.148C254.99 185.053 260.098 189.325 260.184 189.345C260.36 189.08 260.77 188.543 260.77 188.543C260.77 188.543 253.445 182.052 253.201 181.967Z" fill="#1C85E8"/>
<path d="M198.188 204.563C198.142 204.529 198.101 204.534 198.106 204.572C198.065 204.577 198.065 204.577 198.029 204.62C197.662 204.807 197.313 205.025 196.986 205.27L197.747 211.197L198.574 211.143C198.574 211.143 198.851 208.424 198.82 207.531C198.812 207.143 198.808 206.792 198.805 206.442C198.807 206.13 198.849 205.814 198.856 205.54C198.925 205.104 198.244 204.674 198.281 204.631C198.276 204.593 198.188 204.563 198.188 204.563Z" fill="#233B62"/>
<path d="M195.592 156.742L195.77 162.994L196.832 197.898L196.87 198.517L196.791 198.876L196.796 198.915L195.483 205.256L195.326 205.975L195.273 206.215L194.367 210.524L192.111 209.841L191.46 209.642L190.547 209.354L189.075 208.935L189.034 208.94L187.476 208.491L187.502 208.371L189.559 201.985C189.954 200.75 190.058 199.449 189.862 198.172L184.614 164.127L183.616 157.655L195.592 156.742Z" fill="#FFCCB3"/>
<path d="M199.104 201.305C198.602 200.063 197.942 198.761 196.873 197.893C196.96 198.949 196.309 200.089 196.034 201.104C195.469 203.192 195.002 207.606 191.716 208.717C189.87 209.341 187.507 208.41 187.502 208.371C185.946 209.323 179.361 212.968 185.178 212.683C188.427 212.524 191.777 212.244 194.337 211.267C195.387 210.867 195.432 209.551 195.712 208.659C196.214 207.38 196.805 205.62 197.915 204.711L197.956 204.706C198.074 204.681 198.527 211.072 198.574 211.143C198.898 211.068 199.592 210.951 199.592 210.951C199.592 210.951 199.216 201.526 199.104 201.305Z" fill="#1C85E8"/>
<path d="M188.349 109.831L178.844 147.326L178.827 149.988L186.556 194.387L198.861 193.142L195.291 150.739L205.081 128.615L203.102 110.472L188.349 109.831Z" fill="#1F2D49"/>
<path d="M187.018 156.434C191.608 156.434 195.329 152.958 195.329 148.67C195.329 144.382 191.608 140.905 187.018 140.905C182.428 140.905 178.708 144.382 178.708 148.67C178.708 152.958 182.428 156.434 187.018 156.434Z" fill="#1F2D49"/>
<path d="M198.41 143.69L196.066 125.165L195.291 150.739L198.41 143.69Z" fill="#0D1B33"/>
<path d="M214.004 109.714C214.004 109.714 218.434 116.669 218.492 122.493C218.581 131.235 215.207 146.909 215.207 146.909L244.671 174.732L237.656 184.558C237.656 184.558 212.515 165.069 201.877 155.811L199.494 151.304L196.066 125.165L201.306 109.714H214.004Z" fill="#1F2D49"/>
<path d="M188.349 109.831L214.156 110.079L216.664 114.927L187.913 111.552L188.349 109.831Z" fill="#0D1B33"/>
<path d="M207.731 158.065C212.32 158.065 216.042 154.589 216.042 150.3C216.042 146.013 212.32 142.536 207.731 142.536C203.141 142.536 199.42 146.013 199.42 150.3C199.42 154.589 203.141 158.065 207.731 158.065Z" fill="#1F2D49"/>
<path d="M185.336 58.3057C185.336 58.3057 185.682 61.9097 184.665 65.3742C183.647 68.8386 175.939 76.1748 182.774 82.1527C189.609 88.1304 197.971 72.0992 197.971 72.0992L195.353 64.6948L186.301 55.8967L185.336 58.3057Z" fill="#1F2D49"/>
<path d="M206.189 59.147C206.189 59.147 208.24 61.5814 212.914 63.5713C217.499 65.5241 222.437 68.7338 221.42 75.7305C220.401 82.7271 206.845 77.2929 202.862 73.285C198.88 69.2773 199.428 62.1217 199.428 62.1217L206.189 59.147Z" fill="#1F2D49"/>
<path d="M195.704 72.2572C195.704 72.2572 190.502 74.1803 189.708 74.7738C188.913 75.3676 188.159 80.2126 186.809 82.5129C185.459 84.8134 183.483 89.0593 186.368 92.9595C189.254 96.8595 188.947 99.9564 188.947 99.9564L188.333 109.74L213.198 110.168C213.418 110.175 213.636 110.137 213.838 110.059C214.041 109.981 214.222 109.864 214.374 109.715C214.524 109.566 214.637 109.389 214.71 109.196C214.781 109.002 214.807 108.797 214.789 108.593C214.513 105.74 213.25 101.735 213.15 97.1926C213.016 91.0371 212.917 70.4692 212.917 70.4692L202.084 70.1515C199.902 70.5031 195.704 72.2572 195.704 72.2572Z" fill="#FEBB94"/>
<path d="M208.653 78.8769C208.653 78.8769 205.029 81.9638 204.816 84.2539C204.603 86.5441 204.11 92.9296 199.452 93.5665C193.744 94.3472 192.25 95.1074 194.896 95.7048C197.542 96.3023 203.548 95.3343 203.548 97.8954C203.548 99.7181 205.881 101.082 207.054 100.086C208.226 99.0903 217.565 83.9551 208.653 78.8769Z" fill="#FF967C"/>
<path d="M164.948 81.4642L162.984 79.1149C162.573 78.5651 162.026 78.1156 161.389 77.8047C160.423 77.3525 158.941 76.509 158.426 75.6659C157.572 74.3258 154.208 70.706 157.126 67.8925C158.206 66.8541 157.936 67.0998 160.095 67.1309C162.254 67.1618 162.586 69.255 163.665 70.6251C163.665 70.6251 163.907 69.0447 165.1 68.3226C166.293 67.6005 165.501 72.0108 166.419 73.6822C167.336 75.3536 166.595 75.9854 168.768 78.9218L164.948 81.4642Z" fill="#FFCCB3"/>
<path d="M159.767 67.3721L161.521 71.091L159.767 67.3721Z" fill="#E56441"/>
<path d="M159.767 67.3721L161.521 71.091" stroke="#E56441" stroke-width="0.94666" stroke-linecap="round"/>
<path d="M157.479 68.0333L159.91 71.9934L157.479 68.0333Z" fill="#E56441"/>
<path d="M157.479 68.0333L159.91 71.9934" stroke="#E56441" stroke-width="0.94666" stroke-linecap="round"/>
<path d="M156.043 70.6371L157.959 73.0011L156.043 70.6371Z" fill="#E56441"/>
<path d="M156.043 70.6371L157.959 73.0011" stroke="#E56441" stroke-width="0.94666" stroke-linecap="round"/>
<path d="M163.213 71.4678C163.213 71.4678 162.471 73.4547 162.599 75.0204L163.213 71.4678Z" fill="#E56441"/>
<path d="M163.213 71.4678C163.213 71.4678 162.471 73.4547 162.599 75.0204" stroke="#E56441" stroke-width="0.94666" stroke-linecap="round"/>
<path d="M190.972 74.1339C188.955 74.7871 186.143 76.1117 185.382 77.5898L178.66 91.8971L167.464 76.0043L163.224 80.1761L173.68 100.379C175.59 104.822 180.444 106.491 183.959 101.703L189.576 93.4605L190.972 74.1339Z" fill="#FEBB94"/>
<path d="M188.105 86.4501C188.105 86.4501 187.499 85.4734 187.499 90.5721L183.96 101.703L189.577 93.4605C194.083 87.8006 190.523 86.2889 188.105 86.4501Z" fill="#FF967C"/>
<path d="M200.429 79.6996L181.859 86.6099C181.282 86.8245 181.001 87.4357 181.231 87.9745L190.525 109.774C190.755 110.313 191.409 110.576 191.986 110.361L210.556 103.451C211.133 103.236 211.414 102.625 211.185 102.086L201.89 80.2867C201.66 79.7477 201.006 79.4849 200.429 79.6996Z" fill="#1C85E8"/>
<path d="M184.693 88.6603L192.35 85.8107" stroke="white" stroke-width="4" stroke-miterlimit="10" stroke-linecap="round"/>
<path d="M185.849 91.2216L189.34 89.9227" stroke="white" stroke-width="4" stroke-miterlimit="10" stroke-linecap="round"/>
<path d="M195.046 67.1324L195.338 74.7799C195.338 74.7799 194.938 76.4545 196.778 76.2688C198.617 76.083 201.094 74.7296 202.486 73.2433C203.878 71.7569 203.783 71.6376 203.187 70.6621C202.59 69.6868 199.789 62.2522 199.789 62.2522L195.046 67.1324Z" fill="#FFCCB3"/>
<path d="M195.088 67.7737L198.48 65.7557C198.48 65.7557 196.977 71.9183 195.338 74.7799L195.088 67.7737Z" fill="#FCBA9F"/>
<path d="M185.942 55.6879C185.942 55.6879 185.888 63.2986 189.402 67.1289C191.695 69.6266 194.106 69.2954 198.128 65.1832C201.816 61.4128 202.333 59.4477 202.333 59.4477L199.786 51.981C199.786 51.981 186.356 48.7614 185.942 55.6879Z" fill="#FFCCB3"/>
<path d="M189.439 53.9223C189.439 53.9223 190.911 57.2623 193.646 58.1957C196.38 59.129 197.095 60.8647 197.095 60.8647C197.095 60.8647 197.62 58.009 199.768 58.1128C201.917 58.2166 201.48 61.7607 200.147 62.9375C200.147 62.9375 201.751 65.7176 203.112 67.7737L209.07 62.2493C209.07 62.2493 206 58.9337 205.325 56.266C204.65 53.5982 202.466 46.4563 194.137 46.9293C184.359 47.4846 184.921 54.9079 185.336 59.0309C185.336 59.0309 188.403 57.9324 189.439 53.9223Z" fill="#1F2D49"/>
<path d="M190.498 64.7755L192.875 63.6861C192.877 63.6986 192.879 63.7121 192.881 63.7261C192.897 63.8426 192.904 64.0029 192.87 64.1788C192.803 64.523 192.577 64.9409 191.901 65.2122C191.467 65.3435 191.098 65.2139 190.826 65.0417C190.69 64.9551 190.582 64.8594 190.508 64.7851C190.504 64.7819 190.501 64.7787 190.498 64.7755Z" fill="#E56441" stroke="#E56441"/>
<path d="M187.908 61.6846C188.209 61.6152 188.364 61.2239 188.254 60.8102C188.145 60.3965 187.813 60.1173 187.513 60.1867C187.212 60.2559 187.057 60.6475 187.166 61.0612C187.276 61.4746 187.608 61.7538 187.908 61.6846Z" fill="#080B09"/>
<path d="M192.362 60.7202C192.663 60.651 192.818 60.2594 192.708 59.8457C192.599 59.4323 192.267 59.1531 191.967 59.2223C191.666 59.2917 191.511 59.683 191.62 60.0967C191.73 60.5104 192.062 60.7896 192.362 60.7202Z" fill="#080B09"/>
<path d="M186.18 59.4544L188.447 58.9683C188.485 58.957 188.517 58.9332 188.538 58.9016C188.558 58.8697 188.565 58.8321 188.559 58.7956C188.533 58.7335 188.495 58.6766 188.446 58.6285C188.396 58.5807 188.337 58.5424 188.272 58.5164C188.206 58.4904 188.135 58.4771 188.064 58.4771C187.993 58.4774 187.922 58.4911 187.857 58.5174L186.079 59.2208C185.931 59.2549 185.995 59.4971 186.18 59.4544Z" fill="#080B09"/>
<path d="M193.791 57.5587L190.839 58.4231C190.819 58.337 190.819 58.2479 190.838 58.1618C190.858 58.0757 190.896 57.9942 190.951 57.9226C191.006 57.8512 191.077 57.7913 191.158 57.7469C191.24 57.7025 191.33 57.6745 191.424 57.6647L193.782 57.3774C193.857 57.3605 193.902 57.5332 193.791 57.5587Z" fill="#080B09"/>
<path d="M189.498 60.3016L189.178 62.5346L190.022 62.9154" fill="#E56441"/>
<path d="M189.498 60.3016L189.178 62.5346L190.022 62.9154" stroke="#E56441" stroke-width="0.94666" stroke-linecap="round"/>
<path d="M191.745 99.4546L184.424 101.417L183.529 105.632L185.194 110.297C185.194 110.297 186.366 109.561 186.121 107.844C185.877 106.127 192.064 106.176 193.198 104.017" fill="#FFCCB3"/>
<path d="M208.47 76.2227C208.47 76.2227 208.422 70.4288 213.389 70.428C216.722 70.4275 218.316 71.8872 218.742 76.442C219.038 79.6265 219.254 97.0992 219.254 97.0992C219.254 97.0992 220.092 105.074 212.851 105.223L191.945 104.638L191.473 99.1806L209.697 97.4834L208.47 76.2227Z" fill="#FEBB94"/>
<path d="M193.352 75.4981C193.352 75.4981 195.237 74.9968 194.932 73.2668C194.634 71.5643 194.622 70.0862 195.22 70.2921C195.22 70.2921 195.748 71.1374 199.029 70.1979C202.288 69.2935 202.084 68.2488 202.084 68.2488C202.084 68.2488 202.545 67.867 202.89 68.8469C203.234 69.8269 204.107 72.5406 205.953 72.3453L206.452 77.4033L196.634 80.4224C196.613 80.4575 192.075 76.351 193.352 75.4981Z" fill="#FEBB94"/>
<path d="M113.275 176.434H119.452" stroke="white" stroke-width="5" stroke-miterlimit="10" stroke-linecap="round"/>
<path opacity="0.5" d="M114.532 178.939H117.621" stroke="white" stroke-width="5" stroke-miterlimit="10" stroke-linecap="round"/>
<path d="M109.16 171.434L113.9 168.346L117.239 170.423L121.682 167.417" stroke="white" stroke-width="6.50414" stroke-linecap="round" stroke-linejoin="round"/>
<path d="M118.266 166.106H122.993V170.476" stroke="white" stroke-width="6.50414" stroke-linecap="round" stroke-linejoin="round"/>
<path d="M174.235 30.4231H155.915C155.691 30.4312 155.469 30.3903 155.264 30.3034C155.06 30.2168 154.881 30.0865 154.741 29.9236C154.6 29.7604 154.502 29.569 154.455 29.3642C154.407 29.1595 154.412 28.9475 154.468 28.7446L157.284 15.2205C157.392 14.7584 157.662 14.3429 158.05 14.0392C158.438 13.7355 158.923 13.5607 159.429 13.5422H177.749C177.973 13.5341 178.196 13.5751 178.4 13.6618C178.604 13.7486 178.783 13.8787 178.924 14.0417C179.065 14.2048 179.162 14.3963 179.21 14.601C179.257 14.8057 179.252 15.0178 179.196 15.2205L176.381 28.7446C176.272 29.2069 176.003 29.6223 175.614 29.926C175.226 30.2298 174.741 30.4045 174.235 30.4231Z" fill="#1C85E8"/>
<path d="M161.669 17.1998L173.867 17.202C173.955 17.1985 174.042 17.2139 174.122 17.2471C174.202 17.2803 174.273 17.3303 174.329 17.3931C174.385 17.4562 174.424 17.5305 174.444 17.61C174.464 17.6898 174.464 17.7725 174.444 17.8522L174.277 18.7053C174.249 18.8292 174.191 18.9455 174.107 19.0449C174.023 19.1445 173.915 19.2245 173.793 19.2785L167.11 22.2834C167.006 22.3344 166.891 22.3609 166.774 22.3602C166.657 22.3597 166.542 22.332 166.439 22.2797L160.942 19.1838C160.841 19.1251 160.763 19.0388 160.717 18.9367C160.672 18.8344 160.662 18.7218 160.688 18.6138L160.838 17.8498C160.878 17.6702 160.982 17.5085 161.133 17.3907C161.284 17.2728 161.472 17.2056 161.669 17.1998Z" fill="white"/>
<path d="M161.064 20.3063L166.323 23.3885C166.394 23.426 166.475 23.4459 166.557 23.4459C166.639 23.4459 166.719 23.426 166.791 23.3885L173.257 20.3085C173.604 20.1429 173.955 20.3529 173.889 20.6878L172.928 25.5977C172.855 25.9203 172.668 26.2108 172.397 26.4225C172.126 26.6343 171.787 26.755 171.434 26.7653L160.358 26.7634C160.201 26.7697 160.044 26.742 159.9 26.6824C159.757 26.6228 159.63 26.533 159.529 26.4198C159.429 26.3065 159.358 26.1733 159.322 26.0302C159.286 25.8872 159.286 25.7382 159.322 25.5952L160.282 20.6853C160.297 20.6073 160.332 20.5335 160.382 20.4694C160.432 20.4054 160.498 20.3531 160.573 20.3166C160.649 20.28 160.732 20.2599 160.817 20.2582C160.902 20.2562 160.987 20.2726 161.064 20.3063Z" fill="white"/>
<path d="M178.382 17.0844C180.476 17.0844 182.174 15.4985 182.174 13.5422C182.174 11.5859 180.476 10 178.382 10C176.288 10 174.591 11.5859 174.591 13.5422C174.591 15.4985 176.288 17.0844 178.382 17.0844Z" fill="#FF967C"/>
<path d="M178.647 91.892L181.791 96.2556L180.115 88.8004L178.647 91.892Z" fill="#FF967C"/>
</g>
<defs>
<filter id="filter0_d_1160_1494" x="0" y="0" width="285.77" height="257" filterUnits="userSpaceOnUse" color-interpolation-filters="sRGB">
<feFlood flood-opacity="0" result="BackgroundImageFix"/>
<feColorMatrix in="SourceAlpha" type="matrix" values="0 0 0 0 0 0 0 0 0 0 0 0 0 0 0 0 0 0 127 0" result="hardAlpha"/>
<feOffset dx="5" dy="10"/>
<feGaussianBlur stdDeviation="10"/>
<feComposite in2="hardAlpha" operator="out"/>
<feColorMatrix type="matrix" values="0 0 0 0 0.921569 0 0 0 0 0.921569 0 0 0 0 0.921569 0 0 0 0.41 0"/>
<feBlend mode="normal" in2="BackgroundImageFix" result="effect1_dropShadow_1160_1494"/>
<feBlend mode="normal" in="SourceGraphic" in2="effect1_dropShadow_1160_1494" result="shape"/>
</filter>
<linearGradient id="paint0_linear_1160_1494" x1="124.625" y1="52.429" x2="128.813" y2="128.535" gradientUnits="userSpaceOnUse">
<stop stop-color="white"/>
<stop offset="1" stop-color="#94B9FF"/>
</linearGradient>
<linearGradient id="paint1_linear_1160_1494" x1="112.348" y1="74.8972" x2="129.912" y2="206.683" gradientUnits="userSpaceOnUse">
<stop stop-color="white"/>
<stop offset="1" stop-color="#94B9FF"/>
</linearGradient>
<linearGradient id="paint2_linear_1160_1494" x1="164.304" y1="74.8972" x2="181.868" y2="206.683" gradientUnits="userSpaceOnUse">
<stop stop-color="white"/>
<stop offset="1" stop-color="#94B9FF"/>
</linearGradient>
<linearGradient id="paint3_linear_1160_1494" x1="68.0049" y1="156.942" x2="72.2803" y2="213.279" gradientUnits="userSpaceOnUse">
<stop stop-color="white"/>
<stop offset="1" stop-color="#94B9FF"/>
</linearGradient>
</defs>
</svg>
