<svg width="286" height="257" viewBox="0 0 286 257" fill="none" xmlns="http://www.w3.org/2000/svg">
<g filter="url(#filter0_d_1160_1648)">
<path d="M137.885 227C205.753 227 260.77 225.443 260.77 223.522C260.77 221.602 205.753 220.045 137.885 220.045C70.0174 220.045 15 221.602 15 223.522C15 225.443 70.0174 227 137.885 227Z" fill="#F5F8FF"/>
<path d="M169.865 10H57.1287C55.4541 10 54.0964 11.504 54.0964 13.359V95.5644C54.0964 97.4197 55.4541 98.9235 57.1287 98.9235H169.865C171.54 98.9235 172.897 97.4197 172.897 95.5644V13.359C172.897 11.504 171.54 10 169.865 10Z" fill="url(#paint0_linear_1160_1648)"/>
<path d="M167.336 67.9171H146.33C145.551 67.9171 144.919 68.6167 144.919 69.4799V94.7325C144.919 95.5957 145.551 96.2954 146.33 96.2954H167.336C168.115 96.2954 168.747 95.5957 168.747 94.7325V69.4799C168.747 68.6167 168.115 67.9171 167.336 67.9171Z" fill="#FEBB94"/>
<path d="M89.3871 67.6512H59.005C58.3452 67.6512 57.8103 68.2437 57.8103 68.9746V94.9717C57.8103 95.7029 58.3452 96.2953 59.005 96.2953H89.3871C90.0469 96.2953 90.5818 95.7029 90.5818 94.9717V68.9746C90.5818 68.2437 90.0469 67.6512 89.3871 67.6512Z" fill="white"/>
<path d="M141.159 67.6512H94.4917C93.6799 67.6512 93.0217 68.3804 93.0217 69.2796V94.667C93.0217 95.5662 93.6799 96.2953 94.4917 96.2953H141.159C141.971 96.2953 142.629 95.5662 142.629 94.667V69.2796C142.629 68.3804 141.971 67.6512 141.159 67.6512Z" fill="white"/>
<path d="M166.861 21.6141H124.603C123.562 21.6141 122.718 22.5494 122.718 23.7032V63.0069C122.718 64.1604 123.562 65.0957 124.603 65.0957H166.861C167.902 65.0957 168.747 64.1604 168.747 63.0069V23.7032C168.747 22.5494 167.902 21.6141 166.861 21.6141Z" fill="#1C85E8"/>
<path d="M114.392 110.079C116.975 106.918 116.243 106.072 117.454 104.205C118.643 102.385 118.381 97.0263 119.517 98.0475C120.652 99.0685 120.658 100.987 120.658 100.987C121.905 99.5004 123.393 96.552 125.57 96.7446C127.748 96.9375 127.776 97.7185 128.733 99.1146C131.271 102.868 126.29 106.187 125.257 107.679C124.598 108.611 120.726 110.96 120.223 111.564L118.065 113.717L114.392 110.079Z" fill="#FFCCB3"/>
<path d="M122.718 101.769L126.402 97.2133" stroke="#EF6A77" stroke-width="1.07832" stroke-linecap="round"/>
<path d="M124.211 103.059L128.048 98.9235" stroke="#EF6A77" stroke-width="1.07832" stroke-linecap="round"/>
<path d="M126.001 104.522L128.23 101.992" stroke="#EF6A77" stroke-width="1.07832" stroke-linecap="round"/>
<path d="M75.7056 135.655L54.0964 221.586H58.4984L83.4754 135.655H75.7056Z" fill="#D1E8F7"/>
<path d="M75.7057 135.655L74.1194 141.964L82.3989 139.359L83.4755 135.655H75.7057Z" fill="#5CA4E6"/>
<path d="M229.253 204.076L217.547 221.315C217.272 221.722 216.861 221.99 216.409 222.061C215.954 222.132 215.492 222 215.127 221.695L214.039 220.789L227.824 200.488L228.912 201.393C229.279 201.699 229.519 202.153 229.584 202.656C229.648 203.159 229.531 203.67 229.253 204.076Z" fill="#5661AE"/>
<path d="M218.212 193.981L222.431 197.781L218.145 205.11L213.385 201.087L218.212 193.981Z" fill="#BC775C"/>
<path d="M220.085 195.833L214.829 202.185L213.549 201.067L218.473 194.366L220.085 195.833Z" fill="#93523E" stroke="#93523E"/>
<path d="M221.866 197.31C221.866 197.31 220.681 201.927 216.776 204.292L213.249 219.566C213.362 220.442 214.247 221.005 214.834 221.214C214.963 221.259 215.101 221.259 215.231 221.212C215.36 221.166 215.471 221.077 215.552 220.957L228.066 202.528C228.274 202.221 228.367 201.835 228.323 201.453C228.277 201.072 228.099 200.725 227.824 200.488C226.732 199.538 225.053 198.106 224.328 197.615C223.203 196.856 222.404 196.68 221.866 197.31Z" fill="#1C85E8"/>
<path d="M215.961 207.459L217.967 206.982C218.041 206.965 218.117 206.968 218.189 206.991C218.261 207.013 218.325 207.056 218.381 207.113C218.434 207.171 218.475 207.242 218.499 207.321C218.522 207.4 218.526 207.484 218.512 207.566C218.496 207.666 218.455 207.759 218.39 207.832C218.325 207.904 218.245 207.954 218.154 207.975L215.69 208.525L215.961 207.459Z" fill="white"/>
<path d="M215.487 209.879L217.482 209.397C217.556 209.38 217.633 209.383 217.704 209.405C217.776 209.428 217.843 209.47 217.896 209.528C217.951 209.585 217.99 209.657 218.014 209.736C218.037 209.815 218.041 209.899 218.03 209.981C218.014 210.081 217.97 210.174 217.905 210.247C217.843 210.319 217.76 210.369 217.669 210.389L215.24 210.947L215.487 209.879Z" fill="white"/>
<path d="M214.877 212.514L216.852 212.026C216.926 212.008 217.002 212.011 217.074 212.034C217.145 212.057 217.212 212.099 217.265 212.157C217.318 212.214 217.36 212.285 217.383 212.365C217.406 212.444 217.411 212.528 217.397 212.609C217.381 212.71 217.339 212.802 217.275 212.875C217.21 212.948 217.129 212.997 217.039 213.018L214.637 213.554L214.877 212.514Z" fill="white"/>
<path d="M178.094 173.891L211.503 203.709L219.124 193.869L189.913 163.51L178.094 173.891Z" fill="#1F2D49"/>
<path d="M196.014 169.85V189.884L211.503 203.709L213.727 188.26L196.014 169.85Z" fill="#0D1B33"/>
<path d="M181.058 119.072L175.567 167.584H190.921L204.259 119.315L181.058 119.072Z" fill="#1F2D49"/>
<path d="M194.242 155.566L196.821 131.5H203.162L194.242 155.566Z" fill="#0D1B33"/>
<path d="M208.025 222.418H188.552C188.093 222.418 187.653 222.216 187.329 221.857C187.004 221.497 186.822 221.01 186.822 220.502V218.996H209.755V220.502C209.755 221.01 209.573 221.497 209.249 221.857C208.924 222.216 208.485 222.418 208.025 222.418Z" fill="#5661AE"/>
<path d="M208.67 206.574L208.466 212.595L200.601 213.205L200.643 206.574H208.67Z" fill="#BC775C"/>
<path d="M208.462 209.347L200.719 208.511L200.756 206.707L208.55 207.037L208.462 209.347Z" fill="#93523E" stroke="#93523E"/>
<path d="M208.466 211.811C208.466 211.811 204.423 213.536 200.369 211.502L187.23 217.561C186.665 218.187 186.79 219.308 186.993 219.954C187.038 220.096 187.122 220.218 187.233 220.304C187.344 220.391 187.476 220.437 187.611 220.436H208.427C208.776 220.436 209.108 220.286 209.358 220.016C209.605 219.747 209.748 219.38 209.755 218.996C209.783 217.456 209.806 215.11 209.725 214.172C209.598 212.721 209.242 211.907 208.466 211.811Z" fill="#1C85E8"/>
<path d="M197.593 212.683L199.144 214.173C199.2 214.227 199.244 214.297 199.271 214.374C199.298 214.451 199.307 214.535 199.298 214.618C199.289 214.7 199.261 214.779 199.218 214.847C199.175 214.915 199.118 214.97 199.051 215.007C198.969 215.054 198.876 215.071 198.785 215.058C198.694 215.045 198.609 215.002 198.54 214.934L196.662 213.084L197.593 212.683Z" fill="white"/>
<path d="M195.562 213.718L197.111 215.196C197.167 215.251 197.211 215.319 197.238 215.397C197.265 215.474 197.274 215.558 197.265 215.64C197.256 215.723 197.228 215.802 197.185 215.87C197.142 215.938 197.085 215.993 197.018 216.03C196.936 216.077 196.843 216.094 196.752 216.081C196.661 216.068 196.576 216.025 196.507 215.957L194.644 214.142L195.562 213.718Z" fill="white"/>
<path d="M193.296 214.764L194.835 216.217C194.891 216.272 194.935 216.341 194.962 216.418C194.989 216.496 194.998 216.579 194.989 216.662C194.98 216.744 194.953 216.823 194.909 216.891C194.867 216.959 194.809 217.014 194.742 217.052C194.66 217.098 194.568 217.116 194.477 217.103C194.385 217.089 194.3 217.046 194.231 216.979L192.401 215.176L193.296 214.764Z" fill="white"/>
<path d="M213.575 119.315C213.448 121.775 213.448 124.242 213.575 126.702C214.085 134.654 212.452 157.876 212.466 160.932C212.478 163.988 210.663 207.026 210.663 207.026H199.623C199.623 207.026 196.801 170.038 196.735 165.805C196.67 161.572 196.014 119.489 196.014 119.489L213.575 119.315Z" fill="#1F2D49"/>
<path d="M180.726 122.009L213.575 126.702V119.315L180.896 120.506L180.726 122.009Z" fill="#0D1B33"/>
<path d="M183.244 176.089C187.484 176.089 190.921 172.281 190.921 167.584C190.921 162.887 187.484 159.08 183.244 159.08C179.004 159.08 175.567 162.887 175.567 167.584C175.567 172.281 179.004 176.089 183.244 176.089Z" fill="#1F2D49"/>
<path d="M240.456 131.5H38.9001V135.655H240.456V131.5Z" fill="url(#paint1_linear_1160_1648)"/>
<path fill-rule="evenodd" clip-rule="evenodd" d="M135.619 217.213C132.64 216.047 129.571 214.845 126.741 215.068C126.677 215.073 126.615 215.093 126.559 215.127C126.503 215.161 126.454 215.208 126.416 215.265C126.378 215.321 126.351 215.387 126.338 215.456C126.325 215.526 126.326 215.597 126.341 215.666L127.526 221.212C127.55 221.326 127.611 221.427 127.697 221.495C127.783 221.564 127.889 221.595 127.994 221.584L147.234 219.526C148.653 219.374 149.338 218.443 149.439 217.161C149.442 217.117 149.433 217.073 149.414 217.034C149.395 216.995 149.366 216.964 149.331 216.943C149.296 216.922 149.256 216.912 149.216 216.916C149.177 216.919 149.139 216.935 149.107 216.962C146.984 218.726 144.322 219.499 141.691 219.117C139.791 218.846 137.728 218.038 135.619 217.213Z" fill="#5661AE"/>
<path fill-rule="evenodd" clip-rule="evenodd" d="M125.21 201.211C125.21 201.211 127.195 209.926 127.251 210.861C127.256 211.381 127.226 211.9 127.162 212.415C127.073 213.341 126.975 214.372 127.123 215.048C129.846 214.955 132.774 216.1 135.619 217.214C137.728 218.039 139.791 218.846 141.691 219.117C144.195 219.481 146.732 218.799 148.807 217.204C148.72 215.612 147.357 214.271 144.844 214.298C140.339 214.346 137.846 214.257 135.361 210.896C133.595 208.508 132.742 198.435 132.742 198.435L125.21 201.211Z" fill="#FFCCB3"/>
<path fill-rule="evenodd" clip-rule="evenodd" d="M134.786 209.505C133.956 209.72 130.654 210.56 127.431 211.141C126.805 211.254 126.607 212.686 127.08 213.398C127.406 213.924 127.694 214.479 127.939 215.056C129.062 215.13 130.174 215.332 131.259 215.659C130.687 214.3 131.299 213.411 132.479 213.09C133.411 212.836 135.66 212.793 136.824 212.788C136.888 212.788 136.951 212.768 137.004 212.729C137.058 212.69 137.101 212.636 137.127 212.572C137.154 212.507 137.163 212.435 137.154 212.365C137.146 212.295 137.119 212.229 137.077 212.176L135.117 209.626C135.078 209.574 135.026 209.535 134.967 209.513C134.909 209.492 134.846 209.489 134.786 209.505Z" fill="white"/>
<path fill-rule="evenodd" clip-rule="evenodd" d="M146.57 218.5C144.509 219.384 143.068 219.2 143.068 219.2L142.629 214.159L146.174 213.962L146.57 218.5Z" fill="white"/>
<path d="M123.336 166.049C126.754 164.913 128.693 160.924 127.668 157.138C126.643 153.353 123.042 151.204 119.624 152.339C116.207 153.475 114.267 157.464 115.292 161.25C116.317 165.036 119.919 167.184 123.336 166.049Z" fill="#FFCCB3"/>
<path d="M123.392 152.358L112.682 148.297L107.698 163.173L121.552 165.844L123.392 152.358Z" fill="#FFCCB3"/>
<path d="M127.884 158.244L133.32 203.249L126.268 205.952L115.607 163.221L127.884 158.244Z" fill="#FFCCB3"/>
<path fill-rule="evenodd" clip-rule="evenodd" d="M105.553 220.333C102.739 218.742 99.8395 217.102 97.0079 216.91C96.944 216.905 96.88 216.916 96.8204 216.942C96.7608 216.967 96.7068 217.007 96.6622 217.057C96.6179 217.108 96.5837 217.169 96.5627 217.236C96.5417 217.303 96.5338 217.374 96.54 217.445L97.0543 223.115C97.065 223.232 97.1132 223.341 97.1906 223.421C97.2677 223.501 97.3687 223.548 97.4747 223.552L116.792 224.323C118.216 224.38 119.005 223.557 119.259 222.301C119.267 222.257 119.263 222.213 119.249 222.171C119.234 222.13 119.209 222.095 119.177 222.069C119.145 222.043 119.107 222.028 119.067 222.025C119.027 222.023 118.988 222.034 118.953 222.055C116.638 223.494 113.908 223.871 111.345 223.108C109.494 222.562 107.545 221.46 105.553 220.333Z" fill="#5661AE"/>
<path fill-rule="evenodd" clip-rule="evenodd" d="M97.1405 202.95C97.1405 202.95 98.0705 211.879 98.0144 212.815C97.9571 213.33 97.8659 213.841 97.7412 214.342C97.543 215.246 97.3225 216.254 97.389 216.946C100.099 217.251 102.865 218.815 105.553 220.334C107.545 221.46 109.494 222.562 111.345 223.108C113.784 223.834 116.38 223.529 118.627 222.251C118.73 220.661 117.54 219.132 115.045 218.791C110.573 218.181 108.113 217.728 106.049 214.034C104.583 211.409 104.937 201.299 104.937 201.299L97.1405 202.95Z" fill="#FCBA9F"/>
<path fill-rule="evenodd" clip-rule="evenodd" d="M105.645 212.57C104.797 212.663 101.423 213.013 98.1599 213.118C97.5257 213.138 97.1585 214.529 97.5431 215.304C97.8036 215.873 98.0225 216.465 98.1971 217.074C99.301 217.31 100.38 217.673 101.416 218.156C101.011 216.726 101.724 215.934 102.931 215.788C103.885 215.672 106.12 215.958 107.274 216.123C107.338 216.132 107.402 216.121 107.46 216.091C107.518 216.061 107.567 216.013 107.601 215.953C107.635 215.893 107.653 215.823 107.652 215.752C107.652 215.682 107.633 215.612 107.598 215.553L105.959 212.739C105.926 212.682 105.879 212.635 105.824 212.606C105.768 212.576 105.706 212.564 105.645 212.57Z" fill="white"/>
<path fill-rule="evenodd" clip-rule="evenodd" d="M116.255 223.209C114.107 223.784 112.701 223.392 112.701 223.392L112.865 218.331L116.403 218.653L116.255 223.209Z" fill="white"/>
<path d="M99.4691 167.822C102.992 167.195 105.389 163.524 104.824 159.622C104.259 155.719 100.945 153.063 97.4218 153.69C93.899 154.316 91.5016 157.987 92.067 161.89C92.6323 165.792 95.9463 168.448 99.4691 167.822Z" stroke="#5CA4E6" stroke-width="1.0969" stroke-miterlimit="10"/>
<path d="M104.906 160.749L104.937 206.156L97.6247 207.805L92.1443 163.889L104.906 160.749Z" fill="#FCBA9F"/>
<path d="M85.7638 144.171C85.7638 144.171 83.7978 154.829 86.3742 159.283C89.6356 164.92 93.6244 165.784 96.5721 165.844L112.498 164.323C112.498 164.323 112.393 154.179 118.291 150.389C118.291 150.389 94.1168 140.506 85.7638 144.171Z" fill="#5661AE"/>
<path d="M79.6331 89.7955L78.368 96.9528L71.0463 96.4023L72.449 88.7944L79.6331 89.7955Z" fill="#FFCCB3"/>
<path d="M79.5594 90.2118L78.9448 93.6887C78.9448 93.6887 77.2622 92.1 76.9373 89.6205L79.5594 90.2118Z" fill="#FCBA9F"/>
<path d="M68.7891 98.4374C68.7891 98.4374 70.4567 93.6173 71.4518 94.2027C73.8171 95.5936 77.272 95.3357 78.8015 94.4997C79.7181 93.9988 79.753 98.4374 79.753 98.4374H68.7891Z" fill="#FEBB94"/>
<path d="M68.789 98.4374L61.7628 99.4799C61.57 99.5085 61.3949 99.6193 61.2746 99.7889C61.1543 99.9583 61.0984 100.173 61.1187 100.387L66.0244 151.941L91.197 149.204L88.0816 100.146L79.7529 98.4374H68.789Z" fill="#FEBB94"/>
<path d="M86.7022 113.127L84.7388 109.171L85.2219 113.127H86.7022Z" fill="#FF967C"/>
<path d="M87.6449 100.057C90.2993 100.508 92.5245 102.467 93.2679 104.179L99.8344 120.75L115.959 106.465L120.543 111.813L106.049 131.651C103.134 135.903 98.0915 137.653 94.6574 132.108L89.1707 122.561L87.6449 100.057Z" fill="#FEBB94"/>
<path d="M99.8345 120.75L101.669 124.745L103.065 117.888L99.8345 120.75Z" fill="#FF967C"/>
<path d="M61.8167 99.4719C61.8167 99.4719 59.9207 99.4348 58.3267 102.525C56.7325 105.615 50.2768 124.332 50.2768 124.332C50.2768 124.332 47.3279 131.396 53.3056 131.66H65.8184L61.8167 99.4719Z" fill="#FEBB94"/>
<path d="M63.2285 113.127L62.7047 110.535L61.3865 113.127H63.2285Z" fill="#FF967C"/>
<path d="M96.3308 165.827H69.0036C68.1428 165.827 67.311 165.482 66.6609 164.858C66.0106 164.233 65.5856 163.37 65.4639 162.426L59.6888 117.648C59.6165 117.086 59.6539 116.514 59.7985 115.969C59.943 115.425 60.1918 114.921 60.5273 114.493C60.8629 114.064 61.2779 113.72 61.7439 113.485C62.21 113.249 62.7162 113.127 63.2284 113.127H90.5559C91.4164 113.127 92.2483 113.471 92.8986 114.096C93.5487 114.72 93.9736 115.584 94.0953 116.528L99.8705 161.306C99.943 161.867 99.9056 162.44 99.7608 162.984C99.6162 163.528 99.3677 164.032 99.0319 164.461C98.6964 164.889 98.2816 165.233 97.8156 165.469C97.3495 165.704 96.8431 165.827 96.3308 165.827Z" fill="#5CA4E6"/>
<path d="M94.4889 165.827H115.417C115.597 165.827 115.773 165.774 115.929 165.674C116.084 165.574 116.213 165.43 116.302 165.257C116.391 165.084 116.437 164.889 116.436 164.69C116.435 164.49 116.386 164.295 116.295 164.124C116.223 163.99 116.128 163.874 116.014 163.783C115.9 163.692 115.771 163.628 115.633 163.595L98.6918 159.515L94.4889 165.827Z" fill="#5CA4E6"/>
<path d="M94.4888 165.827H67.1616C66.3008 165.827 65.469 165.482 64.8189 164.858C64.1686 164.233 63.7436 163.37 63.6219 162.426L57.847 117.648C57.7745 117.086 57.8119 116.514 57.9565 115.969C58.101 115.425 58.3498 114.921 58.6853 114.493C59.0209 114.064 59.4359 113.72 59.9019 113.485C60.368 113.249 60.8742 113.127 61.3864 113.127H88.7139C89.5744 113.127 90.4063 113.471 91.0566 114.096C91.7067 114.72 92.1316 115.584 92.2533 116.528L98.0285 161.306C98.101 161.867 98.0636 162.44 97.919 162.984C97.7742 163.528 97.5257 164.032 97.1902 164.461C96.8544 164.889 96.4396 165.233 95.9736 165.469C95.5075 165.704 95.0011 165.827 94.4888 165.827Z" fill="url(#paint2_linear_1160_1648)"/>
<path d="M206.095 124.674C206.095 124.674 204.619 127.763 204.259 128.117C203.901 128.472 197.97 129.282 196.821 129.738C195.673 130.193 195.124 130.882 195.124 131.5H209.065C209.065 131.5 209.425 131.127 209.686 129.94C209.944 128.753 210.399 128.249 210.399 128.249L206.095 124.674Z" fill="#BC775C"/>
<path d="M186.057 76.0163C186.974 71.0026 184.818 71.1318 184.1 70.3346C184.1 70.3346 181.408 67.8756 179.357 70.1678C177.186 72.5923 164.741 91.4264 164.741 91.4264L172.528 99.3599L173.992 97.4251L177.783 92.4159L181.838 87.062L182.342 86.4526L187.813 79.5884C187.813 79.5884 185.538 78.6559 186.057 76.0163Z" fill="#5661AE"/>
<path d="M189.314 76.8708C190.363 73.3992 188.674 69.6421 185.54 68.4793C182.406 67.3166 179.014 69.1882 177.964 72.6598C176.915 76.1317 178.605 79.8885 181.738 81.0513C184.872 82.2143 188.264 80.3424 189.314 76.8708Z" fill="#5661AE"/>
<path d="M182.271 86.426C182.427 85.3779 182.742 83.2821 183.079 81.3721L184.876 72.127C184.876 72.127 180.051 80.0269 177.828 85.5298C176.182 89.6535 174.272 93.8563 173.956 97.4118L177.747 92.4024L181.802 87.0487L182.271 86.426Z" fill="#465393"/>
<path d="M156.963 70.2223C155.113 66.4836 156.002 65.8492 155.215 63.7219C154.439 61.6464 155.816 56.5009 154.498 57.2024C153.18 57.9041 152.772 59.7686 152.772 59.7686C151.871 58.0019 151.04 54.7516 148.882 54.3796C146.724 54.0076 146.533 54.76 145.31 55.8718C142.055 58.8714 146.205 63.3791 146.898 65.0957C147.344 66.1718 150.618 69.4523 150.981 70.1691L152.629 72.8174L156.963 70.2223Z" fill="#BC775C"/>
<path d="M150.605 60.0004L147.975 54.6216" stroke="#93523E" stroke-width="1.07832" stroke-linecap="round"/>
<path d="M148.882 60.8713L146.016 55.8622" stroke="#93523E" stroke-width="1.07832" stroke-linecap="round"/>
<path d="M146.835 61.8342L145.197 58.8006" stroke="#93523E" stroke-width="1.07832" stroke-linecap="round"/>
<path d="M151.255 64.7353C151.269 62.8729 152.278 60.6193 152.278 60.6193" stroke="#93523E" stroke-width="1.07832" stroke-linecap="round"/>
<path d="M172.594 91.2765L156.76 67.917C156.659 67.7799 156.516 67.6888 156.358 67.6617C156.2 67.6344 156.038 67.673 155.904 67.7697L151.758 70.8074C151.561 70.9553 151.421 71.1789 151.364 71.4349C151.308 71.691 151.339 71.9614 151.453 72.1932L164.186 98.2072L172.594 91.2765Z" fill="#5661AE"/>
<path d="M168.747 101.143C171.675 101.143 174.049 98.5129 174.049 95.2687C174.049 92.0245 171.675 89.3946 168.747 89.3946C165.818 89.3946 163.444 92.0245 163.444 95.2687C163.444 98.5129 165.818 101.143 168.747 101.143Z" fill="#5661AE"/>
<path d="M190.902 65.0543C190.902 65.0543 183.171 67.7786 181.646 68.4852C180.12 69.1921 180.019 72.0195 179.917 74.0221C179.846 75.4254 181.276 98.4668 181.37 111.811C181.39 114.662 180.91 116.471 180.602 118.056C180.293 119.64 180.602 120.503 180.602 120.503L213.727 120.831C213.727 120.831 212.734 74.4652 212.531 72.8162C212.328 71.1668 213.926 69.7465 212.194 68.9163L199.544 65.0543H190.902Z" fill="white"/>
<path d="M186.745 66.5414C186.745 66.5414 188.007 72.9372 188.834 78.0558C189.661 83.1744 189.913 125.549 189.913 125.549C189.913 125.549 180.233 123.464 178.922 121.001C177.611 118.537 180.136 107.469 180.333 97.4118C180.53 87.3549 178.619 71.7478 180.625 69.0401C180.625 69.0404 181.14 68.4753 186.745 66.5414Z" fill="#5661AE"/>
<path d="M203.014 66.1303C203.014 66.1303 198.421 76.7308 198.702 79.9617C198.983 83.1925 198.999 110.746 198.702 116.498C198.518 119.998 198.036 123.47 197.265 126.87C197.265 126.87 209.794 127.853 214.635 126.174C214.635 126.174 216.935 110.145 215.425 104.418C213.917 98.6922 212.764 68.9316 212.764 68.9316L203.014 66.1303Z" fill="#5661AE"/>
<path d="M206.404 80.3756C206.404 80.3756 206.873 99.5871 206.776 105.991C206.716 109.981 202.596 111.671 202.584 113.982C202.577 115.348 205.836 113.748 206.716 115.161C207.593 116.574 206.092 121.001 206.092 121.001L213.727 120.831L216.787 104.389L210.342 79.3868L206.404 80.3756Z" fill="#465393"/>
<path d="M191.061 60.7723L190.344 69.7255C190.344 69.7255 190.153 71.1162 192.333 71.5562C194.064 71.9054 197.662 69.6518 198.474 68.9094C200.28 67.2593 200.446 66.2608 200.256 65.4961C199.982 64.4004 199.089 56.6795 199.089 56.6795L191.061 60.7723Z" fill="#BC775C"/>
<path d="M190.59 68.0994L191.032 62.581L194.88 60.4752L190.59 68.0994Z" fill="#93523E" stroke="#93523E"/>
<path d="M186.783 43.8267C186.783 43.8267 185.309 51.1416 185.113 56.1233C184.915 61.1496 186.536 62.1067 188.546 62.482C190.132 62.7779 192.598 62.7994 194.149 61.9416C196.976 60.3773 201.619 56.5805 202.227 55.844C203.169 54.7035 203.104 49.6168 199.51 48.3589C196.896 47.4438 190.233 39.6756 186.783 43.8267Z" fill="#BC775C"/>
<path d="M186.798 44.6067C188.941 45.5377 192.976 44.926 195.193 45.7229C197.406 46.5219 195.392 47.3653 195.489 49.7341C195.551 51.2683 195.656 54.2001 196.506 54.1612C197.356 54.1225 197.856 50.7929 199.649 50.9198C201.441 51.0493 202.286 51.8971 202.246 53.1668C202.208 54.4341 200.92 55.5385 199.904 56.1249C198.632 56.8545 198.107 56.5486 198.107 56.5486C198.107 56.5486 199.539 62.3866 199.755 62.1553C199.755 62.1553 201.299 61.1901 201.577 59.5003C201.577 59.5003 203.626 59.0086 203.173 56.7386C203.173 56.7386 204.448 56.2851 203.843 54.9709C203.843 54.9709 207.141 52.5144 205.423 49.5084C205.423 49.5084 206.986 47.78 205.118 47.0491C205.118 47.0491 207.593 43.0423 204.072 42.1881C204.072 42.1881 204.307 40.3022 202.695 40.3741C202.695 40.3741 201.991 37.1301 198.474 38.4095C198.457 37.76 198.264 37.1312 197.919 36.6057C197.574 36.0802 197.093 35.6824 196.54 35.4647C194.548 34.576 193.252 35.7991 193.252 35.7991C193.252 35.7991 191.161 33.91 190.06 36.6796C190.06 36.6796 188.479 35.7842 187.293 36.7357C186.106 37.684 186.683 39.6721 186.683 39.6721C186.683 39.6721 185.327 39.3198 184.831 40.5646C184.132 42.3163 185.114 42.9546 185.114 42.9546C185.114 42.9546 182.905 45.8475 186.012 48.5877L186.798 44.6067Z" fill="#493212"/>
<path d="M192.193 51.8282C192.31 51.2365 192.12 50.6883 191.771 50.6036C191.421 50.5189 191.043 50.93 190.926 51.5215C190.809 52.113 190.998 52.6612 191.348 52.7459C191.698 52.8306 192.076 52.4197 192.193 51.8282Z" fill="#080B09"/>
<path d="M187.379 50.6271C187.495 50.0356 187.306 49.4874 186.957 49.4027C186.607 49.318 186.228 49.7289 186.112 50.3206C185.995 50.9121 186.184 51.4604 186.534 51.545C186.884 51.6297 187.262 51.2189 187.379 50.6271Z" fill="#080B09"/>
<path d="M188.33 52.1979C188.33 52.1979 188.928 53.4735 188.064 53.4929C187.239 53.4801 186.758 54.0166 187.591 54.7941" stroke="#93523E" stroke-width="1.07832" stroke-linecap="round"/>
<path d="M187.718 55.9734L187.722 55.974L187.726 55.9742C188.238 56.0149 189.26 56.0965 189.94 56.1633H189.941C189.961 56.1651 189.98 56.1727 189.996 56.1855C190.012 56.1986 190.025 56.216 190.033 56.2364C190.041 56.2566 190.043 56.2789 190.04 56.3006C190.038 56.3216 190.03 56.3416 190.018 56.3582C189.869 56.5406 189.672 56.7576 189.453 56.9446C189.232 57.1336 188.996 57.2856 188.769 57.346C188.547 57.4053 188.338 57.3764 188.15 57.2099C187.957 57.0379 187.772 56.7072 187.634 56.1251L187.632 56.1152L187.628 56.1057C187.622 56.0904 187.62 56.0732 187.622 56.0566C187.623 56.0397 187.629 56.0238 187.638 56.0103C187.648 55.9967 187.66 55.9862 187.674 55.9798C187.688 55.9732 187.703 55.9711 187.718 55.9734Z" fill="#93523E" stroke="#93523E"/>
<path d="M193.871 49.8788L193.822 49.986C193.765 50.149 193.652 50.2799 193.507 50.3508C193.363 50.4214 193.199 50.426 193.052 50.3633L190.543 49.2131C190.42 49.163 190.317 49.0632 190.257 48.9338C190.197 48.8043 190.183 48.6544 190.217 48.514C190.235 48.4267 190.269 48.3446 190.317 48.2732C190.366 48.2016 190.427 48.1425 190.498 48.0993C190.568 48.056 190.646 48.0297 190.727 48.0225C190.807 48.0151 190.888 48.0266 190.964 48.0565L193.52 49.0998C193.59 49.1241 193.655 49.164 193.711 49.2167C193.767 49.2697 193.812 49.3344 193.845 49.4071C193.877 49.4797 193.897 49.559 193.901 49.6401C193.905 49.7212 193.895 49.8023 193.871 49.8788Z" fill="#080B09"/>
<path d="M185.406 47.2917L188.124 47.0888C188.205 47.0837 188.285 47.0977 188.36 47.13C188.436 47.1622 188.504 47.2116 188.561 47.275C188.617 47.3385 188.661 47.4147 188.69 47.4984C188.718 47.582 188.73 47.6713 188.724 47.7606C188.722 47.9062 188.67 48.0456 188.579 48.151C188.488 48.2564 188.365 48.3201 188.234 48.3298L185.534 48.6504C185.377 48.6644 185.221 48.6092 185.101 48.4961C184.98 48.3833 184.904 48.2221 184.891 48.0479L184.872 47.9302C184.868 47.8491 184.879 47.7678 184.903 47.6915C184.928 47.615 184.967 47.5449 185.017 47.4853C185.066 47.4257 185.127 47.3779 185.194 47.3446C185.26 47.3114 185.333 47.2935 185.406 47.2917Z" fill="#080B09"/>
<path d="M213.014 73.5386C209.6 70.0913 208.593 72.2068 207.607 72.4792C207.607 72.4792 204.321 73.774 205.041 76.901C205.804 80.2099 213.995 101.714 213.995 101.714L224.332 99.0033L223.394 96.0045L221.464 89.8275L219.401 83.2228L219.187 82.4307L216.681 73.7049C216.681 73.7049 214.792 75.3875 213.014 73.5386Z" fill="#5661AE"/>
<path d="M214.695 80.2296C217.205 77.8486 217.498 73.6637 215.348 70.8826C213.198 68.1012 209.42 67.7769 206.91 70.1579C204.399 72.5389 204.106 76.7237 206.256 79.5048C208.406 82.2862 212.182 82.6106 214.695 80.2296Z" fill="#5661AE"/>
<path d="M213.917 98.6922L204.774 126.092C204.725 126.261 204.734 126.443 204.799 126.605C204.864 126.767 204.979 126.896 205.127 126.968L209.677 129.183C209.896 129.286 210.143 129.295 210.367 129.209C210.591 129.123 210.78 128.947 210.894 128.716L223.732 102.764L213.917 98.6922Z" fill="#5661AE"/>
<path d="M219.03 105.985C221.958 105.985 224.332 103.355 224.332 100.111C224.332 96.8666 221.958 94.2367 219.03 94.2367C216.101 94.2367 213.727 96.8666 213.727 100.111C213.727 103.355 216.101 105.985 219.03 105.985Z" fill="#5661AE"/>
<path d="M75.8535 165.827H95.7757C95.7757 168.261 94.9027 170.596 93.3485 172.318C91.7942 174.039 89.6864 175.007 87.4886 175.007H84.1408C81.943 175.007 79.8349 174.039 78.2809 172.318C76.7267 170.596 75.8535 168.261 75.8535 165.827Z" fill="#E7EFFF"/>
<path d="M86.2569 175.007H85.3724V219.135H86.2569V175.007Z" fill="#5CA4E6"/>
<path d="M85.3725 219.135L73.2291 223.494H98.2119L86.257 219.135H85.3725Z" fill="#5CA4E6"/>
<path d="M45.9245 135.655L24.3153 221.586H28.7173L53.694 135.655H45.9245Z" fill="#E7EFFF"/>
<path d="M45.9245 135.655L44.3379 141.964L52.6174 139.359L53.694 135.655H45.9245Z" fill="#96BAFD"/>
<path d="M230.138 135.655L251.747 221.586H247.345L222.367 135.655H230.138Z" fill="#D1E8F7"/>
<path d="M230.138 135.655L231.35 140.478L223.487 139.505L222.367 135.655H230.138Z" fill="#5CA4E6"/>
<path d="M79.9655 74.6226C79.9655 74.6226 82.8712 80.4307 83.879 82.8278C84.8868 85.2247 85.2314 87.8106 83.5529 89.0007C81.2694 90.6203 78.7424 90.2604 76.0191 89.9235C73.6617 89.6316 70.7077 82.2834 71.0696 80.4793C71.4315 78.6752 75.5312 71.4386 79.9655 74.6226Z" fill="#FFCCB3"/>
<path d="M82.1318 81.2797C82.3436 81.0902 82.3108 80.6565 82.0586 80.3112C81.8064 79.9658 81.4307 79.8392 81.2189 80.0287C81.0074 80.2183 81.0402 80.6519 81.2924 80.9973C81.5443 81.3429 81.9203 81.4693 82.1318 81.2797Z" fill="#080B09"/>
<path d="M79.0019 80.3966L81.219 78.65C81.1649 78.5804 81.0982 78.5242 81.0231 78.4848C80.9483 78.4456 80.8668 78.4241 80.7839 78.4218C80.701 78.4195 80.6188 78.4367 80.5421 78.4717C80.4654 78.507 80.3964 78.5595 80.3393 78.626L78.8705 80.2756C78.8183 80.3224 78.9236 80.4667 79.0019 80.3966Z" fill="#080B09"/>
<path d="M83.4595 84.8846C83.1618 85.0898 82.8184 85.1983 82.4678 85.1983C82.1173 85.1983 81.7736 85.0898 81.476 84.8846" stroke="#EF6A77" stroke-miterlimit="10" stroke-linecap="round"/>
<path d="M77.8814 78.1062L82.6288 75.4464C82.6288 75.4464 80.9072 69.243 74.6004 68.595C69.9735 68.1194 65.6729 70.9453 64.0064 75.3599C62.3397 79.7747 63.7649 87.0482 67.9915 88.7945C71.5667 90.2714 71.4517 94.2027 71.4517 94.2027L76.6867 86.5977C76.6867 86.5977 73.0649 84.6457 73.9334 82.2632C75.1108 79.0331 78.0696 82.7671 78.0696 82.7671L76.0676 76.3123L77.8814 78.1062Z" fill="#1F2D49"/>
<path d="M82.8985 80.6542C82.8985 80.6542 83.6904 81.797 84.1696 82.0175C84.6486 82.2381 84.2198 83.0498 83.9006 83.1626C83.5814 83.2755 82.7166 81.1938 82.8985 80.6542Z" fill="#FFCCB3"/>
<path d="M63.3268 86.8857C66.4337 86.8857 68.9521 84.0959 68.9521 80.6543C68.9521 77.2129 66.4337 74.4228 63.3268 74.4228C60.2202 74.4228 57.7015 77.2129 57.7015 80.6543C57.7015 84.0959 60.2202 86.8857 63.3268 86.8857Z" fill="#0D1B33"/>
<path d="M62.7046 87.1595C65.8115 87.1595 68.3299 84.3697 68.3299 80.928C68.3299 77.4866 65.8115 74.6965 62.7046 74.6965C59.598 74.6965 57.0793 77.4866 57.0793 80.928C57.0793 84.3697 59.598 87.1595 62.7046 87.1595Z" fill="#1F2D49"/>
<path d="M117.879 21.6141H59.6842C58.6493 21.6141 57.8103 22.5435 57.8103 23.6899V62.9785C57.8103 64.1249 58.6493 65.0543 59.6842 65.0543H117.879C118.914 65.0543 119.753 64.1249 119.753 62.9785V23.6899C119.753 22.5435 118.914 21.6141 117.879 21.6141Z" fill="#FEBB94"/>
<path d="M98.0649 73.8234H101.176" stroke="#D4DCF4" stroke-width="12" stroke-miterlimit="10" stroke-linecap="round"/>
<path d="M108.025 73.8234H136.998" stroke="#5661AE" stroke-width="12" stroke-miterlimit="10" stroke-linecap="round"/>
<path d="M98.0649 81.3726H101.176" stroke="#D4DCF4" stroke-width="12" stroke-miterlimit="10" stroke-linecap="round"/>
<path d="M108.025 81.3726H121.515" stroke="#5661AE" stroke-width="12" stroke-miterlimit="10" stroke-linecap="round"/>
<path d="M98.0649 89.0541H101.176" stroke="#D4DCF4" stroke-width="12" stroke-miterlimit="10" stroke-linecap="round"/>
<path d="M108.025 89.0541H131.223" stroke="#5661AE" stroke-width="12" stroke-miterlimit="10" stroke-linecap="round"/>
<path d="M61.9293 44.9201C61.9293 44.9201 67.0576 43.7236 68.6841 46.4863C70.3106 49.249 71.9372 54.439 75.6241 53.7659C79.3109 53.0931 81.0903 39.5186 84.777 39.6385C88.4638 39.7588 87.8774 48.6486 91.8896 48.7686C95.9017 48.8888 94.7835 43.8004 97.4622 43.9395C100.712 44.1081 100.348 54.6547 104.577 54.7747C108.806 54.8949 108.372 40.8407 114.77 41.0809" stroke="white" stroke-width="6.35676" stroke-miterlimit="10" stroke-linecap="round"/>
<path d="M63.5647 28.1902H73.8032" stroke="white" stroke-width="10.0826" stroke-miterlimit="10" stroke-linecap="round"/>
<path opacity="0.4" d="M63.5647 33.4833H84.7233" stroke="white" stroke-width="10.0826" stroke-miterlimit="10" stroke-linecap="round"/>
<path opacity="0.4" d="M145.732 50.7284C149.408 50.7284 152.388 47.4272 152.388 43.3549C152.388 39.2829 149.408 35.9817 145.732 35.9817C142.056 35.9817 139.076 39.2829 139.076 43.3549C139.076 47.4272 142.056 50.7284 145.732 50.7284Z" fill="white"/>
<path d="M143.673 41.3249V46.0048C143.673 46.1345 143.703 46.2621 143.761 46.3747C143.819 46.4875 143.903 46.5817 144.004 46.6477C144.104 46.7139 144.219 46.7498 144.336 46.7521C144.453 46.7544 144.569 46.7229 144.671 46.6605L148.533 44.3207C148.639 44.2562 148.728 44.1615 148.79 44.0462C148.851 43.9308 148.884 43.799 148.884 43.665C148.884 43.5307 148.851 43.3992 148.79 43.2838C148.728 43.1684 148.639 43.0735 148.533 43.009L144.671 40.6692C144.569 40.6071 144.453 40.5753 144.336 40.5776C144.219 40.5799 144.104 40.616 144.004 40.682C143.903 40.7483 143.82 40.8422 143.762 40.955C143.704 41.0678 143.673 41.1952 143.673 41.3249Z" fill="white"/>
<path d="M57.2225 10H169.771C170.6 10 171.395 10.3648 171.982 11.0144C172.568 11.6637 172.897 12.5445 172.897 13.4629V18.6795H54.0964V13.4629C54.0964 12.5445 54.4258 11.6637 55.0121 11.0144C55.5982 10.3648 56.3934 10 57.2225 10Z" fill="#5CA4E6"/>
<path d="M240.456 131.5H207.275V135.655H240.456V131.5Z" fill="#96BAFD"/>
<path d="M200.356 135.655L221.965 221.586H217.563L192.586 135.655H200.356Z" fill="#E7EFFF"/>
<path d="M200.356 135.655L201.943 141.964L193.663 139.359L192.586 135.655H200.356Z" fill="#5CA4E6"/>
<path d="M228.334 61.7222C237.336 61.7222 244.634 53.6377 244.634 43.665C244.634 33.692 237.336 25.6076 228.334 25.6076C219.33 25.6076 212.032 33.692 212.032 43.665C212.032 53.6377 219.33 61.7222 228.334 61.7222Z" fill="#FEBB94"/>
<path d="M234.143 43.226C234.143 42.0582 233.856 40.912 233.313 39.9107C232.771 38.9094 231.992 38.0905 231.062 37.5418C230.131 36.9927 229.083 36.7346 228.03 36.7947C226.976 36.8549 225.958 37.2309 225.085 37.883C224.21 38.5351 223.512 39.4382 223.064 40.4961C222.616 41.5539 222.438 42.7264 222.547 43.8884C222.656 45.0501 223.046 46.1573 223.679 47.0913C224.311 48.0256 225.164 48.7517 226.14 49.1917V51.3048H230.519V49.1917C231.591 48.7089 232.507 47.8836 233.152 46.8209C233.798 45.7585 234.143 44.5067 234.143 43.226Z" stroke="white" stroke-width="3.71807" stroke-linecap="round" stroke-linejoin="round"/>
<path d="M226.14 51.3048H230.535V52.3412C230.535 52.7802 230.378 53.2013 230.096 53.5118C229.817 53.8224 229.436 53.9969 229.041 53.9969H227.635C227.237 53.9969 226.859 53.8224 226.577 53.5118C226.297 53.2013 226.14 52.7802 226.14 52.3412V51.3048Z" stroke="white" stroke-width="3.71807" stroke-linecap="round" stroke-linejoin="round"/>
<path d="M227.348 51.3048V43.9121C227.348 43.7351 227.283 43.5655 227.17 43.4404C227.057 43.3153 226.905 43.2449 226.745 43.2449H226.727C226.568 43.2449 226.413 43.3153 226.302 43.4404C226.189 43.5655 226.124 43.7351 226.124 43.9121C226.124 43.9996 226.14 44.0864 226.17 44.1675C226.2 44.2483 226.244 44.3217 226.302 44.3839C226.357 44.4458 226.424 44.4949 226.496 44.5284C226.57 44.5619 226.648 44.5791 226.727 44.5791H229.932C230.011 44.5791 230.089 44.5619 230.163 44.5284C230.235 44.4949 230.302 44.4458 230.357 44.3839C230.415 44.3217 230.459 44.2483 230.489 44.1675C230.519 44.0864 230.535 43.9996 230.535 43.9121C230.535 43.7351 230.47 43.5655 230.357 43.4404C230.244 43.3153 230.092 43.2449 229.932 43.2449H229.879C229.72 43.2449 229.567 43.3153 229.454 43.4404C229.341 43.5655 229.276 43.7351 229.276 43.9121V51.3048" stroke="white" stroke-width="3.71807" stroke-linecap="round" stroke-linejoin="round"/>
<path d="M228.337 33.3328V34.9855" stroke="white" stroke-width="3.71807" stroke-linecap="round" stroke-linejoin="round"/>
<path d="M222.958 34.9249L223.704 36.3562" stroke="white" stroke-width="3.71807" stroke-linecap="round" stroke-linejoin="round"/>
<path d="M219.021 39.2824L220.311 40.1087" stroke="white" stroke-width="3.71807" stroke-linecap="round" stroke-linejoin="round"/>
<path d="M237.646 39.2964L236.355 40.1228" stroke="white" stroke-width="3.71807" stroke-linecap="round" stroke-linejoin="round"/>
<path d="M233.713 34.933L232.967 36.3641" stroke="white" stroke-width="3.71807" stroke-linecap="round" stroke-linejoin="round"/>
<path d="M49.1946 21.6141H37.1009C36.2565 21.6141 35.5723 22.3724 35.5723 23.3077V36.7044C35.5723 37.6397 36.2565 38.398 37.1009 38.398H49.1946C50.0389 38.398 50.7232 37.6397 50.7232 36.7044V23.3077C50.7232 22.3724 50.0389 21.6141 49.1946 21.6141Z" fill="#1C85E8"/>
<path d="M49.1946 42.3365H37.1009C36.2565 42.3365 35.5723 43.0948 35.5723 44.0298V57.4268C35.5723 58.3621 36.2565 59.1201 37.1009 59.1201H49.1946C50.0389 59.1201 50.7232 58.3621 50.7232 57.4268V44.0298C50.7232 43.0948 50.0389 42.3365 49.1946 42.3365Z" fill="#1C85E8"/>
<path d="M48.0779 48.4661C48.0701 48.011 47.992 47.5605 47.8477 47.134C47.72 46.7692 47.525 46.4379 47.2754 46.1611C47.0255 45.8845 46.7264 45.6686 46.3971 45.5271C46.0121 45.3675 45.6055 45.281 45.1946 45.2721C44.6639 45.2442 44.4956 45.2375 43.1496 45.2375C41.8037 45.2375 41.6351 45.2442 41.1065 45.2698C40.6954 45.2787 40.289 45.3649 39.904 45.5251C39.5747 45.6663 39.2756 45.8822 39.0257 46.159C38.7761 46.4356 38.5811 46.7671 38.4534 47.132C38.3091 47.5582 38.2313 48.0087 38.2232 48.4641C38.198 49.052 38.192 49.2384 38.192 50.7294C38.192 52.2204 38.198 52.4069 38.2211 52.9925C38.2292 53.4479 38.307 53.8984 38.4516 54.3248C38.5793 54.6896 38.774 55.0209 39.0239 55.2977C39.2735 55.5743 39.5726 55.7902 39.9021 55.9314C40.2869 56.0913 40.6936 56.1778 41.1046 56.1868C41.6333 56.2126 41.8019 56.219 43.1478 56.219C44.4935 56.219 44.6621 56.2126 45.1907 56.1868C45.6018 56.1778 46.0085 56.0916 46.3932 55.9314C46.7228 55.7905 47.0218 55.5746 47.2717 55.298C47.5216 55.0212 47.7163 54.6896 47.8437 54.3248C47.9881 53.8984 48.0659 53.4479 48.0742 52.9925C48.0973 52.4069 48.1033 52.2204 48.1033 50.7294C48.1033 49.2384 48.1012 49.052 48.0779 48.4661ZM47.1853 52.9498C47.1821 53.2977 47.1244 53.6425 47.0149 53.9687C46.9322 54.2056 46.8059 54.4205 46.6438 54.6001C46.4817 54.7797 46.2874 54.9196 46.0738 55.0112C45.7791 55.1325 45.4681 55.1962 45.154 55.2C44.6311 55.2259 44.4743 55.2323 43.1515 55.2323C41.8289 55.2323 41.6702 55.2259 41.1492 55.2C40.8349 55.1964 40.5238 55.1327 40.2294 55.0112C40.0141 54.9237 39.8195 54.7838 39.6601 54.6014C39.4959 54.4244 39.3696 54.2089 39.2901 53.9708C39.1807 53.6446 39.1232 53.2997 39.1197 52.9518C39.0964 52.3726 39.0906 52.1989 39.0906 50.7338C39.0906 49.2684 39.0964 49.0926 39.1197 48.5155C39.1229 48.1676 39.1804 47.8227 39.2901 47.4965C39.3691 47.2578 39.4961 47.0419 39.662 46.8659C39.8218 46.684 40.0162 46.5441 40.2312 46.4561C40.5257 46.3351 40.837 46.2711 41.1511 46.2673C41.6739 46.2417 41.831 46.2353 43.1536 46.2353C44.478 46.2353 44.6348 46.2417 45.1558 46.2673C45.4699 46.2708 45.7812 46.3348 46.0757 46.4561C46.2909 46.5436 46.4853 46.6835 46.6449 46.8659C46.8091 47.0429 46.9354 47.2586 47.0149 47.4965C47.1244 47.8229 47.1819 48.1676 47.1853 48.5155C47.2087 49.0947 47.2144 49.2684 47.2144 50.7338C47.2144 52.1989 47.2087 52.3706 47.1853 52.9498Z" fill="white"/>
<path d="M43.1497 47.9084C42.646 47.9084 42.1536 48.0739 41.7349 48.384C41.3162 48.6938 40.9897 49.1343 40.7971 49.6498C40.6042 50.1653 40.5539 50.7325 40.652 51.2797C40.7504 51.8269 40.9929 52.3296 41.349 52.7241C41.7051 53.1186 42.1589 53.3872 42.6529 53.4962C43.1469 53.6049 43.6589 53.5492 44.1242 53.3355C44.5896 53.1222 44.9873 52.7604 45.2669 52.2966C45.5468 51.8328 45.6962 51.2874 45.6962 50.7294C45.696 49.9814 45.4277 49.2638 44.9501 48.735C44.4725 48.2059 43.8249 47.9086 43.1497 47.9084ZM43.1497 52.5594C42.8229 52.5594 42.5035 52.4519 42.2319 52.2508C41.9603 52.0497 41.7485 51.764 41.6236 51.4296C41.4984 51.0952 41.4659 50.7274 41.5296 50.3723C41.5933 50.0174 41.7506 49.6913 41.9816 49.4354C42.2127 49.1796 42.5069 49.0054 42.8275 48.9348C43.1478 48.8642 43.4799 48.9002 43.7817 49.0389C44.0836 49.1773 44.3415 49.4119 44.5231 49.7127C44.7046 50.0136 44.8016 50.3674 44.8016 50.7294C44.8013 51.2147 44.6274 51.6801 44.3175 52.0231C44.0078 52.3665 43.5877 52.5591 43.1497 52.5594Z" fill="white"/>
<path d="M46.3914 47.7969C46.3914 47.9271 46.3565 48.0545 46.2911 48.163C46.2258 48.2712 46.1329 48.3556 46.0244 48.4055C45.9159 48.4554 45.7962 48.4684 45.681 48.4428C45.5655 48.4175 45.4597 48.3548 45.3764 48.2627C45.2932 48.1706 45.2367 48.0532 45.2138 47.9256C45.1907 47.7976 45.2025 47.6654 45.2475 47.5449C45.2926 47.4246 45.3688 47.3218 45.4664 47.2494C45.5644 47.177 45.6791 47.1384 45.7969 47.1384C45.9544 47.1384 46.1057 47.2077 46.2172 47.3313C46.3288 47.4548 46.3914 47.6221 46.3914 47.7969Z" fill="white"/>
<path d="M44.6491 27.0947H45.5126V25.4285C45.0948 25.3778 44.6748 25.353 44.2547 25.3548C43.0094 25.3548 42.1566 26.2223 42.1566 27.8169V29.2841H40.7827V31.1468H42.1566V35.8333H43.8411V31.1473H45.1595L45.3687 29.2846H43.8408V28.0014C43.8411 27.4631 43.972 27.0947 44.6491 27.0947Z" fill="white"/>
</g>
<defs>
<filter id="filter0_d_1160_1648" x="0" y="0" width="285.77" height="257" filterUnits="userSpaceOnUse" color-interpolation-filters="sRGB">
<feFlood flood-opacity="0" result="BackgroundImageFix"/>
<feColorMatrix in="SourceAlpha" type="matrix" values="0 0 0 0 0 0 0 0 0 0 0 0 0 0 0 0 0 0 127 0" result="hardAlpha"/>
<feOffset dx="5" dy="10"/>
<feGaussianBlur stdDeviation="10"/>
<feComposite in2="hardAlpha" operator="out"/>
<feColorMatrix type="matrix" values="0 0 0 0 0.921569 0 0 0 0 0.921569 0 0 0 0 0.921569 0 0 0 0.41 0"/>
<feBlend mode="normal" in2="BackgroundImageFix" result="effect1_dropShadow_1160_1648"/>
<feBlend mode="normal" in="SourceGraphic" in2="effect1_dropShadow_1160_1648" result="shape"/>
</filter>
<linearGradient id="paint0_linear_1160_1648" x1="110.539" y1="9.78869" x2="125.918" y2="199.294" gradientUnits="userSpaceOnUse">
<stop stop-color="white"/>
<stop offset="1" stop-color="#94B9FF"/>
</linearGradient>
<linearGradient id="paint1_linear_1160_1648" x1="134.66" y1="131.49" x2="134.68" y2="140.403" gradientUnits="userSpaceOnUse">
<stop stop-color="white"/>
<stop offset="1" stop-color="#94B9FF"/>
</linearGradient>
<linearGradient id="paint2_linear_1160_1648" x1="76.9357" y1="113.002" x2="92.6647" y2="223.817" gradientUnits="userSpaceOnUse">
<stop stop-color="white"/>
<stop offset="1" stop-color="#94B9FF"/>
</linearGradient>
</defs>
</svg>
