<svg width="286" height="257" viewBox="0 0 286 257" fill="none" xmlns="http://www.w3.org/2000/svg">
<g filter="url(#filter0_d_1160_1396)">
<path d="M142.244 203.567C199.957 203.567 246.742 161.937 246.742 110.582C246.742 59.228 199.957 17.5973 142.244 17.5973C84.5309 17.5973 37.745 59.228 37.745 110.582C37.745 161.937 84.5309 203.567 142.244 203.567Z" stroke="#D1E8F7" stroke-width="1.91649" stroke-miterlimit="10"/>
<path d="M57.232 59.2594C59.2648 59.2594 60.9127 57.7931 60.9127 55.9842C60.9127 54.1754 59.2648 52.7093 57.232 52.7093C55.1994 52.7093 53.5515 54.1754 53.5515 55.9842C53.5515 57.7931 55.1994 59.2594 57.232 59.2594Z" fill="#FEBB94"/>
<path d="M246.742 117.399C248.775 117.399 250.424 115.933 250.424 114.124C250.424 112.315 248.775 110.848 246.742 110.848C244.711 110.848 243.062 112.315 243.062 114.124C243.062 115.933 244.711 117.399 246.742 117.399Z" fill="#5661AE"/>
<path d="M146.53 206.842C148.563 206.842 150.211 205.376 150.211 203.567C150.211 201.759 148.563 200.292 146.53 200.292C144.497 200.292 142.849 201.759 142.849 203.567C142.849 205.376 144.497 206.842 146.53 206.842Z" fill="#1C85E8"/>
<path d="M144.665 180.559C187.717 180.559 222.618 149.504 222.618 111.195C222.618 72.8857 187.717 41.8303 144.665 41.8303C101.612 41.8303 66.7114 72.8857 66.7114 111.195C66.7114 149.504 101.612 180.559 144.665 180.559Z" stroke="#D1E8F7" stroke-width="1.42966" stroke-miterlimit="10"/>
<path d="M221.282 127.61C222.798 127.61 224.027 126.516 224.027 125.167C224.027 123.818 222.798 122.724 221.282 122.724C219.765 122.724 218.536 123.818 218.536 125.167C218.536 126.516 219.765 127.61 221.282 127.61Z" fill="#FEBB94"/>
<path d="M72.3643 139.705C73.8808 139.705 75.1101 138.612 75.1101 137.262C75.1101 135.913 73.8808 134.819 72.3643 134.819C70.8481 134.819 69.6188 135.913 69.6188 137.262C69.6188 138.612 70.8481 139.705 72.3643 139.705Z" fill="#5661AE"/>
<path d="M109.747 51.5561C111.263 51.5561 112.493 50.4623 112.493 49.1128C112.493 47.7637 111.263 46.6699 109.747 46.6699C108.231 46.6699 107.001 47.7637 107.001 49.1128C107.001 50.4623 108.231 51.5561 109.747 51.5561Z" fill="#1C85E8"/>
<path d="M185.237 188.007H95.2127C91.307 188.007 88.4453 185.189 88.8208 181.714L104.189 39.461C104.564 35.9856 108.034 33.1683 111.94 33.1683H201.964C205.87 33.1683 208.731 35.9856 208.356 39.461L192.988 181.714C192.613 185.189 189.142 188.007 185.237 188.007Z" fill="#1C85E8"/>
<path d="M178.892 188.007H88.8681C84.9627 188.007 82.101 185.189 82.4762 181.714L97.844 39.461C98.2196 35.9856 101.69 33.1683 105.596 33.1683H195.62C199.525 33.1683 202.387 35.9856 202.011 39.461L186.644 181.714C186.268 185.189 182.798 188.007 178.892 188.007Z" fill="url(#paint0_linear_1160_1396)"/>
<path d="M175.481 183.278H93.3017C89.6821 183.278 87.0299 180.667 87.3778 177.446L101.823 43.7289C102.172 40.5081 105.388 37.8974 109.007 37.8974H191.186C194.806 37.8974 197.458 40.5081 197.11 43.7289L182.664 177.446C182.316 180.667 179.1 183.278 175.481 183.278Z" fill="white"/>
<path d="M182.071 98.7274L93.9138 98.6577C93.5537 98.6665 93.1956 98.6066 92.8635 98.4824C92.5316 98.3583 92.233 98.1724 91.9882 97.9372C91.7432 97.7023 91.5576 97.4234 91.4434 97.1195C91.3292 96.8154 91.2893 96.4932 91.3263 96.1743L96.0789 49.2153C96.1649 48.5376 96.5267 47.9115 97.096 47.4549C97.6651 46.9981 98.4022 46.7427 99.1685 46.7363L187.325 46.806C187.686 46.7975 188.044 46.8571 188.376 46.9813C188.708 47.1057 189.006 47.2913 189.251 47.5265C189.496 47.7616 189.682 48.0403 189.796 48.3444C189.91 48.6483 189.95 48.9705 189.913 49.2894L185.16 96.2487C185.074 96.9261 184.713 97.5522 184.143 98.009C183.574 98.4656 182.837 98.7212 182.071 98.7274Z" fill="url(#paint1_linear_1160_1396)"/>
<path d="M179.295 149.326H142.034C141.76 149.331 141.487 149.283 141.234 149.186C140.982 149.089 140.756 148.945 140.572 148.764C140.388 148.582 140.249 148.368 140.166 148.135C140.083 147.902 140.057 147.655 140.09 147.413L144.614 105.533C144.68 105.014 144.955 104.533 145.389 104.181C145.822 103.829 146.385 103.63 146.972 103.619H184.233C184.508 103.614 184.78 103.662 185.033 103.759C185.285 103.856 185.511 104 185.695 104.182C185.88 104.363 186.018 104.578 186.101 104.811C186.184 105.044 186.21 105.291 186.177 105.533L181.653 147.413C181.587 147.932 181.312 148.412 180.878 148.764C180.445 149.116 179.882 149.316 179.295 149.326Z" fill="url(#paint2_linear_1160_1396)"/>
<path d="M170.412 126.223C174.614 122.66 175.071 117.017 171.434 113.621C167.795 110.225 161.44 110.36 157.238 113.924C153.036 117.488 152.578 123.13 156.217 126.526C159.855 129.923 166.21 129.787 170.412 126.223Z" stroke="#EF6A77" stroke-width="11.6898" stroke-miterlimit="10"/>
<path d="M159.101 128.312C155.616 126.972 153.406 123.788 153.807 120.074C154.339 115.151 159.255 111.16 164.788 111.16" stroke="white" stroke-width="11.6898" stroke-miterlimit="10" stroke-linecap="round"/>
<path d="M158.274 135.974H165.94" stroke="white" stroke-width="5.98374" stroke-miterlimit="10" stroke-linecap="round"/>
<path d="M157.44 143.699H165.106" stroke="white" stroke-width="5.98374" stroke-miterlimit="10" stroke-linecap="round"/>
<path opacity="0.4" d="M153.773 139.793H169.616" stroke="white" stroke-width="5.98374" stroke-miterlimit="10" stroke-linecap="round"/>
<path d="M133.727 149.326H96.467C96.1922 149.331 95.9192 149.283 95.6669 149.186C95.4149 149.089 95.1888 148.945 95.0044 148.764C94.8202 148.582 94.6818 148.368 94.5988 148.135C94.5155 147.902 94.4898 147.655 94.5228 147.413L99.047 105.533C99.1123 105.014 99.3873 104.533 99.8211 104.181C100.255 103.829 100.818 103.63 101.405 103.619H138.665C138.94 103.614 139.213 103.662 139.465 103.759C139.718 103.856 139.943 104 140.128 104.182C140.312 104.363 140.451 104.578 140.534 104.811C140.617 105.044 140.643 105.291 140.609 105.533L136.085 147.413C136.02 147.932 135.745 148.412 135.311 148.764C134.877 149.116 134.315 149.316 133.727 149.326Z" fill="#FEBB94"/>
<path d="M124.845 126.223C129.047 122.66 129.504 117.017 125.866 113.621C122.228 110.225 115.872 110.36 111.67 113.924C107.468 117.488 107.011 123.13 110.649 126.526C114.287 129.923 120.643 129.787 124.845 126.223Z" stroke="#EF6A77" stroke-width="11.6898" stroke-miterlimit="10"/>
<path d="M128.275 120.074C127.743 124.997 122.827 128.987 117.295 128.987C111.762 128.987 107.708 124.997 108.24 120.074C108.772 115.151 113.688 111.16 119.22 111.16" stroke="white" stroke-width="11.6898" stroke-miterlimit="10" stroke-linecap="round"/>
<path d="M112.707 135.974H120.372" stroke="white" stroke-width="5.98374" stroke-miterlimit="10" stroke-linecap="round"/>
<path d="M111.872 143.699H119.538" stroke="white" stroke-width="5.98374" stroke-miterlimit="10" stroke-linecap="round"/>
<path opacity="0.4" d="M108.206 139.793H124.048" stroke="white" stroke-width="5.98374" stroke-miterlimit="10" stroke-linecap="round"/>
<path d="M176.172 179.28H93.1184C92.8579 179.285 92.5995 179.24 92.3606 179.148C92.1213 179.056 91.9072 178.919 91.7324 178.747C91.5579 178.575 91.4268 178.372 91.3478 178.151C91.2691 177.93 91.2447 177.697 91.2758 177.466L93.7544 154.526C93.8162 154.034 94.077 153.578 94.4881 153.245C94.8992 152.911 95.4324 152.722 95.9889 152.712H179.042C179.302 152.707 179.561 152.752 179.8 152.844C180.039 152.937 180.253 153.073 180.428 153.245C180.602 153.417 180.733 153.62 180.812 153.841C180.891 154.062 180.915 154.296 180.884 154.526L178.406 177.466C178.344 177.958 178.083 178.414 177.672 178.747C177.261 179.081 176.728 179.271 176.172 179.28Z" fill="url(#paint3_linear_1160_1396)"/>
<path d="M98.9022 173.961L100.074 163.116" stroke="white" stroke-width="11.6898" stroke-miterlimit="10" stroke-linecap="round"/>
<path d="M107.499 166.364L106.678 173.961" stroke="white" stroke-width="11.6898" stroke-miterlimit="10" stroke-linecap="round"/>
<path d="M114.994 168.959L114.454 173.961" stroke="white" stroke-width="11.6898" stroke-miterlimit="10" stroke-linecap="round"/>
<path d="M123.706 160.298L122.23 173.961" stroke="white" stroke-width="11.6898" stroke-miterlimit="10" stroke-linecap="round"/>
<path d="M130.546 168.959L130.005 173.961" stroke="white" stroke-width="11.6898" stroke-miterlimit="10" stroke-linecap="round"/>
<path d="M139.192 160.901L137.781 173.961" stroke="white" stroke-width="11.6898" stroke-miterlimit="10" stroke-linecap="round"/>
<path d="M146.143 168.539L145.557 173.961" stroke="white" stroke-width="11.6898" stroke-miterlimit="10" stroke-linecap="round"/>
<path d="M153.645 171.073L153.333 173.961" stroke="white" stroke-width="11.6898" stroke-miterlimit="10" stroke-linecap="round"/>
<path d="M162.28 163.116L161.109 173.961" stroke="white" stroke-width="11.6898" stroke-miterlimit="10" stroke-linecap="round"/>
<path d="M170.502 158.987L168.884 173.961" stroke="white" stroke-width="11.6898" stroke-miterlimit="10" stroke-linecap="round"/>
<path d="M101.054 91.5266L105.722 98.0326C105.933 98.3263 106.004 98.682 105.922 99.0225C105.839 99.3631 105.608 99.6605 105.28 99.8505L104.525 100.287C103.263 101.017 101.745 101.314 100.254 101.123C98.7638 100.933 97.4017 100.267 96.4212 99.2496L90.2272 92.8223L101.054 91.5266Z" fill="#FFCCB3"/>
<path d="M97.4929 94.0302C97.4929 94.0302 99.2213 99.3107 102.693 101.005C103.595 100.694 104.461 100.308 105.28 99.8505L101.386 94.0302" fill="#FCBA9F"/>
<path d="M17.6409 117.777L35.9747 109.959C37.7021 109.223 39.1627 108.069 40.1906 106.631L57.9018 81.8399C59.0043 80.2965 60.6036 79.084 62.4913 78.3604L88.0007 68.5812L82.5395 105.331L82.4433 106.688C82.4433 106.688 75.6963 122.237 59.1593 127.886L32.7199 142.276L17.6409 117.777Z" fill="#FFCCB3"/>
<path d="M37.5929 109.097C37.5929 109.097 46.2655 128.358 59.1593 127.886L50.927 132.367C50.927 132.367 22.9847 127.755 33.4442 111L37.5929 109.097Z" fill="#FCBA9F"/>
<path d="M84.0522 75.3823C84.0522 75.3823 75.0328 80.2455 75.5112 91.5265L86.3425 87.9249L84.0522 75.3823Z" fill="#FCBA9F"/>
<path d="M106.709 91.5266L111.377 98.0326C111.588 98.3263 111.659 98.682 111.577 99.0225C111.494 99.3631 111.263 99.6605 110.935 99.8505L110.18 100.287C108.918 101.017 107.4 101.314 105.909 101.123C104.419 100.933 103.057 100.267 102.076 99.2496L95.8826 92.8223L106.709 91.5266Z" fill="#FFCCB3"/>
<path d="M175.713 94.0922L87.5558 94.0224C87.1957 94.031 86.8376 93.9713 86.5057 93.8469C86.1736 93.7227 85.8752 93.5368 85.6302 93.3019C85.3851 93.0668 85.1996 92.7881 85.0853 92.484C84.9711 92.1799 84.9312 91.8579 84.9682 91.539L89.7209 44.5797C89.8071 43.902 90.1687 43.2759 90.738 42.8194C91.307 42.3628 92.0442 42.1072 92.8107 42.1007L180.967 42.1707C181.327 42.1619 181.686 42.2218 182.018 42.346C182.35 42.4702 182.648 42.656 182.893 42.8909C183.138 43.1261 183.324 43.405 183.438 43.7089C183.552 44.013 183.592 44.3352 183.555 44.6539L178.803 91.6131C178.716 92.2908 178.354 92.9169 177.785 93.3735C177.216 93.83 176.479 94.0857 175.713 94.0922Z" fill="#1C85E8"/>
<path d="M93.3926 69.9597C93.3926 69.9597 101.306 68.5356 103.436 71.8399C105.565 75.1438 107.402 81.3489 113.068 80.5491C118.734 79.749 123.072 63.5262 128.642 63.6743C134.213 63.8223 132.249 74.4472 138.313 74.5955C144.376 74.7438 143.298 68.6606 147.339 68.8301C152.241 69.0357 150.413 81.6408 156.805 81.7894C163.197 81.9379 164.24 65.1393 173.903 65.4341" stroke="white" stroke-width="7.56507" stroke-miterlimit="10" stroke-linecap="round"/>
<path d="M97.8935 49.9656L113.403 49.9778" stroke="white" stroke-width="11.9991" stroke-miterlimit="10" stroke-linecap="round"/>
<path opacity="0.4" d="M97.2531 56.2919L129.306 56.3173" stroke="white" stroke-width="11.9991" stroke-miterlimit="10" stroke-linecap="round"/>
<path d="M67.2428 93.8593L78.5516 89.4268L90.1166 82.4022C93.1581 80.555 99.5097 79.7228 101.796 82.291C104.122 84.9033 101.51 90.0708 98.6886 92.2628L88.0007 100.568L82.443 106.688L67.2428 93.8593Z" fill="#FFCCB3"/>
<path d="M90.2272 85.0697C90.2272 85.0697 91.754 90.3083 95.7124 91.2146L99.9109 88.0584C100.337 87.7764 100.693 87.4201 100.959 87.0115C101.225 86.6027 101.395 86.15 101.458 85.6813C101.521 85.2123 101.476 84.7368 101.325 84.2839C101.175 83.831 100.923 83.4099 100.584 83.0467C99.9913 82.4121 99.165 81.9853 98.2519 81.8427C97.3387 81.7004 96.3982 81.8513 95.5987 82.2687L90.2272 85.0697Z" stroke="#FF967C" stroke-width="3" stroke-linecap="round"/>
<path d="M36.6713 109.312C36.6713 109.312 34.4797 123.258 53.5515 131.244C53.5515 131.244 39.8512 142.427 34.5691 144.307C29.2874 146.188 9.44201 126.972 16.5005 116.066C18.48 113.007 36.6713 109.312 36.6713 109.312Z" fill="#1C85E8"/>
<path d="M108.935 94.628C108.935 94.628 101.501 94.7628 98.9136 95.9678L97.046 94.0299L108.506 94.0302L108.935 94.628Z" fill="#FCBA9F"/>
<path d="M245.803 94.0921H192.949C188.968 94.0921 186.026 91.2201 186.379 87.6773L193.47 16.4145C193.822 12.8721 197.336 10 201.317 10H254.171C258.154 10 261.094 12.8721 260.741 16.4145L253.65 87.6773C253.297 91.2201 249.783 94.0921 245.803 94.0921Z" fill="#FEBB94"/>
<path d="M238.237 50.2391C246.607 43.1144 247.45 31.8132 240.122 24.997C232.793 18.1809 220.068 18.4308 211.699 25.5555C203.33 32.6801 202.486 43.9814 209.814 50.7975C217.143 57.6139 229.869 57.3637 238.237 50.2391Z" fill="white"/>
<path d="M226.088 38.4519L239.356 49.2194C239.356 49.2194 242.374 46.3325 243.274 44.2694L226.088 38.4519Z" fill="url(#paint4_linear_1160_1396)"/>
<path d="M226.971 17.7681L225.086 36.7139C225.044 37.0589 225.116 37.4074 225.294 37.7164C225.473 38.0252 225.748 38.2808 226.088 38.4519L244.09 47.3699C244.09 47.3699 254.78 20.8325 226.971 17.7681Z" fill="#1C85E8"/>
<path d="M198.794 68.8693H220.69" stroke="white" stroke-width="12" stroke-miterlimit="10" stroke-linecap="round"/>
<path d="M197.191 84.9774H219.087" stroke="white" stroke-width="12" stroke-miterlimit="10" stroke-linecap="round"/>
<path opacity="0.4" d="M198.001 76.8323H243.251" stroke="white" stroke-width="12" stroke-miterlimit="10" stroke-linecap="round"/>
<path d="M180.802 146.591C180.802 146.591 187.861 144.916 191.617 148.515C191.617 148.515 198.369 147.424 201.114 150.767C201.114 150.767 207.1 151.075 208.834 153.248C210.275 153.425 211.639 153.938 212.785 154.737C213.931 155.535 214.819 156.589 215.358 157.791C216.995 161.224 215.607 181.071 213.98 188.182C213.573 189.961 213.712 191.804 214.383 193.519L218.522 204.101L189.888 214.752L183.09 198.975C183.09 198.975 174.815 187.142 173.632 185.038C172.45 182.935 174.454 165.478 170.418 154.573L180.802 146.591Z" fill="#FFCCB3"/>
<path d="M186.783 207.546L185.957 205.629C185.957 205.629 200.815 204.784 214.383 193.519L215.681 196.837C215.681 196.837 214.005 203.692 206.375 206.922C198.744 210.153 186.783 207.546 186.783 207.546Z" fill="#FCBA9F"/>
<path d="M186.783 207.546C186.783 207.546 204.768 209.004 215.681 196.837C215.681 196.837 219.71 198.717 225.897 212.478C227.797 216.705 196.066 231.754 190.935 225.499C190.935 225.499 186.506 217.162 186.783 207.546Z" fill="#5661AE"/>
<path d="M172.178 161.156C172.178 161.156 171.558 164.085 168.625 164.085C166.711 164.085 158.416 161.855 152.88 160.305C151.374 159.883 149.758 159.883 148.251 160.305C146.745 160.726 145.421 161.55 144.457 162.663L144.121 163.052C143.954 163.245 143.832 163.466 143.764 163.701C143.695 163.937 143.682 164.183 143.723 164.423C143.765 164.664 143.86 164.895 144.005 165.101C144.149 165.308 144.34 165.486 144.564 165.626C149.251 168.537 161.908 176.44 163.527 177.88C165.519 179.653 176.613 189.591 176.613 189.591L172.178 161.156Z" fill="#FFCCB3"/>
<path d="M171.505 158.222C171.505 158.222 177.5 165.443 176.613 167.023C175.725 168.604 166.429 163.771 166.429 163.771C166.429 163.771 173.93 165.488 171.505 158.222Z" fill="#FCBA9F"/>
<path d="M170.418 154.573L160.33 127.313C159.984 126.377 159.853 125.39 159.943 124.409C160.034 123.428 160.346 122.473 160.859 121.601C161.373 120.728 162.078 119.957 162.932 119.332C163.787 118.707 164.774 118.241 165.835 117.961C166.704 117.733 167.636 117.795 168.456 118.135C169.277 118.476 169.929 119.072 170.29 119.811L184.443 148.759L170.418 154.573Z" fill="#FFCCB3"/>
<path d="M166.044 142.751C166.329 143.169 166.709 143.53 167.159 143.811C167.609 144.092 168.12 144.288 168.659 144.385" stroke="#FF967C" stroke-width="3" stroke-linecap="round"/>
<path d="M169.673 128.796C170.901 128.312 172.255 127.636 172.837 126.846L169.081 118.91C169 118.738 168.88 118.585 168.728 118.458C168.575 118.332 168.395 118.235 168.197 118.176C168 118.116 167.791 118.095 167.583 118.113C167.376 118.13 167.175 118.187 166.995 118.279C165.658 118.966 163.893 120.205 163.825 121.983L166.366 127.609C166.49 127.884 166.676 128.133 166.911 128.343C167.147 128.552 167.427 128.717 167.736 128.828C168.045 128.939 168.375 128.993 168.708 128.988C169.041 128.982 169.37 128.917 169.673 128.796Z" stroke="#FF967C" stroke-width="3" stroke-linecap="round"/>
<path d="M183.305 146.43L186.783 153.248" stroke="#FF967C" stroke-width="3" stroke-linecap="round"/>
<path d="M191.756 148.655C193.523 150.909 194.471 153.592 194.47 156.341" stroke="#FF967C" stroke-width="3" stroke-linecap="round"/>
<path d="M201.28 150.894C201.28 150.894 203.031 154.467 203.176 157.292" stroke="#FF967C" stroke-width="3" stroke-linecap="round"/>
<path d="M209.079 153.46C209.769 154.967 210.036 156.602 209.858 158.222" stroke="#FF967C" stroke-width="3" stroke-linecap="round"/>
<path d="M151.972 168.959C151.972 168.959 154.043 166.618 153.333 165.443C152.622 164.269 149.461 162.609 147.634 162.789C146.763 162.906 145.921 163.161 145.151 163.542C145.011 163.607 144.893 163.704 144.808 163.823C144.723 163.941 144.674 164.077 144.666 164.218C144.658 164.358 144.692 164.498 144.763 164.624C144.835 164.749 144.943 164.856 145.075 164.933L151.972 168.959Z" stroke="#FF967C" stroke-width="3" stroke-linecap="round"/>
<path d="M116.347 197.504H53.2342C52.9737 197.508 52.7153 197.463 52.4761 197.371C52.2369 197.279 52.0227 197.142 51.8482 196.97C51.6734 196.798 51.5423 196.595 51.4636 196.374C51.3847 196.153 51.3602 195.92 51.3917 195.69L53.87 172.749C53.9317 172.257 54.1925 171.801 54.6036 171.468C55.0147 171.134 55.5479 170.945 56.1044 170.935H119.218C119.478 170.93 119.736 170.976 119.975 171.068C120.215 171.159 120.429 171.296 120.604 171.468C120.778 171.64 120.909 171.843 120.988 172.064C121.067 172.285 121.091 172.519 121.06 172.749L118.582 195.69C118.52 196.182 118.259 196.637 117.848 196.971C117.437 197.304 116.904 197.494 116.347 197.504Z" fill="#FEBB94"/>
<path d="M59.1593 176.918H98.1091" stroke="#EF6A77" stroke-width="11.6898" stroke-miterlimit="10" stroke-linecap="round"/>
<path d="M59.1593 176.918H86.2257" stroke="white" stroke-width="11.6898" stroke-miterlimit="10" stroke-linecap="round"/>
<path d="M58.5765 184.219H97.5263" stroke="#EF6A77" stroke-width="11.6898" stroke-miterlimit="10" stroke-linecap="round"/>
<path d="M58.5765 184.219H74.7586" stroke="white" stroke-width="11.6898" stroke-miterlimit="10" stroke-linecap="round"/>
<path d="M57.303 191.521H96.2529" stroke="#EF6A77" stroke-width="11.6898" stroke-miterlimit="10" stroke-linecap="round"/>
<path d="M57.303 191.521H67.1991" stroke="white" stroke-width="11.6898" stroke-miterlimit="10" stroke-linecap="round"/>
<path d="M111.897 178.988C113.182 178.988 114.224 178.061 114.224 176.918C114.224 175.774 113.182 174.847 111.897 174.847C110.611 174.847 109.569 175.774 109.569 176.918C109.569 178.061 110.611 178.988 111.897 178.988Z" fill="white"/>
<path d="M111.142 185.971C112.427 185.971 113.469 185.044 113.469 183.9C113.469 182.756 112.427 181.829 111.142 181.829C109.856 181.829 108.815 182.756 108.815 183.9C108.815 185.044 109.856 185.971 111.142 185.971Z" fill="white"/>
<path d="M110.3 193.592C111.585 193.592 112.627 192.665 112.627 191.521C112.627 190.377 111.585 189.45 110.3 189.45C109.014 189.45 107.972 190.377 107.972 191.521C107.972 192.665 109.014 193.592 110.3 193.592Z" fill="white"/>
</g>
<defs>
<filter id="filter0_d_1160_1396" x="0" y="0" width="285.77" height="257" filterUnits="userSpaceOnUse" color-interpolation-filters="sRGB">
<feFlood flood-opacity="0" result="BackgroundImageFix"/>
<feColorMatrix in="SourceAlpha" type="matrix" values="0 0 0 0 0 0 0 0 0 0 0 0 0 0 0 0 0 0 127 0" result="hardAlpha"/>
<feOffset dx="5" dy="10"/>
<feGaussianBlur stdDeviation="10"/>
<feComposite in2="hardAlpha" operator="out"/>
<feColorMatrix type="matrix" values="0 0 0 0 0.921569 0 0 0 0 0.921569 0 0 0 0 0.921569 0 0 0 0.41 0"/>
<feBlend mode="normal" in2="BackgroundImageFix" result="effect1_dropShadow_1160_1396"/>
<feBlend mode="normal" in="SourceGraphic" in2="effect1_dropShadow_1160_1396" result="shape"/>
</filter>
<linearGradient id="paint0_linear_1160_1396" x1="128.398" y1="-16.0977" x2="194.403" y2="355.63" gradientUnits="userSpaceOnUse">
<stop stop-color="white"/>
<stop offset="1" stop-color="#94B9FF"/>
</linearGradient>
<linearGradient id="paint1_linear_1160_1396" x1="138.165" y1="46.6126" x2="144.519" y2="157.778" gradientUnits="userSpaceOnUse">
<stop stop-color="white"/>
<stop offset="1" stop-color="#94B9FF"/>
</linearGradient>
<linearGradient id="paint2_linear_1160_1396" x1="161.986" y1="103.51" x2="172.402" y2="200.44" gradientUnits="userSpaceOnUse">
<stop stop-color="white"/>
<stop offset="1" stop-color="#94B9FF"/>
</linearGradient>
<linearGradient id="paint3_linear_1160_1396" x1="133.849" y1="152.648" x2="135.678" y2="209.584" gradientUnits="userSpaceOnUse">
<stop stop-color="white"/>
<stop offset="1" stop-color="#94B9FF"/>
</linearGradient>
<linearGradient id="paint4_linear_1160_1396" x1="234.253" y1="38.4262" x2="235.815" y2="61.418" gradientUnits="userSpaceOnUse">
<stop stop-color="white"/>
<stop offset="1" stop-color="#94B9FF"/>
</linearGradient>
</defs>
</svg>
