<svg width="54" height="54" viewBox="0 0 54 54" fill="none" xmlns="http://www.w3.org/2000/svg">
<path d="M12.8301 27.0586C12.1356 26.3642 12.1356 25.2381 12.8301 24.5436C13.5246 23.8491 14.6506 23.8491 15.3452 24.5436L22.4875 31.6859L37.4876 16.6857C38.1821 15.9912 39.3081 15.9912 40.0026 16.6857C40.6973 17.3802 40.6973 18.5063 40.0026 19.2008L23.8501 35.3534C23.097 36.1065 21.8758 36.1065 21.1227 35.3534L12.8301 27.0586Z" fill="#7DCE13"/>
<path fill-rule="evenodd" clip-rule="evenodd" d="M27 1.92859C13.1534 1.92859 1.92857 13.1535 1.92857 27C1.92857 40.8466 13.1534 52.0714 27 52.0714C40.8466 52.0714 52.0714 40.8466 52.0714 27C52.0714 13.1535 40.8466 1.92859 27 1.92859ZM5.78572 27C5.78572 15.2837 15.2837 5.78573 27 5.78573C38.7163 5.78573 48.2143 15.2837 48.2143 27C48.2143 38.7163 38.7163 48.2143 27 48.2143C15.2837 48.2143 5.78572 38.7163 5.78572 27Z" fill="#7DCE13"/>
</svg>
