<svg width="34" height="34" viewBox="0 0 34 34" fill="none" xmlns="http://www.w3.org/2000/svg">
<path fill-rule="evenodd" clip-rule="evenodd" d="M20.9419 21.3626C20.043 22.576 17.0446 22.8905 17.0446 22.8905C17.0446 22.8905 13.9825 22.5887 13.0815 21.3902C8.75713 21.3902 6.49825 27.6016 6.49825 27.6016H27.591C27.591 27.5995 25.8103 21.3626 20.9419 21.3626Z" fill="white"/>
<path fill-rule="evenodd" clip-rule="evenodd" d="M21.1289 12.5757C21.1289 14.8261 19.2568 19.125 16.9533 19.125C14.6413 19.125 12.7734 14.8261 12.7734 12.5757C12.7734 10.3254 14.6413 8.5 16.9533 8.5C19.2568 8.5 21.1289 10.3254 21.1289 12.5757Z" fill="white"/>
<path fill-rule="evenodd" clip-rule="evenodd" d="M29.971 17.0446C29.1826 18.2665 26.7261 18.9167 26.7261 18.9167C26.7261 18.9167 23.8467 18.2771 23.052 17.0744C23.052 17.0744 23.0265 18.4854 21.8259 20.1259C25.6509 19.6329 27.3041 23.3197 27.3041 23.3197L33.9575 23.3325C33.9554 23.3304 34.2529 17.0446 29.971 17.0446Z" fill="white"/>
<path fill-rule="evenodd" clip-rule="evenodd" d="M29.7288 9.63263C29.7288 11.4346 28.322 14.8707 26.5859 14.8707C24.8434 14.8707 23.4388 11.4346 23.4388 9.63263C23.4388 7.83487 24.8476 6.375 26.5859 6.375C28.322 6.375 29.7288 7.837 29.7288 9.63263Z" fill="white"/>
<path fill-rule="evenodd" clip-rule="evenodd" d="M4.07575 17.0446C4.879 18.258 7.36738 18.904 7.36738 18.904C7.36738 18.904 10.285 18.2686 11.0819 17.0744C11.0819 17.0744 11.1116 18.4769 12.3271 20.1046C8.45113 19.6159 6.78088 23.2751 6.78088 23.2751L0.0446256 23.2857C0.0446256 23.2857 -0.259249 17.0446 4.07575 17.0446Z" fill="white"/>
<path fill-rule="evenodd" clip-rule="evenodd" d="M4.25425 9.70275C4.25425 11.4622 5.66525 14.8261 7.39712 14.8261C9.1375 14.8261 10.5421 11.4622 10.5421 9.70275C10.5421 7.94112 9.13537 6.51312 7.39712 6.51312C5.661 6.51312 4.25425 7.94112 4.25425 9.70275Z" fill="white"/>
</svg>
