<svg width="32" height="36" viewBox="0 0 32 36" fill="none" xmlns="http://www.w3.org/2000/svg">
<path d="M30 23V5C30 3.34315 28.6569 2 27 2H5C3.34315 2 2 3.34315 2 5V31C2 32.6569 3.34315 34 5 34H19C20.6569 34 22 32.6569 22 31C22 28.2386 24.2386 26 27 26C28.6569 26 30 24.6569 30 23ZM29.0029 27.5827C28.3897 27.8511 27.7122 28 27 28C25.3431 28 24 29.3431 24 31C24 31.7122 23.8511 32.3897 23.5827 33.0029C25.9747 31.9052 27.9052 29.9747 29.0029 27.5827ZM0 5C0 2.23858 2.23858 0 5 0H27C29.7614 0 32 2.23858 32 5V23C32 30.1797 26.1797 36 19 36H5C2.23858 36 0 33.7614 0 31V5ZM9 12C8.44772 12 8 11.5523 8 11C8 10.4477 8.44772 10 9 10H23C23.5523 10 24 10.4477 24 11C24 11.5523 23.5523 12 23 12H9ZM9 18C8.44772 18 8 17.5523 8 17C8 16.4477 8.44772 16 9 16H23C23.5523 16 24 16.4477 24 17C24 17.5523 23.5523 18 23 18H9ZM9 24C8.44772 24 8 23.5523 8 23C8 22.4477 8.44772 22 9 22H19C19.5523 22 20 22.4477 20 23C20 23.5523 19.5523 24 19 24H9Z" fill="white"/>
</svg>
