<svg width="25" height="25" viewBox="0 0 25 25" fill="none" xmlns="http://www.w3.org/2000/svg">
<g clip-path="url(#clip0_113_369)">
<path d="M12.5 25C9.31631 24.9979 6.25342 23.781 3.93627 21.5977C1.61913 19.4145 0.222365 16.4293 0.0309903 13.2514C-0.160385 10.0735 0.868049 6.94227 2.90645 4.49671C4.94484 2.05115 7.83958 0.475529 11 0.09135C12.9222 -0.146743 14.8734 0.0689601 16.6971 0.721158C16.8161 0.763774 16.9256 0.829414 17.0192 0.91433C17.1129 0.999246 17.1889 1.10177 17.2429 1.21606C17.2969 1.33035 17.3279 1.45416 17.334 1.58042C17.3402 1.70668 17.3215 1.83292 17.2788 1.95193C17.2362 2.07094 17.1706 2.18039 17.0857 2.27403C17.0008 2.36767 16.8982 2.44367 16.7839 2.49769C16.6697 2.55171 16.5458 2.58269 16.4196 2.58886C16.2933 2.59503 16.1671 2.57627 16.0481 2.53366C13.6856 1.69307 11.1013 1.7192 8.75625 2.60736C6.41123 3.49553 4.45803 5.18796 3.24515 7.3827C2.03227 9.57744 1.6386 12.1317 2.13438 14.5898C2.63016 17.0479 3.98314 19.2499 5.95192 20.8029C7.59957 22.0948 9.59357 22.8686 11.6814 23.0264C13.7692 23.1841 15.8568 22.7187 17.6799 21.689C19.5029 20.6593 20.9794 19.1117 21.9222 17.2423C22.865 15.3728 23.2317 13.2656 22.976 11.1875C22.9608 11.0612 22.9707 10.9332 23.005 10.8108C23.0393 10.6883 23.0974 10.5738 23.176 10.4738C23.2546 10.3738 23.3521 10.2902 23.4629 10.2279C23.5738 10.1656 23.6958 10.1257 23.8221 10.1106C23.9484 10.0954 24.0764 10.1053 24.1989 10.1396C24.3213 10.1739 24.4358 10.232 24.5358 10.3106C24.6358 10.3892 24.7194 10.4867 24.7817 10.5976C24.844 10.7084 24.8839 10.8305 24.899 10.9567C25.1177 12.7145 24.9603 14.4988 24.4373 16.1911C23.9142 17.8835 23.0374 19.4454 21.865 20.7732C20.6926 22.1011 19.2514 23.1646 17.6369 23.8933C16.0223 24.622 14.2714 24.9992 12.5 25Z" fill="white"/>
<path d="M12.5 21.0865C12.245 21.0865 12.0004 20.9852 11.8201 20.8049C11.6398 20.6246 11.5385 20.38 11.5385 20.125V10.8942C11.5385 10.6392 11.6398 10.3946 11.8201 10.2143C12.0004 10.034 12.245 9.93268 12.5 9.93268C12.755 9.93268 12.9996 10.034 13.1799 10.2143C13.3602 10.3946 13.4615 10.6392 13.4615 10.8942V20.125C13.4615 20.38 13.3602 20.6246 13.1799 20.8049C12.9996 20.9852 12.755 21.0865 12.5 21.0865Z" fill="white"/>
<path d="M12.5 8.78848C13.1824 8.78848 13.7356 8.23529 13.7356 7.5529C13.7356 6.87051 13.1824 6.31732 12.5 6.31732C11.8176 6.31732 11.2644 6.87051 11.2644 7.5529C11.2644 8.23529 11.8176 8.78848 12.5 8.78848Z" fill="white"/>
</g>
<defs>
<clipPath id="clip0_113_369">
<rect width="25" height="25" fill="white"/>
</clipPath>
</defs>
</svg>
