<svg width="37" height="37" viewBox="0 0 37 37" fill="none" xmlns="http://www.w3.org/2000/svg">
<circle cx="18.5" cy="18.5" r="18.5" fill="#008ED6"/>
<path d="M19.504 7.01917C20.7605 7 22.0075 7.00958 23.2544 7C23.3312 8.46623 23.8587 9.96121 24.933 10.9962C26.0073 12.0599 27.5228 12.5487 29 12.7116V16.5736C27.6188 16.5257 26.2279 16.2382 24.9714 15.6441C24.4247 15.3949 23.9163 15.0786 23.4175 14.7528C23.4079 17.5511 23.4271 20.3494 23.3983 23.1381C23.3216 24.4798 22.8804 25.8118 22.1034 26.9139C20.8469 28.7539 18.6695 29.9518 16.4346 29.9901C15.063 30.0668 13.6913 29.693 12.5211 29.0031C10.5835 27.8627 9.22148 25.7735 9.02005 23.531C9.00086 23.0519 8.99127 22.5727 9.01046 22.1031C9.18311 20.2823 10.0848 18.5382 11.4852 17.3499C13.0774 15.9699 15.3027 15.3086 17.3842 15.7016C17.4034 17.1199 17.3458 18.5382 17.3458 19.9565C16.3962 19.6498 15.2836 19.7361 14.4491 20.3111C13.8448 20.704 13.3844 21.3077 13.1446 21.9881C12.9431 22.4769 13.0007 23.0136 13.0103 23.531C13.2405 25.1027 14.756 26.4252 16.3675 26.2814C17.4417 26.2718 18.4681 25.6489 19.0244 24.7385C19.2067 24.4223 19.4081 24.0965 19.4177 23.7227C19.5136 22.0073 19.4752 20.3015 19.4848 18.5861C19.4944 14.7241 19.4752 10.8716 19.504 7.01917Z" fill="white"/>
</svg>
