<svg width="37" height="37" viewBox="0 0 37 37" fill="none" xmlns="http://www.w3.org/2000/svg">
<circle cx="18.5" cy="18.5" r="18.5" fill="#008ED6"/>
<path d="M29.6342 11.2103C29.1232 11.4353 28.5927 11.6129 28.0484 11.7414C28.6482 11.1754 29.0991 10.4674 29.3535 9.67714C29.4262 9.45154 29.1794 9.25645 28.9743 9.37725C28.217 9.82332 27.4014 10.158 26.5498 10.372C26.5004 10.3844 26.4495 10.3907 26.3983 10.3907C26.2432 10.3907 26.0924 10.3335 25.9738 10.2297C25.0678 9.43672 23.9026 9 22.6929 9C22.1694 9 21.6409 9.08103 21.122 9.24086C19.5142 9.73611 18.2736 11.0532 17.8843 12.6783C17.7383 13.2878 17.6988 13.8979 17.7668 14.4916C17.7746 14.5598 17.7421 14.6074 17.7221 14.6297C17.6869 14.6689 17.6371 14.6913 17.5853 14.6913C17.5795 14.6913 17.5736 14.691 17.5677 14.6905C14.0482 14.3658 10.8745 12.6818 8.63119 9.94902C8.51679 9.80962 8.29742 9.82672 8.20624 9.98204C7.76694 10.7305 7.53478 11.5866 7.53478 12.4577C7.53478 13.7927 8.07485 15.0508 9.01295 15.968C8.61846 15.8751 8.23663 15.7288 7.88195 15.5331C7.71036 15.4385 7.49923 15.5601 7.49682 15.7551C7.47226 17.7383 8.64145 19.503 10.3929 20.2977C10.3577 20.2985 10.3224 20.2989 10.2871 20.2989C10.0094 20.2989 9.72832 20.2723 9.45164 20.2197C9.2584 20.1831 9.09606 20.3651 9.15606 20.5512C9.72456 22.3139 11.2528 23.6131 13.0815 23.9081C11.5638 24.9199 9.79628 25.4537 7.9567 25.4537L7.38321 25.4533C7.20651 25.4533 7.05707 25.5677 7.01204 25.7377C6.96768 25.9051 7.04938 26.0817 7.20006 26.1687C9.27298 27.3668 11.6374 28 14.0389 28C16.1409 28 18.1071 27.5857 19.8831 26.7687C21.5111 26.0198 22.9498 24.9491 24.1592 23.5866C25.2858 22.3173 26.1667 20.852 26.7775 19.2315C27.3597 17.6868 27.6675 16.0386 27.6675 14.465V14.3901C27.6674 14.1374 27.7825 13.8997 27.9833 13.7378C28.7451 13.1236 29.4084 12.4005 29.9549 11.5887C30.0992 11.3744 29.8716 11.1057 29.6342 11.2103Z" fill="white"/>
</svg>
