<svg width="356" height="237" viewBox="0 0 356 237" fill="none" xmlns="http://www.w3.org/2000/svg">
<path d="M302.581 220.543V219.86C302.581 219.106 302.881 218.382 303.415 217.849C303.949 217.316 304.674 217.016 305.429 217.016H329.585C330.34 217.016 331.065 217.316 331.599 217.849C332.133 218.382 332.433 219.106 332.433 219.86V220.543H302.581Z" fill="#E0E0E0"/>
<path d="M316.603 189.946L307.845 216.997H326.509L318.402 189.979C318.342 189.79 318.224 189.624 318.065 189.505C317.905 189.387 317.713 189.321 317.514 189.317C317.315 189.313 317.121 189.372 316.957 189.485C316.794 189.598 316.67 189.759 316.603 189.946Z" fill="#E0E0E0"/>
<path d="M313.74 198.753H321.036L324.193 209.276H310.342L313.74 198.753Z" fill="#FAFAFA"/>
<path d="M126.598 219.936V219.272C126.598 218.518 126.898 217.795 127.432 217.261C127.967 216.728 128.691 216.428 129.446 216.428H153.602C154.357 216.428 155.082 216.728 155.616 217.261C156.15 217.795 156.45 218.518 156.45 219.272V219.936H126.598Z" fill="#E0E0E0"/>
<path d="M140.606 189.358L131.867 216.409H150.531L142.419 189.391C142.363 189.197 142.245 189.025 142.084 188.902C141.923 188.779 141.727 188.711 141.525 188.707C141.322 188.703 141.123 188.765 140.958 188.882C140.793 188.999 140.669 189.166 140.606 189.358Z" fill="#E0E0E0"/>
<path d="M137.758 198.165H145.058L148.215 208.688H134.359L137.758 198.165Z" fill="#FAFAFA"/>
<path d="M128.184 39.8156L125.787 35.6254L122.027 36.18L118.923 32.2837L120.523 28.4064L116.331 25.6288L113.203 28.7809L109.078 28.0604L107.408 23.2256L102.4 23.747L102.115 27.9798L98.3842 29.8758L94.4587 27.0792L90.4525 29.9943L92.5363 34.4736L90.1629 38.0618L85.834 37.8343L84.6995 43.1668L88.8244 44.7499L89.1756 49.234L84.9036 51.6845L86.9447 56.3108L91.3686 55.6282L94.302 59.0031L92.7689 63.2122L96.8178 66.0562L99.979 62.6387L104.37 63.8237L105.732 68.3456L110.607 68.0186L111.238 63.9564L115.415 61.558L118.838 64.2835L123.162 61.065L120.974 57.273L123.105 53.481L127.491 53.8033L128.801 48.8216L125.037 46.7881L124.534 42.2614L128.184 39.8156ZM111.2 54.4243C109.51 55.3931 107.57 55.8397 105.625 55.7075C103.681 55.5753 101.819 54.8703 100.276 53.6816C98.733 52.493 97.5775 50.874 96.9557 49.0296C96.3338 47.1851 96.2737 45.1979 96.7828 43.3193C97.292 41.4406 98.3476 39.755 99.8161 38.4754C101.285 37.1959 103.1 36.3799 105.033 36.1307C106.966 35.8815 108.929 36.2103 110.675 37.0754C112.421 37.9406 113.871 39.3032 114.841 40.9911C116.139 43.253 116.484 45.9368 115.802 48.453C115.119 50.9692 113.464 53.1118 111.2 54.41V54.4243Z" fill="#EBEBEB"/>
<path d="M110.659 43.015C110.407 42.6719 110.136 42.3428 109.847 42.0291C109.027 41.206 107.954 40.6819 106.8 40.5408C105.952 40.4331 105.091 40.5399 104.296 40.8514C103.501 41.1628 102.796 41.6688 102.248 42.323C101.612 43.0954 101.214 44.0357 101.104 45.0295C100.981 46.104 101.205 47.1898 101.744 48.1279C102.283 49.0661 103.108 49.8074 104.099 50.2435C104.566 50.4528 105.062 50.5887 105.571 50.6464C106.057 50.7076 106.55 50.6949 107.033 50.6085C107.932 50.4526 108.774 50.0617 109.472 49.4757C110.082 48.962 110.561 48.3126 110.873 47.5797C111.331 46.5125 111.42 45.3231 111.124 44.2C110.997 43.7926 110.848 43.3923 110.678 43.0008C110.917 43.3609 111.098 43.7559 111.214 44.1716C111.558 45.3158 111.494 46.5433 111.034 47.646C110.697 48.4667 110.157 49.1887 109.464 49.7448C108.772 50.3009 107.95 50.6731 107.075 50.8266C106.57 50.9208 106.053 50.9368 105.542 50.874C105.009 50.8199 104.487 50.679 103.999 50.4568C102.963 50.0059 102.098 49.2363 101.53 48.26C100.962 47.2838 100.722 46.152 100.843 45.0295C100.899 44.4971 101.04 43.9771 101.261 43.489C101.458 43.0175 101.726 42.5782 102.053 42.1855C102.671 41.4627 103.471 40.9178 104.37 40.6071C105.15 40.3402 105.983 40.2607 106.8 40.3749C107.986 40.5368 109.08 41.1007 109.9 41.9722C110.206 42.278 110.462 42.6299 110.659 43.015Z" fill="#EBEBEB"/>
<path d="M115.344 32.0562C115.401 32.0941 114.067 34.2224 112.358 36.7962C110.65 39.37 109.226 41.4509 109.169 41.4177C109.112 41.3845 110.445 39.2515 112.154 36.6777C113.863 34.1039 115.287 32.0183 115.344 32.0562Z" fill="#EBEBEB"/>
<path d="M120.186 49.2956C119.734 49.2092 119.289 49.0871 118.856 48.9306C118.045 48.6841 116.92 48.3571 115.662 48.049C114.404 47.7409 113.255 47.5133 112.42 47.3617C111.964 47.2998 111.514 47.2048 111.072 47.0773C111.533 47.0658 111.995 47.1023 112.448 47.1863C113.549 47.339 114.64 47.5478 115.719 47.812C116.8 48.07 117.867 48.3865 118.913 48.76C119.354 48.8958 119.78 49.0752 120.186 49.2956Z" fill="#EBEBEB"/>
<path d="M108.338 50.4189C108.523 50.7841 108.666 51.1689 108.765 51.566C108.993 52.2912 109.273 53.2961 109.534 54.41C109.795 55.5239 110.009 56.562 110.104 57.3109C110.187 57.7117 110.23 58.1198 110.232 58.5291C110.092 58.1438 109.991 57.7451 109.933 57.3393C109.771 56.6046 109.553 55.5855 109.292 54.4622C109.031 53.3388 108.779 52.3339 108.599 51.6182C108.475 51.2273 108.388 50.8259 108.338 50.4189Z" fill="#EBEBEB"/>
<path d="M103.003 49.8174C102.422 51.0138 101.768 52.1741 101.047 53.2918C100.393 54.4511 99.6706 55.5702 98.8826 56.643C99.4596 55.4429 100.113 54.2808 100.838 53.1638C101.488 52.0036 102.211 50.8858 103.003 49.8174Z" fill="#EBEBEB"/>
<path d="M102.262 33.0376C102.758 34.2299 103.178 35.452 103.52 36.6969C103.939 37.9176 104.28 39.1635 104.541 40.4273C104.044 39.2353 103.624 38.0131 103.283 36.768C102.861 35.5483 102.52 34.3021 102.262 33.0376Z" fill="#EBEBEB"/>
<path d="M101.147 44.6222C100.117 44.646 99.087 44.5889 98.0661 44.4516C97.0395 44.3946 96.0189 44.2567 95.014 44.0392C96.0423 44.0099 97.0712 44.0669 98.0899 44.2099C99.118 44.2676 100.14 44.4055 101.147 44.6222Z" fill="#EBEBEB"/>
<path d="M109.648 43.6076C110.047 44.3038 110.231 45.1026 110.176 45.903C110.12 46.7034 109.829 47.4695 109.337 48.1044C108.846 48.7393 108.178 49.2145 107.416 49.47C106.654 49.7255 105.834 49.7498 105.059 49.5399C104.283 49.3299 103.587 48.8951 103.059 48.2903C102.531 47.6856 102.195 46.9382 102.092 46.1424C101.989 45.3467 102.125 44.5385 102.483 43.8198C102.84 43.1012 103.402 42.5044 104.099 42.105C104.562 41.8395 105.073 41.6678 105.603 41.5997C106.132 41.5315 106.67 41.5683 107.185 41.7078C107.701 41.8474 108.183 42.087 108.606 42.413C109.029 42.7389 109.383 43.1449 109.648 43.6076Z" fill="#EBEBEB"/>
<path d="M108.101 45.6365C107.487 45.251 106.803 44.9901 106.088 44.8686C105.362 44.8325 104.635 44.9421 103.952 45.1909C103.952 45.1625 104.132 44.9966 104.517 44.8401C105.023 44.638 105.57 44.5631 106.112 44.6221C106.654 44.6824 107.173 44.8727 107.626 45.1767C107.963 45.4137 108.124 45.6175 108.101 45.6365Z" fill="#E0E0E0"/>
<path d="M106.472 43.2617C106.221 43.8776 106.017 44.5113 105.86 45.1577C105.783 45.8151 105.754 46.4774 105.775 47.139C105.55 46.4886 105.496 45.7914 105.618 45.1142C105.74 44.4369 106.034 43.8023 106.472 43.2712V43.2617Z" fill="#E0E0E0"/>
<path d="M181.413 124.325L178.308 118.922L173.448 119.638L169.456 114.599L171.526 109.579L166.1 105.986L162.051 110.063L156.721 109.115L154.537 102.858L148.058 103.54L147.688 109.02L142.875 111.48L137.767 107.863L132.584 111.655L135.28 117.433L132.195 122.074L126.589 121.775L125.127 128.681L130.462 130.729L130.937 136.531L125.412 139.702L128.051 145.689L133.775 144.797L137.573 149.168L135.593 154.614L140.815 158.311L144.906 153.893L150.602 155.425L152.368 161.274L158.676 160.852L159.488 155.595L164.899 152.495L169.323 156.022L174.919 151.855L172.071 146.935L174.829 142.001L180.501 142.418L182.243 135.995L177.369 133.36L176.695 127.506L181.413 124.325ZM159.44 143.228C157.254 144.482 154.744 145.06 152.228 144.889C149.712 144.718 147.304 143.806 145.307 142.269C143.31 140.731 141.815 138.637 141.01 136.25C140.205 133.864 140.127 131.293 140.786 128.862C141.444 126.432 142.81 124.251 144.709 122.595C146.609 120.939 148.958 119.883 151.459 119.56C153.959 119.238 156.5 119.663 158.759 120.782C161.018 121.901 162.894 123.663 164.149 125.847C165.832 128.776 166.281 132.252 165.398 135.511C164.515 138.77 162.372 141.546 159.44 143.228Z" fill="#E0E0E0"/>
<path d="M158.743 128.482C158.424 128.032 158.077 127.603 157.703 127.198C156.643 126.123 155.249 125.438 153.749 125.255C152.724 125.122 151.682 125.233 150.707 125.577C149.59 125.975 148.599 126.662 147.835 127.568C146.993 128.57 146.466 129.798 146.321 131.099C146.159 132.496 146.451 133.909 147.152 135.129C147.853 136.348 148.928 137.312 150.218 137.877C150.819 138.151 151.46 138.329 152.116 138.403C152.748 138.481 153.388 138.463 154.015 138.351C154.93 138.19 155.802 137.841 156.574 137.325C157.347 136.81 158.003 136.139 158.501 135.356C159 134.573 159.329 133.694 159.469 132.777C159.609 131.86 159.555 130.923 159.312 130.028C159.148 129.501 158.951 128.985 158.724 128.482C158.746 128.512 158.765 128.544 158.781 128.577L158.937 128.857C159.026 129.009 159.102 129.167 159.165 129.331C159.261 129.549 159.34 129.774 159.403 130.004C159.596 130.633 159.689 131.289 159.678 131.947C159.667 132.916 159.45 133.87 159.041 134.748C158.631 135.626 158.039 136.407 157.305 137.038C156.373 137.834 155.246 138.365 154.039 138.579C153.389 138.701 152.725 138.722 152.069 138.64C151.383 138.568 150.714 138.387 150.085 138.105C148.746 137.519 147.631 136.521 146.904 135.255C146.177 133.99 145.876 132.524 146.045 131.075C146.199 129.729 146.749 128.459 147.626 127.425C148.42 126.494 149.449 125.792 150.607 125.392C151.523 125.076 152.496 124.96 153.46 125.051C154.425 125.143 155.359 125.44 156.199 125.923C156.773 126.245 157.293 126.654 157.741 127.136C157.913 127.306 158.071 127.488 158.216 127.681C158.325 127.818 158.423 127.962 158.51 128.113L158.672 128.392C158.697 128.421 158.721 128.451 158.743 128.482Z" fill="#E0E0E0"/>
<path d="M164.804 114.305C164.866 114.343 163.119 117.087 160.912 120.434C158.705 123.78 156.868 126.468 156.811 126.43C156.754 126.392 158.501 123.648 160.708 120.301C162.915 116.955 164.747 114.267 164.804 114.305Z" fill="#E0E0E0"/>
<path d="M171.07 136.588C170.492 136.45 169.921 136.283 169.361 136.085C168.307 135.758 166.85 135.336 165.227 134.938C163.603 134.54 162.108 134.246 161.026 134.052C160.437 133.969 159.852 133.857 159.274 133.715C159.432 133.691 159.592 133.691 159.749 133.715C160.058 133.739 160.499 133.791 161.05 133.867C162.141 134.019 163.641 134.284 165.279 134.682C166.916 135.081 168.369 135.536 169.408 135.905C169.931 136.09 170.358 136.247 170.628 136.379C170.785 136.426 170.934 136.497 171.07 136.588Z" fill="#E0E0E0"/>
<path d="M155.743 138.062C155.959 138.544 156.135 139.043 156.27 139.555C156.555 140.503 156.915 141.797 157.252 143.247C157.589 144.698 157.846 146.034 157.998 147.001C158.107 147.519 158.171 148.046 158.187 148.575C158.032 148.069 157.912 147.552 157.827 147.03C157.627 146.082 157.352 144.754 157.01 143.304C156.668 141.854 156.341 140.55 156.099 139.602C155.945 139.097 155.826 138.583 155.743 138.062Z" fill="#E0E0E0"/>
<path d="M148.855 137.28C148.912 137.318 147.768 139.323 146.292 141.759C145.442 143.255 144.516 144.707 143.52 146.11C143.463 146.077 144.607 144.072 146.083 141.631C147.56 139.19 148.798 137.247 148.855 137.28Z" fill="#E0E0E0"/>
<path d="M147.878 115.575C147.944 115.575 148.656 117.68 149.472 120.315C150.289 122.951 150.897 125.107 150.825 125.126C150.754 125.145 150.047 123.026 149.235 120.386C148.703 118.806 148.25 117.2 147.878 115.575Z" fill="#E0E0E0"/>
<path d="M146.435 130.563C145.103 130.559 143.773 130.473 142.452 130.307C141.125 130.224 139.804 130.056 138.498 129.805C139.828 129.809 141.156 129.895 142.476 130.061C143.805 130.147 145.127 130.315 146.435 130.563Z" fill="#E0E0E0"/>
<path d="M158.082 132.699C158.56 129.838 156.624 127.132 153.759 126.656C150.894 126.179 148.184 128.112 147.707 130.973C147.229 133.834 149.165 136.54 152.03 137.017C154.895 137.493 157.605 135.56 158.082 132.699Z" fill="#E0E0E0"/>
<path d="M155.434 131.876C155.186 131.747 154.945 131.604 154.713 131.449C154.134 131.121 153.493 130.915 152.831 130.843C152.169 130.771 151.499 130.836 150.863 131.032C150.389 131.179 150.085 131.331 150.066 131.298C150.047 131.265 150.308 131.065 150.806 130.866C151.458 130.614 152.162 130.521 152.857 130.596C153.553 130.671 154.22 130.912 154.803 131.298C155.056 131.439 155.272 131.637 155.434 131.876Z" fill="#EBEBEB"/>
<path d="M153.317 128.8C152.956 129.581 152.678 130.397 152.487 131.236C152.375 132.089 152.351 132.952 152.415 133.81C152.146 132.965 152.088 132.066 152.245 131.193C152.402 130.32 152.77 129.499 153.317 128.8Z" fill="#EBEBEB"/>
<path d="M183.221 32.9856L181.66 30.2695L179.21 30.6298L177.188 28.0939L178.233 25.5675L175.503 23.7568L173.467 25.8092L170.78 25.3352L169.693 22.1831L166.432 22.5291L166.247 25.2831L163.826 26.5439L161.254 24.7285L158.643 26.6245L160.001 29.5443L158.448 31.8764L155.629 31.7295L154.888 35.2039L157.589 36.2135L157.822 39.1333L155.036 40.726L156.369 43.7406L159.246 43.2951L161.145 45.4944L160.148 48.2341L162.787 50.097L164.847 47.8692L167.695 48.6418L168.583 51.5853L171.758 51.372L172.166 48.7271L174.891 47.1676L177.117 48.9404L179.932 46.8453L178.508 44.3663L179.899 41.8873L182.747 42.0958L183.634 38.8679L181.18 37.5407L180.848 34.6019L183.221 32.9856ZM172.162 42.5035C171.061 43.1339 169.797 43.4242 168.531 43.3376C167.265 43.251 166.053 42.7915 165.048 42.0172C164.043 41.2428 163.291 40.1884 162.887 38.9872C162.482 37.786 162.443 36.4919 162.775 35.2687C163.107 34.0454 163.794 32.9479 164.751 32.1148C165.707 31.2817 166.889 30.7505 168.148 30.5883C169.407 30.4261 170.685 30.6403 171.822 31.2036C172.959 31.767 173.903 32.6544 174.535 33.7534C175.383 35.2268 175.611 36.9764 175.168 38.6173C174.724 40.2583 173.646 41.6562 172.171 42.5035H172.162Z" fill="#F5F5F5"/>
<path d="M171.829 35.0756C171.672 34.8465 171.497 34.6295 171.307 34.4262C170.772 33.888 170.072 33.5442 169.318 33.4498C168.801 33.383 168.276 33.4398 167.785 33.6157C167.23 33.8167 166.738 34.162 166.361 34.6158C165.937 35.1199 165.673 35.7387 165.602 36.3933C165.521 37.0967 165.667 37.8076 166.019 38.422C166.365 39.0322 166.893 39.5194 167.529 39.8156C167.83 39.9515 168.15 40.0394 168.478 40.0763C168.794 40.1174 169.114 40.1094 169.428 40.0526C170.016 39.9522 170.567 39.6952 171.022 39.3084C171.421 38.9751 171.734 38.5508 171.934 38.0713C172.236 37.3742 172.291 36.5951 172.09 35.8624C172.021 35.5946 171.934 35.3318 171.829 35.0756L171.858 35.123L171.939 35.2652C171.982 35.3415 172.02 35.4207 172.052 35.5022C172.1 35.6114 172.14 35.7239 172.171 35.8387C172.267 36.1551 172.314 36.4845 172.309 36.8152C172.307 37.2544 172.22 37.6891 172.052 38.095C171.842 38.592 171.517 39.0322 171.103 39.3795C170.634 39.7824 170.065 40.0525 169.456 40.1616C169.129 40.2234 168.794 40.233 168.464 40.1901C168.119 40.156 167.782 40.0647 167.467 39.9199C166.794 39.6287 166.232 39.1305 165.863 38.4979C165.501 37.859 165.35 37.1227 165.431 36.3933C165.507 35.7147 165.785 35.0743 166.228 34.5542C166.628 34.0858 167.146 33.7323 167.728 33.5304C168.19 33.3739 168.679 33.3167 169.164 33.3625C169.649 33.4082 170.119 33.5559 170.543 33.7958C170.843 33.9539 171.116 34.1569 171.355 34.3978C171.44 34.4828 171.517 34.5748 171.587 34.6727C171.643 34.7404 171.693 34.8135 171.734 34.8907L171.82 35.0329C171.825 35.0467 171.828 35.061 171.829 35.0756Z" fill="#F5F5F5"/>
<path d="M174.872 27.9658C174.9 27.9658 174.022 29.3878 172.912 31.0515C171.801 32.7153 170.88 34.0899 170.847 34.0709C170.814 34.052 171.696 32.6489 172.807 30.9852C173.918 29.3214 174.843 27.9231 174.872 27.9658Z" fill="#F5F5F5"/>
<path d="M178.024 39.1618C177.733 39.0909 177.447 39.0054 177.165 38.9058C176.638 38.7447 175.902 38.5314 175.081 38.3275C174.26 38.1237 173.514 37.9815 172.969 37.8867C172.672 37.8463 172.379 37.7878 172.09 37.7113C172.169 37.703 172.249 37.703 172.328 37.7113C172.484 37.7113 172.707 37.7493 172.983 37.7872C173.533 37.863 174.288 38.0005 175.114 38.1996C175.94 38.3986 176.671 38.6309 177.193 38.8158C177.454 38.9058 177.668 38.9864 177.805 39.048C177.884 39.0734 177.958 39.1119 178.024 39.1618Z" fill="#F5F5F5"/>
<path d="M170.31 39.9009C170.419 40.1445 170.508 40.3966 170.576 40.6545C170.719 41.1285 170.899 41.7827 171.051 42.5126C171.203 43.2426 171.35 43.9346 171.426 44.4086C171.484 44.6703 171.515 44.937 171.521 45.2049C171.442 44.9504 171.382 44.6906 171.34 44.4276C171.241 43.9536 171.098 43.2805 170.932 42.5316C170.766 41.7827 170.595 41.1428 170.458 40.6688C170.39 40.4168 170.34 40.1601 170.31 39.9009Z" fill="#F5F5F5"/>
<path d="M166.845 39.5075C166.874 39.5075 166.295 40.5361 165.554 41.7637C164.814 42.9914 164.187 43.9726 164.159 43.9536C164.13 43.9346 164.709 42.925 165.45 41.7116C166.19 40.4981 166.812 39.4933 166.845 39.5075Z" fill="#F5F5F5"/>
<path d="M166.352 28.582C166.385 28.582 166.741 29.6438 167.154 30.952C167.567 32.2603 167.871 33.3647 167.837 33.3742C167.53 32.5982 167.262 31.8072 167.035 31.0042C166.766 30.2089 166.538 29.4005 166.352 28.582Z" fill="#F5F5F5"/>
<path d="M165.625 36.1281C164.956 36.1259 164.287 36.0831 163.622 36.0001C162.953 35.9597 162.287 35.8742 161.629 35.7441C162.299 35.7466 162.968 35.791 163.632 35.8769C164.301 35.9196 164.967 36.0035 165.625 36.1281Z" fill="#F5F5F5"/>
<path d="M171.17 35.4551C171.429 35.9081 171.549 36.4278 171.513 36.9485C171.477 37.4693 171.288 37.9677 170.968 38.3809C170.649 38.7941 170.214 39.1034 169.718 39.2698C169.223 39.4362 168.689 39.4523 168.185 39.3159C167.68 39.1795 167.227 38.8968 166.883 38.5035C166.54 38.1103 166.32 37.6241 166.253 37.1064C166.186 36.5888 166.274 36.0629 166.506 35.5951C166.738 35.1274 167.104 34.7389 167.557 34.4787C167.858 34.305 168.191 34.1925 168.536 34.1476C168.881 34.1027 169.231 34.1263 169.567 34.217C169.902 34.3078 170.217 34.4639 170.492 34.6763C170.767 34.8888 170.997 35.1535 171.17 35.4551Z" fill="#F5F5F5"/>
<path d="M170.154 36.7871C170.154 36.7871 170.016 36.6971 169.793 36.5738C169.499 36.4131 169.177 36.3101 168.844 36.2705C168.51 36.2357 168.173 36.2679 167.852 36.3653C167.605 36.4364 167.462 36.5122 167.453 36.498C167.556 36.3956 167.683 36.3207 167.823 36.28C168.152 36.1545 168.506 36.1088 168.856 36.1467C169.206 36.1846 169.542 36.305 169.836 36.498C169.962 36.5688 170.071 36.6677 170.154 36.7871Z" fill="#EBEBEB"/>
<path d="M169.095 35.2417C168.914 35.634 168.774 36.0438 168.678 36.4646C168.62 36.8951 168.608 37.3303 168.64 37.7634C168.487 37.3411 168.457 36.8841 168.554 36.4457C168.613 36.0002 168.801 35.5816 169.095 35.2417Z" fill="#EBEBEB"/>
<path d="M117.205 99.9378L113.27 93.0932L107.099 93.9986L102.011 87.6138L104.631 81.2575L97.7813 76.7023L92.6502 81.8689L85.8957 80.6839L83.1521 72.7539L74.9451 73.6166L74.4704 80.5559L68.352 83.6606L61.8775 79.0818L55.3081 83.8597L58.721 91.2067L54.8097 97.0843L47.6897 96.7099L45.8528 105.46L52.612 108.072L53.1911 115.423L46.1898 119.448L49.5125 127.032L56.7654 125.908L61.569 131.445L59.0533 138.346L65.6986 143.029L70.882 137.426L78.0732 139.37L80.3136 146.783L88.307 146.248L89.337 139.588L96.1912 135.658L101.797 140.128L108.889 134.848L105.305 128.615L108.798 122.363L115.985 122.894L118.216 114.708L112.045 111.39L111.224 103.976L117.205 99.9378ZM89.3607 123.889C86.5922 125.472 83.4159 126.2 80.2331 125.982C77.0503 125.763 74.0039 124.607 71.4786 122.66C68.9534 120.713 67.0626 118.063 66.0452 115.043C65.0278 112.024 64.9294 108.771 65.7624 105.695C66.5954 102.62 68.3225 99.8604 70.7255 97.7649C73.1284 95.6693 76.0995 94.3319 79.2632 93.9217C82.427 93.5115 85.6415 94.0469 88.5007 95.4602C91.3599 96.8735 93.7354 99.1013 95.3273 101.862C96.3864 103.699 97.0722 105.727 97.3455 107.829C97.6188 109.93 97.4742 112.066 96.92 114.112C96.3657 116.158 95.4128 118.075 94.1156 119.752C92.8185 121.43 91.2027 122.836 89.3607 123.889Z" fill="#F5F5F5"/>
<path d="M88.4731 105.228C88.0725 104.655 87.6332 104.11 87.1583 103.597C85.8126 102.239 84.0491 101.371 82.1506 101.133C80.7544 100.955 79.3361 101.131 78.0256 101.644C76.7152 102.156 75.5548 102.989 74.6508 104.067C74.1255 104.68 73.698 105.371 73.3835 106.114C73.0361 106.883 72.8165 107.702 72.7332 108.541C72.5295 110.312 72.8989 112.101 73.7872 113.646C74.6755 115.192 76.0361 116.413 77.6697 117.13C78.4374 117.48 79.2563 117.704 80.0953 117.794C80.8989 117.899 81.7141 117.879 82.5113 117.732C83.6747 117.531 84.7832 117.09 85.7656 116.436C86.748 115.783 87.5827 114.931 88.2161 113.936C88.8494 112.941 89.2675 111.825 89.4434 110.659C89.6192 109.493 89.5491 108.304 89.2374 107.167C89.0368 106.497 88.7877 105.843 88.4921 105.209C88.4921 105.209 88.5206 105.247 88.5681 105.323C88.6155 105.399 88.6867 105.536 88.7674 105.678C88.8778 105.871 88.9731 106.073 89.0522 106.28C89.176 106.556 89.2776 106.841 89.356 107.133C89.5988 107.929 89.7157 108.757 89.7025 109.589C89.6926 110.815 89.4206 112.024 88.9049 113.137C88.3892 114.249 87.6416 115.239 86.7121 116.04C85.5336 117.049 84.1061 117.725 82.5778 117.998C80.8841 118.295 79.14 118.086 77.5653 117.396C75.8698 116.654 74.4575 115.388 73.5364 113.785C72.6152 112.181 72.2339 110.325 72.4484 108.489C72.6417 106.783 73.339 105.172 74.4515 103.863C75.7548 102.33 77.5546 101.301 79.5384 100.954C81.5223 100.608 83.5649 100.966 85.3119 101.967C86.0383 102.376 86.6965 102.896 87.2627 103.507C87.4633 103.719 87.6473 103.946 87.8134 104.185C87.9532 104.358 88.0786 104.542 88.1883 104.735C88.2738 104.872 88.3402 104.991 88.3972 105.086C88.4291 105.129 88.4547 105.177 88.4731 105.228Z" fill="#F5F5F5"/>
<path d="M96.158 87.2394C96.2292 87.2868 94.022 90.7659 91.2262 95.0082C88.4304 99.2505 86.0998 102.654 86.0286 102.592C85.9574 102.531 88.1646 99.0704 90.9651 94.8234C93.7657 90.5763 96.0868 87.2157 96.158 87.2394Z" fill="#F5F5F5"/>
<path d="M104.094 115.476C103.362 115.305 102.639 115.093 101.93 114.841C100.596 114.428 98.7496 113.893 96.7085 113.385C94.6675 112.878 92.7546 112.513 91.3875 112.267C90.6409 112.166 89.9008 112.022 89.1708 111.835C89.3725 111.809 89.5767 111.809 89.7784 111.835C90.1676 111.869 90.7277 111.935 91.4208 112.03C92.8068 112.219 94.7102 112.561 96.7797 113.063C98.8493 113.566 100.7 114.144 102.001 114.613C102.661 114.845 103.188 115.044 103.548 115.196C103.742 115.264 103.926 115.358 104.094 115.476Z" fill="#F5F5F5"/>
<path d="M84.671 117.343C84.9505 117.954 85.1745 118.589 85.3403 119.239C85.701 120.424 86.1567 122.083 86.5887 123.918C87.0206 125.752 87.3339 127.449 87.538 128.658C87.6751 129.315 87.7545 129.982 87.7753 130.653C87.5725 130.014 87.4139 129.361 87.3007 128.7C87.0491 127.487 86.6931 125.814 86.2659 123.96C85.8387 122.107 85.421 120.467 85.1125 119.268C84.9212 118.637 84.7737 117.994 84.671 117.343Z" fill="#F5F5F5"/>
<path d="M75.9467 116.357C76.0179 116.4 74.5654 118.94 72.7 122.045C70.8345 125.15 69.2634 127.605 69.1874 127.562C69.1115 127.52 70.564 124.974 72.4341 121.874C74.3043 118.775 75.8707 116.31 75.9467 116.357Z" fill="#F5F5F5"/>
<path d="M74.7077 88.8511C74.7884 88.8511 75.695 91.515 76.7251 94.8614C77.7551 98.2078 78.5288 100.938 78.4434 100.962C78.3579 100.985 77.4561 98.2979 76.426 94.9515C75.396 91.605 74.6223 88.8748 74.7077 88.8511Z" fill="#F5F5F5"/>
<path d="M72.8803 107.844C72.8803 107.93 70.6114 107.783 67.8346 107.517C65.0578 107.252 62.8126 106.972 62.8221 106.882C62.8316 106.792 65.0863 106.944 67.8631 107.209C70.6399 107.475 72.885 107.759 72.8803 107.844Z" fill="#F5F5F5"/>
<path d="M87.4616 111.294C88.4829 107.763 86.4443 104.074 82.9082 103.054C79.3721 102.034 75.6777 104.07 74.6564 107.601C73.6351 111.132 75.6737 114.821 79.2097 115.841C82.7458 116.861 86.4403 114.825 87.4616 111.294Z" fill="#F5F5F5"/>
<path d="M84.2818 109.494C83.9672 109.33 83.6614 109.149 83.3657 108.953C82.6334 108.543 81.8266 108.282 80.9923 108.185C80.1526 108.1 79.3041 108.18 78.4956 108.422C78.1654 108.554 77.8278 108.667 77.4846 108.759C77.7532 108.505 78.0786 108.318 78.4339 108.214C79.2616 107.896 80.1532 107.779 81.0351 107.873C81.9158 107.969 82.7607 108.274 83.4986 108.764C83.8126 108.943 84.0806 109.193 84.2818 109.494Z" fill="#EBEBEB"/>
<path d="M81.6094 105.607C81.6996 105.659 80.8689 106.915 80.5604 108.697C80.2519 110.48 80.5604 111.94 80.4702 111.958C80.38 111.977 79.9101 110.499 80.2519 108.64C80.5936 106.782 81.5619 105.55 81.6094 105.607Z" fill="#EBEBEB"/>
<path d="M299.173 95.7903L295.243 88.9457L289.072 89.8511L283.984 83.4663L286.608 77.1052L279.735 72.5548L274.604 77.7356L267.85 76.5554L265.111 68.6206L256.899 69.488L256.424 76.4274L250.306 79.5321L243.831 74.9532L237.262 79.7312L240.675 87.0734L236.768 92.9558L229.648 92.5813L227.84 101.308L234.594 103.905L235.178 111.257L228.172 115.272L231.495 122.856L238.757 121.732L243.561 127.273L241.05 134.17L247.695 138.858L252.879 133.255L260.075 135.199L262.31 142.612L270.304 142.072L271.334 135.436L278.188 131.506L283.798 135.971L290.885 130.696L287.301 124.458L290.795 118.21L297.986 118.737L300.193 110.598L294.023 107.28L293.202 99.8619L299.173 95.7903ZM271.324 119.741C268.556 121.325 265.379 122.053 262.197 121.834C259.014 121.615 255.967 120.459 253.442 118.513C250.917 116.566 249.026 113.915 248.009 110.896C246.991 107.876 246.893 104.623 247.726 101.548C248.559 98.4727 250.286 95.7129 252.689 93.6173C255.092 91.5218 258.063 90.1844 261.227 89.7742C264.39 89.364 267.605 89.8994 270.464 91.3127C273.323 92.726 275.699 94.9538 277.291 97.7147C278.35 99.5516 279.036 101.579 279.309 103.681C279.582 105.783 279.438 107.918 278.883 109.964C278.329 112.01 277.376 113.927 276.079 115.605C274.782 117.282 273.166 118.688 271.324 119.741Z" fill="#F5F5F5"/>
<path d="M270.437 101.061C270.038 100.487 269.599 99.942 269.122 99.4306C268.298 98.5894 267.306 97.9297 266.212 97.4941C265.117 97.0584 263.943 96.8564 262.765 96.9011C261.588 96.9457 260.432 97.236 259.374 97.7533C258.315 98.2706 257.377 99.0034 256.619 99.9046C255.559 101.177 254.898 102.733 254.72 104.379C254.518 106.147 254.887 107.933 255.772 109.477C256.657 111.021 258.014 112.243 259.643 112.963C260.411 113.312 261.229 113.536 262.068 113.627C262.87 113.728 263.683 113.707 264.48 113.565C265.866 113.327 267.171 112.745 268.275 111.873C269.379 111.001 270.246 109.867 270.797 108.574C271.55 106.818 271.689 104.859 271.191 103.014C270.989 102.346 270.738 101.693 270.441 101.061C270.441 101.061 270.475 101.094 270.517 101.175L270.717 101.53C270.829 101.721 270.924 101.921 271.001 102.128C271.124 102.404 271.227 102.69 271.31 102.981C271.55 103.778 271.667 104.608 271.656 105.441C271.647 106.667 271.375 107.876 270.859 108.989C270.343 110.101 269.596 111.091 268.666 111.892C267.486 112.901 266.057 113.577 264.527 113.85C262.834 114.149 261.091 113.937 259.519 113.243C257.821 112.504 256.407 111.239 255.485 109.635C254.562 108.031 254.181 106.173 254.398 104.336C254.592 102.632 255.289 101.023 256.401 99.715C257.411 98.5288 258.723 97.6364 260.198 97.1317C261.359 96.7356 262.592 96.5907 263.814 96.7068C265.036 96.8228 266.219 97.1971 267.285 97.8048C268.01 98.2153 268.668 98.7348 269.236 99.3453C269.447 99.5617 269.642 99.7929 269.82 100.037C269.958 100.209 270.083 100.392 270.194 100.582L270.399 100.933C270.422 101.014 270.441 101.056 270.437 101.061Z" fill="#F5F5F5"/>
<path d="M278.126 83.0918C278.197 83.1392 275.99 86.6184 273.19 90.8607C270.389 95.103 268.068 98.5063 267.997 98.4447C267.926 98.383 270.133 94.9181 272.929 90.6758C275.724 86.4335 278.05 83.0444 278.126 83.0918Z" fill="#F5F5F5"/>
<path d="M286.063 111.328C285.329 111.155 284.605 110.943 283.893 110.693C282.564 110.281 280.718 109.745 278.672 109.238C276.626 108.731 274.723 108.366 273.351 108.119C272.605 108.015 271.865 107.871 271.134 107.688C271.336 107.659 271.54 107.659 271.742 107.688C272.131 107.721 272.691 107.783 273.384 107.882C275.188 108.136 276.979 108.481 278.748 108.915C280.818 109.423 282.664 109.996 283.969 110.461C284.624 110.693 285.156 110.897 285.517 111.048C285.71 111.118 285.894 111.212 286.063 111.328Z" fill="#F5F5F5"/>
<path d="M266.639 113.196C266.917 113.807 267.139 114.441 267.304 115.092C267.669 116.277 268.125 117.936 268.552 119.77C268.979 121.605 269.302 123.301 269.501 124.51C269.638 125.167 269.719 125.835 269.744 126.506C269.539 125.865 269.38 125.211 269.269 124.548C269.017 123.339 268.666 121.666 268.239 119.808C267.812 117.95 267.389 116.315 267.081 115.116C266.889 114.487 266.742 113.845 266.639 113.196Z" fill="#F5F5F5"/>
<path d="M257.91 112.205C257.986 112.253 256.534 114.793 254.668 117.893C252.803 120.993 251.227 123.453 251.151 123.406C251.075 123.358 252.532 120.822 254.398 117.718C256.263 114.613 257.839 112.162 257.91 112.205Z" fill="#F5F5F5"/>
<path d="M256.671 84.7033C256.757 84.6749 257.659 87.3672 258.689 90.7137C259.719 94.0601 260.492 96.7903 260.412 96.814C260.331 96.8377 259.424 94.1502 258.39 90.8037C257.355 87.4573 256.591 84.727 256.671 84.7033Z" fill="#F5F5F5"/>
<path d="M254.844 103.692C254.844 103.782 252.575 103.635 249.798 103.37C247.021 103.104 244.776 102.82 244.786 102.735C244.795 102.649 247.054 102.796 249.831 103.057C252.608 103.318 254.853 103.607 254.844 103.692Z" fill="#F5F5F5"/>
<path d="M269.458 107.072C270.431 103.527 268.343 99.8659 264.794 98.8936C261.244 97.9213 257.578 100.006 256.604 103.551C255.63 107.095 257.718 110.757 261.268 111.729C264.817 112.702 268.484 110.616 269.458 107.072Z" fill="#F5F5F5"/>
<path d="M266.245 105.361C265.932 105.195 265.628 105.013 265.334 104.816C264.6 104.41 263.794 104.149 262.961 104.048C262.122 103.963 261.275 104.045 260.469 104.289C260.139 104.42 259.801 104.531 259.458 104.621C259.728 104.37 260.053 104.185 260.407 104.081C261.234 103.761 262.125 103.644 263.006 103.74C263.888 103.836 264.733 104.141 265.472 104.631C266.008 105.005 266.288 105.332 266.245 105.361Z" fill="#EBEBEB"/>
<path d="M263.578 101.459C263.663 101.507 262.837 102.763 262.524 104.545C262.211 106.327 262.524 107.792 262.434 107.806C262.344 107.821 261.874 106.351 262.22 104.488C262.567 102.625 263.525 101.403 263.578 101.459Z" fill="#EBEBEB"/>
<path d="M226.511 138.104L224.579 134.739L221.546 135.18L219.044 132.042L220.335 128.918L216.956 126.676L214.435 129.217L211.113 128.634L209.765 124.733L205.725 125.16L205.497 128.572L202.488 130.099L199.303 127.847L196.075 130.217L197.756 133.829L195.833 136.72L192.34 136.536L191.428 140.835L194.751 142.114L195.036 145.726L191.59 147.703L193.237 151.433L196.801 150.879L199.175 153.604L197.941 156.998L201.206 159.302L203.755 156.548L207.292 157.496L208.393 161.141L212.323 160.875L212.831 157.605L216.201 155.671L218.959 157.87L222.443 155.273L220.682 152.206L222.4 149.134L225.937 149.39L227.019 145.39L223.986 143.75L223.582 140.1L226.511 138.104ZM212.821 149.883C211.459 150.665 209.894 151.026 208.326 150.919C206.758 150.813 205.257 150.245 204.012 149.287C202.768 148.329 201.835 147.023 201.334 145.536C200.832 144.049 200.783 142.446 201.193 140.931C201.604 139.416 202.455 138.057 203.639 137.025C204.823 135.993 206.287 135.335 207.846 135.134C209.404 134.932 210.988 135.197 212.396 135.895C213.803 136.593 214.972 137.691 215.755 139.052C216.804 140.877 217.084 143.043 216.534 145.074C215.984 147.106 214.649 148.835 212.821 149.883Z" fill="#F5F5F5"/>
<path d="M212.385 140.697C212.19 140.413 211.974 140.144 211.739 139.892C211.078 139.223 210.21 138.798 209.276 138.683C208.591 138.594 207.895 138.678 207.251 138.926C206.607 139.175 206.035 139.58 205.588 140.105C205.329 140.407 205.119 140.748 204.966 141.115C204.795 141.491 204.686 141.893 204.643 142.304C204.544 143.175 204.727 144.054 205.164 144.814C205.601 145.574 206.27 146.174 207.073 146.528C207.818 146.857 208.643 146.961 209.447 146.826C210.175 146.699 210.856 146.382 211.421 145.907C212.022 145.393 212.466 144.719 212.7 143.965C212.934 143.21 212.95 142.404 212.746 141.641C212.646 141.317 212.524 141 212.38 140.693C212.38 140.693 212.38 140.693 212.418 140.745L212.513 140.92C212.569 141.016 212.616 141.115 212.655 141.219C212.715 141.354 212.766 141.494 212.807 141.636C212.925 142.028 212.981 142.436 212.973 142.845C212.973 143.388 212.865 143.926 212.655 144.428C212.404 145.04 212.01 145.584 211.507 146.016C210.925 146.507 210.222 146.835 209.47 146.964C209.066 147.038 208.654 147.051 208.246 147.002C207.817 146.959 207.398 146.845 207.007 146.665C206.172 146.303 205.477 145.681 205.024 144.893C204.571 144.105 204.384 143.192 204.491 142.29C204.584 141.451 204.926 140.658 205.474 140.015C205.968 139.434 206.609 138.996 207.33 138.745C207.957 138.528 208.628 138.463 209.285 138.555C209.825 138.63 210.345 138.806 210.818 139.076C211.171 139.279 211.491 139.533 211.768 139.83C211.871 139.937 211.966 140.051 212.053 140.171C212.121 140.257 212.182 140.347 212.238 140.441L212.342 140.617L212.385 140.697Z" fill="#F5F5F5"/>
<path d="M216.163 131.857C216.201 131.881 215.114 133.592 213.738 135.678C212.361 137.763 211.217 139.441 211.184 139.417C211.151 139.394 212.233 137.683 213.61 135.597C214.986 133.511 216.13 131.838 216.163 131.857Z" fill="#F5F5F5"/>
<path d="M220.065 145.745C220.065 145.745 219.657 145.631 219.002 145.432C218.347 145.233 217.44 144.958 216.424 144.717C215.408 144.475 214.483 144.285 213.809 144.167C213.441 144.116 213.077 144.045 212.717 143.953C212.816 143.942 212.917 143.942 213.016 143.953C213.206 143.953 213.491 144.001 213.823 144.048C214.507 144.143 215.442 144.309 216.462 144.555C217.483 144.802 218.389 145.086 219.035 145.319C219.358 145.432 219.619 145.532 219.794 145.603C219.891 145.637 219.982 145.685 220.065 145.745Z" fill="#F5F5F5"/>
<path d="M210.515 146.66C210.652 146.966 210.762 147.283 210.842 147.608C211.023 148.191 211.246 149.002 211.459 149.912C211.673 150.822 211.825 151.647 211.934 152.249C212.002 152.572 212.042 152.9 212.053 153.23C211.958 152.919 211.884 152.602 211.829 152.282C211.706 151.685 211.53 150.86 211.322 149.959C211.113 149.059 210.904 148.239 210.752 147.651C210.65 147.327 210.57 146.996 210.515 146.66Z" fill="#F5F5F5"/>
<path d="M206.224 146.177C206.262 146.2 205.545 147.447 204.629 148.969C203.713 150.49 202.939 151.699 202.901 151.68C202.863 151.661 203.58 150.41 204.496 148.888C205.026 147.956 205.602 147.051 206.224 146.177Z" fill="#F5F5F5"/>
<path d="M205.616 132.653C205.654 132.653 206.091 133.962 206.608 135.606C206.941 136.591 207.223 137.593 207.453 138.607C207.073 137.64 206.741 136.654 206.461 135.654C206.129 134.668 205.847 133.667 205.616 132.653Z" fill="#F5F5F5"/>
<path d="M204.714 141.991C203.057 141.934 201.406 141.776 199.768 141.517C200.598 141.519 201.427 141.572 202.251 141.678C203.078 141.73 203.901 141.834 204.714 141.991Z" fill="#F5F5F5"/>
<path d="M211.861 143.79C212.414 142.07 211.467 140.228 209.745 139.675C208.023 139.123 206.178 140.069 205.624 141.788C205.071 143.508 206.018 145.35 207.74 145.903C209.462 146.456 211.307 145.51 211.861 143.79Z" fill="#F5F5F5"/>
<path d="M210.325 142.811C210.325 142.811 210.154 142.698 209.85 142.541C209.487 142.343 209.089 142.216 208.678 142.167C208.266 142.124 207.849 142.164 207.453 142.285C207.29 142.349 207.124 142.402 206.955 142.446C207.09 142.322 207.252 142.231 207.429 142.181C207.836 142.022 208.275 141.963 208.709 142.01C209.142 142.057 209.559 142.209 209.921 142.451C210.083 142.537 210.221 142.661 210.325 142.811Z" fill="#EBEBEB"/>
<path d="M209.01 140.892C208.511 141.851 208.316 142.938 208.45 144.011C208.255 143.491 208.217 142.926 208.341 142.385C208.415 141.833 208.648 141.315 209.01 140.892Z" fill="#EBEBEB"/>
<path d="M249.584 43.3708L246.48 37.9672L241.605 38.6829L237.599 33.6538L239.669 28.6341L234.248 25.0317L230.213 29.1081L224.883 28.1601L222.718 21.9033L216.239 22.5859L215.874 28.0606L211.032 30.5254L205.92 26.9088L200.737 30.7008L203.428 36.4978L200.347 41.1382L194.741 40.8396L193.275 47.7458L198.61 49.7698L199.085 55.5715L193.555 58.7426L196.199 64.7292L201.918 63.8381L205.716 68.2084L203.732 73.6546L208.977 77.3518L213.064 72.9342L218.76 74.4652L220.525 80.3143L226.834 79.8925L227.65 74.6358L233.057 71.5359L237.48 75.0624L243.029 70.9007L240.181 65.9806L242.939 61.0462L248.635 61.4634L250.377 55.0407L245.507 52.4052L244.857 46.5561L249.584 43.3708ZM227.612 62.2739C225.425 63.5285 222.914 64.1071 220.397 63.9366C217.88 63.7661 215.47 62.8541 213.473 61.316C211.475 59.7779 209.979 57.6827 209.173 55.2955C208.368 52.9082 208.29 50.3361 208.948 47.9044C209.607 45.4726 210.973 43.2906 212.873 41.6341C214.774 39.9776 217.123 38.921 219.625 38.5981C222.127 38.2752 224.669 38.7004 226.928 39.8199C229.188 40.9394 231.065 42.703 232.321 44.8876C234.005 47.8167 234.455 51.294 233.572 54.5545C232.689 57.815 230.545 60.5917 227.612 62.2739Z" fill="#E0E0E0"/>
<path d="M226.891 47.5279C226.574 47.0763 226.227 46.6471 225.851 46.2433C224.793 45.1684 223.4 44.4834 221.902 44.2999C220.876 44.1674 219.834 44.2779 218.859 44.6222C217.741 45.0193 216.748 45.7064 215.983 46.613C215.14 47.6153 214.614 48.8439 214.469 50.1443C214.307 51.5418 214.599 52.954 215.3 54.174C216.001 55.3939 217.076 56.3572 218.366 56.9225C218.967 57.196 219.608 57.3735 220.264 57.4487C220.896 57.5257 221.536 57.5082 222.163 57.3965C223.257 57.2085 224.286 56.7499 225.156 56.0627C226.027 55.3755 226.711 54.4815 227.147 53.4623C227.74 52.0753 227.849 50.5293 227.455 49.0731C227.296 48.5448 227.099 48.0284 226.867 47.5279C226.892 47.5563 226.913 47.5882 226.929 47.6227L227.085 47.9023C227.174 48.0534 227.248 48.212 227.308 48.3763C227.406 48.5943 227.487 48.8193 227.55 49.0494C227.739 49.6797 227.832 50.3349 227.826 50.9928C227.814 52.5814 227.245 54.1155 226.217 55.3281C225.189 56.5407 223.768 57.3548 222.201 57.6288C221.552 57.7517 220.887 57.7724 220.231 57.6904C219.545 57.6194 218.875 57.4386 218.247 57.1548C216.907 56.571 215.791 55.5726 215.063 54.3069C214.334 53.0412 214.033 51.5752 214.203 50.1254C214.277 49.441 214.458 48.7725 214.739 48.1441C215.012 47.5261 215.38 46.955 215.831 46.4519C216.629 45.5235 217.661 44.8262 218.821 44.4326C219.826 44.0838 220.9 43.9782 221.954 44.1245C222.821 44.2436 223.657 44.5268 224.418 44.9588C224.984 45.286 225.498 45.6967 225.941 46.177C226.114 46.3453 226.273 46.5277 226.416 46.7221C226.526 46.8572 226.625 47.0015 226.71 47.1534L226.876 47.4331C226.885 47.464 226.889 47.4958 226.891 47.5279Z" fill="#E0E0E0"/>
<path d="M232.976 33.3505C233.033 33.3884 231.291 36.1329 229.084 39.4793C226.876 42.8258 225.039 45.5039 224.992 45.4754C224.945 45.447 226.677 42.693 228.884 39.3466C231.091 36.0002 232.919 33.3126 232.976 33.3505Z" fill="#E0E0E0"/>
<path d="M239.232 55.633C238.654 55.4948 238.084 55.3271 237.523 55.1305C236.474 54.8035 235.017 54.3816 233.389 53.9834C231.761 53.5853 230.27 53.2914 229.188 53.0971C228.6 53.0146 228.017 52.9022 227.441 52.7605C227.599 52.7361 227.759 52.7361 227.916 52.7605C228.224 52.7605 228.666 52.8364 229.212 52.9122C230.304 53.0639 231.808 53.3293 233.441 53.7275C234.839 54.0659 236.219 54.4741 237.575 54.9504C238.093 55.1353 238.525 55.2917 238.795 55.4244C238.951 55.4706 239.098 55.541 239.232 55.633Z" fill="#E0E0E0"/>
<path d="M223.91 57.1025C224.13 57.5849 224.307 58.0862 224.437 58.6004C224.721 59.5484 225.082 60.8424 225.424 62.2928C225.766 63.7433 226.013 65.08 226.169 66.0469C226.279 66.5647 226.341 67.0915 226.354 67.6206C226.199 67.1143 226.078 66.598 225.994 66.0754C225.799 65.1274 225.519 63.8002 225.182 62.3497C224.845 60.8993 224.513 59.5958 224.266 58.6478C224.111 58.1417 223.992 57.6253 223.91 57.1025Z" fill="#E0E0E0"/>
<path d="M217.022 56.3251C217.084 56.363 215.935 58.3681 214.464 60.8044C212.992 63.2408 211.749 65.1937 211.692 65.1557C211.635 65.1178 212.779 63.1175 214.25 60.6764C215.722 58.2353 216.965 56.2919 217.022 56.3251Z" fill="#E0E0E0"/>
<path d="M216.045 34.6016C216.111 34.6016 216.823 36.7061 217.639 39.3416C218.456 41.977 219.063 44.1384 218.997 44.1574C218.386 42.605 217.854 41.023 217.402 39.4174C216.59 36.7962 215.973 34.6395 216.045 34.6016Z" fill="#E0E0E0"/>
<path d="M214.602 49.6085C211.943 49.52 209.292 49.2667 206.665 48.8501C207.997 48.8546 209.326 48.9401 210.648 49.1061C211.975 49.192 213.295 49.3598 214.602 49.6085Z" fill="#E0E0E0"/>
<path d="M221.848 55.7082C224.637 54.925 226.262 52.0328 225.477 49.2483C224.693 46.4638 221.797 44.8413 219.008 45.6245C216.22 46.4076 214.595 49.2998 215.379 52.0843C216.164 54.8689 219.06 56.4913 221.848 55.7082Z" fill="#E0E0E0"/>
<path d="M223.601 50.9214C223.577 50.9498 223.326 50.7413 222.88 50.4948C222.301 50.1661 221.66 49.9595 220.998 49.8878C220.336 49.816 219.666 49.8806 219.03 50.0777C218.555 50.2246 218.252 50.3763 218.233 50.3431C218.44 50.1409 218.695 49.9928 218.973 49.9118C219.625 49.6591 220.329 49.5664 221.024 49.6415C221.72 49.7165 222.387 49.9572 222.97 50.3431C223.411 50.6417 223.625 50.9024 223.601 50.9214Z" fill="#EBEBEB"/>
<path d="M221.494 47.8452C221.138 48.6278 220.861 49.444 220.668 50.2816C220.556 51.1348 220.531 51.9971 220.592 52.8554C220.323 52.01 220.264 51.1118 220.421 50.2387C220.578 49.3656 220.946 48.544 221.494 47.8452Z" fill="#EBEBEB"/>
<path d="M153.792 53.7136L152.985 52.2916L151.727 52.4765L150.659 51.1919L151.196 49.8884L149.772 48.9404L148.723 49.9974L147.341 49.7557L146.781 48.1299L145.101 48.31L145.006 49.732L143.758 50.3672L142.433 49.4192L141.09 50.3956L141.788 51.8982L140.985 53.0974L139.533 53.0216L139.153 54.8133L140.535 55.3442L140.658 56.8467L139.234 57.6668L139.917 59.2215L141.398 58.9892L142.4 60.1505L141.887 61.5725L143.245 62.5205L144.308 61.3734L145.78 61.7716L146.254 63.2884L147.892 63.1794L148.101 61.8143L149.501 61.0132L150.65 61.928L152.097 60.8473L151.366 59.5722L152.083 58.2924L153.55 58.4015L154.001 56.7377L152.738 56.0552L152.572 54.5384L153.792 53.7136ZM148.096 58.61C147.527 58.9409 146.871 59.0953 146.214 59.0536C145.557 59.0119 144.926 58.7759 144.403 58.3757C143.881 57.9754 143.489 57.429 143.277 56.8058C143.066 56.1827 143.045 55.5109 143.217 54.8758C143.389 54.2408 143.747 53.6711 144.244 53.2392C144.741 52.8074 145.355 52.5328 146.009 52.4504C146.662 52.368 147.326 52.4815 147.915 52.7765C148.503 53.0714 148.991 53.5346 149.316 54.107C149.747 54.8669 149.86 55.7658 149.632 56.6087C149.404 57.4517 148.852 58.1708 148.096 58.61Z" fill="#EBEBEB"/>
<path d="M147.892 54.7895C147.892 54.7895 147.792 54.6663 147.598 54.4814C147.321 54.2175 146.966 54.051 146.587 54.0074C146.284 53.9722 145.978 54.0214 145.703 54.1497C145.427 54.2779 145.192 54.4802 145.025 54.7338C144.857 54.9875 144.764 55.2826 144.754 55.5862C144.745 55.8899 144.82 56.1902 144.972 56.4536C145.124 56.7169 145.345 56.9331 145.613 57.078C145.88 57.2228 146.183 57.2907 146.487 57.2739C146.79 57.2572 147.083 57.1565 147.333 56.9831C147.583 56.8098 147.78 56.5705 147.901 56.2921C148.055 55.945 148.093 55.558 148.011 55.1877C147.949 54.927 147.873 54.7895 147.892 54.78C147.993 54.8885 148.064 55.0205 148.101 55.164C148.233 55.5537 148.219 55.9779 148.063 56.3584C147.949 56.6454 147.763 56.8986 147.524 57.0943C147.285 57.29 147 57.4217 146.696 57.4771C146.318 57.5486 145.927 57.5008 145.577 57.3403C145.228 57.1798 144.937 56.9146 144.746 56.5815C144.554 56.2484 144.471 55.864 144.508 55.4817C144.546 55.0994 144.701 54.7382 144.954 54.4482C145.156 54.215 145.414 54.0364 145.703 53.9287C145.993 53.821 146.305 53.7878 146.61 53.832C147.019 53.8917 147.392 54.0951 147.664 54.4056C147.771 54.5124 147.849 54.6445 147.892 54.7895Z" fill="#EBEBEB"/>
<path d="M149.463 51.1157C149.219 51.6999 148.9 52.2496 148.514 52.751C148.203 53.3018 147.82 53.8087 147.375 54.2583C147.617 53.6724 147.937 53.121 148.324 52.6183C148.636 52.0695 149.019 51.5642 149.463 51.1157Z" fill="#EBEBEB"/>
<path d="M151.086 56.8796C150.564 56.8173 150.049 56.7046 149.548 56.5431C149.03 56.4574 148.521 56.3208 148.03 56.1355C149.097 56.1036 150.153 56.3607 151.086 56.8796Z" fill="#EBEBEB"/>
<path d="M147.113 57.2734C147.36 57.6774 147.522 58.1274 147.588 58.5959C147.736 59.0462 147.788 59.5226 147.74 59.9942C147.546 59.5681 147.415 59.1163 147.351 58.6528C147.206 58.2067 147.126 57.7422 147.113 57.2734Z" fill="#EBEBEB"/>
<path d="M145.329 57.0693C145.208 57.5037 145.01 57.913 144.745 58.278C144.544 58.6818 144.274 59.0476 143.947 59.3588C144.065 58.9231 144.263 58.5132 144.531 58.1501C144.731 57.7453 145.001 57.3794 145.329 57.0693Z" fill="#EBEBEB"/>
<path d="M145.077 51.4429C145.316 51.8101 145.485 52.2183 145.575 52.6468C145.739 53.0527 145.829 53.4845 145.841 53.9219C145.601 53.555 145.43 53.1468 145.338 52.7179C145.172 52.313 145.083 51.8805 145.077 51.4429Z" fill="#EBEBEB"/>
<path d="M144.702 55.3297C144.36 55.4075 144.005 55.4075 143.663 55.3297C143.31 55.3357 142.96 55.2594 142.642 55.1069C142.986 55.0295 143.343 55.0295 143.686 55.1069C144.038 55.0987 144.386 55.1752 144.702 55.3297Z" fill="#EBEBEB"/>
<path d="M147.555 54.9838C147.689 55.2171 147.751 55.4849 147.732 55.7533C147.714 56.0216 147.616 56.2786 147.452 56.4916C147.287 56.7046 147.063 56.8641 146.808 56.9499C146.553 57.0358 146.278 57.0441 146.018 56.9739C145.758 56.9037 145.524 56.758 145.347 56.5554C145.17 56.3528 145.057 56.1022 145.022 55.8355C144.988 55.5687 145.033 55.2977 145.153 55.0566C145.272 54.8156 145.461 54.6154 145.694 54.4813C145.849 54.3922 146.021 54.3345 146.198 54.3116C146.376 54.2886 146.556 54.3008 146.729 54.3475C146.902 54.3941 147.063 54.4743 147.205 54.5835C147.347 54.6927 147.466 54.8287 147.555 54.9838Z" fill="#EBEBEB"/>
<path d="M147.033 55.6663C146.985 55.7184 146.719 55.5288 146.349 55.4909C145.979 55.453 145.675 55.5762 145.642 55.5193C145.609 55.4624 145.903 55.197 146.373 55.2444C146.843 55.2918 147.09 55.6283 147.033 55.6663Z" fill="#E0E0E0"/>
<path d="M146.487 54.87C146.544 54.9127 146.42 55.1781 146.363 55.5194C146.306 55.8607 146.321 56.1498 146.254 56.1688C146.188 56.1877 146.045 55.8796 146.121 55.4767C146.197 55.0738 146.435 54.8273 146.487 54.87Z" fill="#E0E0E0"/>
<path d="M285.199 47.8736L283.889 45.5984L281.843 45.897L280.148 43.7782L281.003 41.6452L278.72 40.1284L277.015 41.849L274.77 41.4556L273.883 38.8154L271.153 39.1046L270.997 41.413L268.965 42.4415L266.81 40.92L264.627 42.5079L265.761 44.949L264.461 46.9256L262.087 46.7976L261.475 49.708L263.72 50.5706L263.915 53.0165L261.584 54.3484L262.695 56.8701L265.106 56.4956L266.715 58.3016L265.88 60.591L268.087 62.1504L269.81 60.2876L272.183 60.9323L272.929 63.3971L275.587 63.2217L275.928 61.0081L278.207 59.6999L280.072 61.1835L282.446 59.4297L281.254 57.3583L282.417 55.2822L284.79 55.4576L285.526 52.751L283.485 51.6656L283.21 49.2008L285.199 47.8736ZM275.943 55.8368C275.021 56.3654 273.963 56.6092 272.903 56.5374C271.842 56.4656 270.827 56.0814 269.986 55.4333C269.144 54.7853 268.513 53.9025 268.174 52.8967C267.835 51.8909 267.802 50.8072 268.08 49.7827C268.357 48.7582 268.933 47.839 269.734 47.1411C270.534 46.4433 271.524 45.9984 272.579 45.8625C273.633 45.7266 274.703 45.906 275.655 46.3779C276.607 46.8497 277.398 47.5929 277.927 48.5135C278.631 49.7454 278.818 51.2059 278.446 52.575C278.074 53.9441 277.174 55.1102 275.943 55.8178V55.8368Z" fill="#EBEBEB"/>
<path d="M275.648 49.6038C275.625 49.6038 275.506 49.3952 275.174 49.0824C274.723 48.6478 274.144 48.3716 273.522 48.2955C273.018 48.2341 272.507 48.3139 272.046 48.5259C271.585 48.738 271.193 49.074 270.912 49.4963C270.631 49.9186 270.474 50.4106 270.458 50.9171C270.441 51.4237 270.566 51.9248 270.819 52.3643C271.071 52.8039 271.442 53.1646 271.888 53.4061C272.334 53.6475 272.839 53.7602 273.345 53.7315C273.852 53.7027 274.341 53.5337 274.757 53.2434C275.173 52.9531 275.5 52.5528 275.701 52.0875C275.95 51.514 276.004 50.8743 275.853 50.2674C275.739 49.8408 275.606 49.6227 275.629 49.6085C275.671 49.6544 275.706 49.7054 275.734 49.7602C275.822 49.9096 275.892 50.0686 275.943 50.2342C276.137 50.8564 276.108 51.5266 275.862 52.1302C275.675 52.5847 275.377 52.9849 274.995 53.2939C274.612 53.6029 274.158 53.8108 273.674 53.8982C273.098 54.0044 272.504 53.9333 271.97 53.6944C271.391 53.4451 270.908 53.0153 270.594 52.4694C270.28 51.9234 270.152 51.2905 270.228 50.6655C270.291 50.0839 270.529 49.5351 270.911 49.0919C271.231 48.7182 271.64 48.4311 272.101 48.2571C272.561 48.0832 273.058 48.0279 273.546 48.0965C274.197 48.1905 274.796 48.5071 275.24 48.9923C275.361 49.1201 275.466 49.2617 275.553 49.4142C275.594 49.4727 275.626 49.5365 275.648 49.6038Z" fill="#EBEBEB"/>
<path d="M278.202 43.6313C277.747 44.5477 277.218 45.4259 276.621 46.2573C276.093 47.1311 275.497 47.9616 274.837 48.7411C275.293 47.8266 275.821 46.95 276.417 46.1198C276.946 45.2451 277.543 44.413 278.202 43.6313Z" fill="#EBEBEB"/>
<path d="M280.841 53.0168C280.841 53.0879 279.731 52.7229 278.363 52.3959C276.996 52.0688 275.867 51.8792 275.871 51.8081C276.734 51.795 277.593 51.9116 278.42 52.1541C279.266 52.3209 280.081 52.6116 280.841 53.0168Z" fill="#EBEBEB"/>
<path d="M274.386 53.6377C274.72 54.3256 274.958 55.056 275.093 55.8086C275.305 56.5438 275.413 57.3047 275.416 58.0696C275.171 57.3505 274.982 56.6136 274.851 55.8655C274.638 55.1362 274.482 54.3913 274.386 53.6377Z" fill="#EBEBEB"/>
<path d="M271.509 53.3105C271.242 53.9881 270.9 54.6336 270.489 55.235C270.15 55.8796 269.738 56.4825 269.259 57.0314C269.526 56.3539 269.869 55.7084 270.28 55.107C270.618 54.4624 271.031 53.8595 271.509 53.3105Z" fill="#EBEBEB"/>
<path d="M271.073 44.167C271.394 44.7956 271.642 45.4588 271.813 46.1436C272.057 46.8069 272.226 47.4953 272.316 48.196C271.993 47.5684 271.744 46.905 271.576 46.2194C271.329 45.5571 271.16 44.8683 271.073 44.167Z" fill="#EBEBEB"/>
<path d="M270.465 50.481C269.905 50.5528 269.337 50.54 268.78 50.4431C268.217 50.431 267.659 50.3368 267.123 50.1634C268.24 50.1096 269.36 50.2166 270.446 50.481H270.465Z" fill="#EBEBEB"/>
<path d="M275.107 49.9166C275.326 50.2961 275.427 50.7319 275.398 51.1689C275.369 51.6059 275.211 52.0245 274.943 52.3716C274.676 52.7186 274.311 52.9787 273.895 53.1188C273.48 53.2589 273.032 53.2727 272.609 53.1585C272.185 53.0443 271.805 52.8073 271.517 52.4774C271.228 52.1475 271.044 51.7395 270.988 51.3051C270.932 50.8708 271.006 50.4295 271.201 50.0372C271.396 49.6449 271.703 49.3192 272.084 49.1013C272.336 48.9562 272.614 48.8622 272.902 48.8247C273.191 48.7871 273.484 48.8068 273.765 48.8825C274.046 48.9583 274.309 49.0886 274.539 49.266C274.77 49.4434 274.963 49.6645 275.107 49.9166Z" fill="#EBEBEB"/>
<path d="M274.253 51.0356C273.899 50.8763 273.53 50.7539 273.152 50.6706C272.763 50.6714 272.375 50.7111 271.993 50.7891C272.144 50.6347 272.332 50.5204 272.538 50.4567C272.744 50.3929 272.964 50.3818 273.175 50.4241C273.911 50.5095 274.315 51.0024 274.253 51.0356Z" fill="#E0E0E0"/>
<path d="M273.37 49.7416C273.427 49.7795 273.19 50.2156 273.09 50.7796C272.99 51.3437 273.057 51.8319 272.99 51.8509C272.891 51.6843 272.826 51.4991 272.801 51.3067C272.776 51.1144 272.79 50.9188 272.843 50.7322C272.957 50.0971 273.318 49.6942 273.37 49.7416Z" fill="#E0E0E0"/>
<path d="M115.861 155.989L114.551 153.713L112.506 154.017L110.811 151.893L111.684 149.779L109.401 148.267L107.697 149.983L105.452 149.59L104.541 146.94L101.811 147.224L101.655 149.533L99.6231 150.566L97.4681 149.045L95.2846 150.632L96.4191 153.074L95.1232 155.026L92.7499 154.903L92.1328 157.809L94.3827 158.671L94.5726 161.117L92.2467 162.449L93.3574 164.971L95.7688 164.596L97.3636 166.44L96.5377 168.744L98.7497 170.299L100.473 168.436L102.846 169.085L103.591 171.545L106.249 171.37L106.591 169.156L108.87 167.848L110.735 169.336L113.108 167.578L111.917 165.507L113.08 163.43L115.453 163.606L116.189 160.899L114.134 159.79L113.863 157.325L115.861 155.989ZM106.605 163.952C105.684 164.48 104.626 164.724 103.566 164.652C102.505 164.581 101.49 164.196 100.648 163.548C99.8065 162.9 99.1762 162.018 98.8369 161.012C98.4977 160.006 98.4648 158.922 98.7423 157.898C99.0199 156.873 99.5955 155.954 100.396 155.256C101.197 154.558 102.187 154.113 103.241 153.978C104.295 153.842 105.366 154.021 106.318 154.493C107.27 154.965 108.061 155.708 108.59 156.629C109.299 157.862 109.488 159.327 109.116 160.7C108.744 162.074 107.841 163.243 106.605 163.952Z" fill="#EBEBEB"/>
<path d="M106.325 157.742C106.302 157.742 106.183 157.529 105.851 157.216C105.4 156.782 104.82 156.505 104.199 156.429C103.695 156.368 103.184 156.448 102.723 156.66C102.262 156.872 101.869 157.208 101.589 157.63C101.308 158.052 101.151 158.544 101.135 159.051C101.118 159.557 101.243 160.059 101.496 160.498C101.748 160.938 102.118 161.298 102.565 161.54C103.011 161.781 103.516 161.894 104.022 161.865C104.529 161.836 105.018 161.667 105.434 161.377C105.85 161.087 106.176 160.687 106.378 160.221C106.625 159.646 106.679 159.005 106.529 158.396C106.415 157.97 106.283 157.752 106.306 157.742C106.348 157.786 106.384 157.835 106.411 157.889C106.497 158.04 106.567 158.198 106.62 158.363C106.814 158.985 106.785 159.656 106.539 160.259C106.39 160.62 106.171 160.948 105.893 161.224C105.616 161.499 105.286 161.716 104.924 161.862C104.561 162.008 104.173 162.081 103.782 162.075C103.391 162.069 103.005 161.985 102.647 161.828C102.069 161.573 101.587 161.142 101.27 160.596C100.958 160.05 100.829 159.419 100.905 158.795C100.948 158.406 101.069 158.029 101.261 157.688C101.452 157.347 101.711 157.048 102.021 156.808C102.331 156.569 102.686 156.394 103.065 156.295C103.444 156.196 103.84 156.174 104.227 156.23C104.881 156.318 105.483 156.634 105.927 157.121C106.049 157.25 106.154 157.393 106.24 157.548C106.28 157.607 106.309 157.673 106.325 157.742Z" fill="#EBEBEB"/>
<path d="M108.865 151.77C108.409 152.685 107.88 153.561 107.284 154.391C106.756 155.265 106.159 156.096 105.499 156.875C106.482 155.086 107.608 153.379 108.865 151.77Z" fill="#EBEBEB"/>
<path d="M111.504 161.16C111.475 161.226 110.393 160.861 109.026 160.534C107.659 160.207 106.525 160.017 106.534 159.946C107.396 159.933 108.256 160.05 109.083 160.292C109.93 160.457 110.746 160.749 111.504 161.16Z" fill="#EBEBEB"/>
<path d="M105.048 161.776C105.384 162.461 105.62 163.191 105.751 163.942C105.965 164.677 106.075 165.438 106.078 166.203C105.669 164.743 105.326 163.266 105.048 161.776Z" fill="#EBEBEB"/>
<path d="M102.148 161.444C101.881 162.122 101.539 162.767 101.128 163.369C100.791 164.014 100.378 164.617 99.8983 165.165C100.167 164.488 100.509 163.843 100.919 163.241C101.259 162.597 101.671 161.994 102.148 161.444Z" fill="#EBEBEB"/>
<path d="M101.735 152.306C102.059 152.933 102.307 153.597 102.476 154.282C102.72 154.944 102.889 155.631 102.979 156.33C102.654 155.703 102.406 155.039 102.238 154.353C101.992 153.692 101.823 153.005 101.735 152.306Z" fill="#EBEBEB"/>
<path d="M101.128 158.614C100.567 158.686 99.9996 158.675 99.4426 158.581C98.879 158.573 98.3194 158.483 97.7813 158.316C98.8984 158.262 100.017 158.369 101.104 158.633L101.128 158.614Z" fill="#EBEBEB"/>
<path d="M105.77 158.05C105.989 158.43 106.09 158.866 106.061 159.303C106.032 159.74 105.873 160.158 105.606 160.505C105.338 160.852 104.974 161.112 104.558 161.253C104.143 161.393 103.695 161.406 103.271 161.292C102.848 161.178 102.468 160.941 102.179 160.611C101.891 160.281 101.707 159.873 101.651 159.439C101.595 159.005 101.669 158.563 101.864 158.171C102.059 157.779 102.366 157.453 102.746 157.235C102.998 157.09 103.277 156.996 103.565 156.958C103.854 156.921 104.147 156.941 104.428 157.016C104.708 157.092 104.972 157.222 105.202 157.4C105.432 157.577 105.625 157.798 105.77 158.05Z" fill="#EBEBEB"/>
<path d="M104.901 159.169C104.548 159.01 104.179 158.888 103.8 158.804C103.411 158.802 103.022 158.844 102.642 158.927C102.791 158.771 102.978 158.655 103.185 158.591C103.392 158.527 103.612 158.517 103.824 158.562C104.04 158.565 104.252 158.622 104.44 158.728C104.629 158.834 104.787 158.986 104.901 159.169Z" fill="#E0E0E0"/>
<path d="M104.028 157.875C104.09 157.913 103.848 158.349 103.753 158.913C103.658 159.477 103.719 159.965 103.648 159.984C103.55 159.818 103.487 159.633 103.462 159.442C103.438 159.25 103.453 159.056 103.506 158.87C103.62 158.235 103.98 157.842 104.028 157.875Z" fill="#E0E0E0"/>
<path d="M339.728 220.647C339.728 220.714 267.029 220.77 177.392 220.77C87.7564 220.77 15.0137 220.714 15.0137 220.647C15.0137 220.581 87.6994 220.524 177.392 220.524C267.085 220.524 339.728 220.576 339.728 220.647Z" fill="#263238"/>
<path d="M211.288 114.405V110.94L208.744 109.94L208.203 106.404L210.576 104.555L208.958 101.323L205.872 102.171L203.561 100.247L204.259 96.63L200.936 95.1701L199.237 97.706L196.232 97.5543L194.77 94.3975L191.224 94.7861L190.916 98.3222L188.144 99.7063L185.523 98.0141L182.932 100.962L184.935 103.427L183.549 106.347H180.003L179.619 109.964L182.623 111.12L183.221 114.234L180.758 116.315L182.258 119.548L185.457 118.543L187.769 120.851L187.019 124.188L190.18 125.729L192.031 123.42H195.496L196.654 126.345L200.504 125.871V122.714L203.2 121.098L205.82 122.871L208.44 120.254L206.822 117.638L208.132 114.637L211.288 114.405ZM195.453 117.443C194.05 117.444 192.679 117.03 191.512 116.252C190.345 115.474 189.435 114.368 188.898 113.074C188.361 111.78 188.22 110.356 188.493 108.981C188.767 107.607 189.442 106.345 190.434 105.354C191.426 104.364 192.69 103.689 194.066 103.416C195.442 103.143 196.869 103.284 198.165 103.82C199.461 104.357 200.568 105.265 201.347 106.43C202.126 107.596 202.541 108.966 202.54 110.367C202.54 112.243 201.794 114.043 200.465 115.371C199.136 116.698 197.333 117.443 195.453 117.443Z" fill="#263238"/>
<path d="M199.203 110.144C199.175 110.144 199.203 109.807 199.037 109.238C198.818 108.438 198.337 107.733 197.67 107.238C197.215 106.897 196.687 106.666 196.127 106.565C195.491 106.454 194.836 106.511 194.229 106.731C193.553 106.978 192.967 107.42 192.544 108.001C192.091 108.62 191.847 109.367 191.847 110.134C191.847 110.901 192.091 111.648 192.544 112.267C192.829 112.656 193.19 112.985 193.603 113.235C194.017 113.484 194.476 113.649 194.954 113.721C195.432 113.792 195.919 113.768 196.388 113.651C196.856 113.533 197.297 113.324 197.684 113.035C198.352 112.538 198.833 111.832 199.051 111.03C199.203 110.461 199.189 110.125 199.218 110.129C199.228 110.208 199.228 110.288 199.218 110.366C199.219 110.598 199.192 110.829 199.137 111.054C198.945 111.896 198.465 112.645 197.779 113.172C197.375 113.485 196.911 113.713 196.417 113.845C195.922 113.976 195.406 114.007 194.9 113.936C194.393 113.866 193.905 113.695 193.466 113.433C193.026 113.172 192.643 112.825 192.34 112.414C191.849 111.753 191.585 110.952 191.585 110.129C191.585 109.307 191.849 108.506 192.34 107.845C192.793 107.227 193.421 106.76 194.143 106.503C194.794 106.274 195.493 106.221 196.17 106.352C196.757 106.465 197.308 106.715 197.779 107.081C198.465 107.609 198.945 108.358 199.137 109.2C199.192 109.425 199.219 109.656 199.218 109.888C199.224 109.973 199.22 110.059 199.203 110.144Z" fill="#263238"/>
<path d="M206.058 104.982C204.914 105.695 203.728 106.34 202.507 106.911C201.322 107.554 200.098 108.124 198.843 108.618C199.986 107.904 201.171 107.262 202.393 106.693C203.579 106.05 204.803 105.478 206.058 104.982Z" fill="#263238"/>
<path d="M202.901 117.457C202.844 117.505 201.852 116.362 200.499 115.087C199.146 113.812 197.964 112.869 198.012 112.812C198.313 112.952 198.593 113.134 198.843 113.352C200.119 114.328 201.284 115.441 202.317 116.67C202.547 116.905 202.743 117.17 202.901 117.457Z" fill="#263238"/>
<path d="M195.088 113.931C194.79 115.919 194.205 117.854 193.351 119.676C193.284 119.676 193.716 118.377 194.191 116.794C194.441 115.825 194.74 114.869 195.088 113.931Z" fill="#263238"/>
<path d="M191.998 111.651C191.225 112.218 190.406 112.719 189.549 113.149C188.73 113.65 187.869 114.08 186.976 114.433C187.75 113.865 188.571 113.364 189.43 112.935C190.247 112.433 191.106 112.004 191.998 111.651Z" fill="#263238"/>
<path d="M197.542 100.915C197.466 101.84 197.307 102.757 197.067 103.654C196.904 104.569 196.66 105.466 196.336 106.337C196.412 105.412 196.571 104.495 196.811 103.597C196.976 102.684 197.22 101.786 197.542 100.915Z" fill="#263238"/>
<path d="M192.715 107.74C192.04 107.42 191.403 107.026 190.816 106.565C190.189 106.168 189.607 105.706 189.079 105.186C189.755 105.503 190.392 105.897 190.977 106.361C191.606 106.755 192.189 107.217 192.715 107.74Z" fill="#263238"/>
<path d="M198.377 110.143C198.377 110.721 198.206 111.285 197.885 111.766C197.563 112.246 197.107 112.62 196.572 112.841C196.038 113.062 195.45 113.12 194.883 113.007C194.316 112.895 193.795 112.616 193.386 112.208C192.977 111.8 192.699 111.279 192.586 110.713C192.473 110.147 192.531 109.56 192.752 109.026C192.973 108.493 193.348 108.037 193.829 107.716C194.31 107.395 194.875 107.224 195.453 107.224C196.229 107.224 196.973 107.531 197.521 108.079C198.069 108.626 198.377 109.369 198.377 110.143Z" fill="#263238"/>
<path d="M196.669 110.864C196.397 110.423 196.059 110.027 195.667 109.688C195.226 109.419 194.746 109.22 194.243 109.101C194.243 109.067 194.428 109.025 194.718 109.058C195.11 109.11 195.483 109.259 195.803 109.491C196.123 109.724 196.38 110.033 196.55 110.39C196.683 110.665 196.697 110.854 196.669 110.864Z" fill="#455A64"/>
<path d="M196.512 108.797C196.55 108.864 195.98 109.177 195.482 109.779C194.984 110.381 194.76 110.987 194.689 110.964C194.76 110.468 194.968 110.003 195.29 109.62C195.612 109.237 196.036 108.952 196.512 108.797Z" fill="#455A64"/>
<path d="M195.268 73.1336L192.924 69.0573L189.254 69.5929L186.221 65.8009L187.783 62.0089L183.696 59.2881L180.639 62.3691L176.614 61.6629L174.981 56.9229L170.087 57.4395L169.812 61.5728L166.167 63.4214L162.308 60.6959L158.392 63.5399L160.428 67.9149L158.097 71.4225L153.868 71.195L152.762 76.409L156.787 77.9542L157.134 82.334L152.961 84.7277L154.955 89.2496L159.274 88.5766L162.122 91.8946L160.627 96.0089L164.586 98.8008L167.671 95.4828L171.943 96.6393L173.277 101.057L178.024 100.735L178.636 96.7673L182.718 94.4257L186.041 97.0896L190.265 93.9423L188.129 90.2308L190.213 86.5052L194.485 86.818L195.8 81.969L192.121 79.983L191.647 75.5605L195.268 73.1336ZM178.679 87.4058C177.028 88.3521 175.133 88.7883 173.233 88.6593C171.334 88.5302 169.516 87.8416 168.008 86.6806C166.501 85.5196 165.372 83.9383 164.764 82.1366C164.156 80.335 164.097 78.3939 164.595 76.5588C165.092 74.7236 166.122 73.0769 167.557 71.8268C168.991 70.5766 170.764 69.7792 172.652 69.5354C174.54 69.2916 176.458 69.6123 178.164 70.4569C179.869 71.3016 181.286 72.6323 182.234 74.2807C183.505 76.4922 183.844 79.117 183.177 81.5782C182.511 84.0394 180.893 86.1355 178.679 87.4058Z" fill="#FA4350"/>
<path d="M178.152 76.2764C177.905 75.9463 177.64 75.6298 177.359 75.3284C176.556 74.5255 175.506 74.0148 174.378 73.878C173.608 73.7803 172.826 73.8647 172.095 74.1244C171.255 74.4166 170.508 74.9271 169.931 75.6033C169.619 75.9662 169.366 76.3756 169.181 76.8168C168.978 77.2676 168.849 77.7475 168.796 78.2388C168.676 79.2871 168.895 80.3463 169.421 81.2615C169.948 82.1766 170.753 82.8996 171.72 83.3248C172.614 83.718 173.604 83.8431 174.568 83.685C175.443 83.5307 176.262 83.148 176.941 82.5759C177.534 82.0757 178.003 81.4444 178.309 80.732C178.762 79.6849 178.847 78.5156 178.551 77.414C178.426 77.0184 178.282 76.6292 178.119 76.248C178.354 76.5981 178.532 76.9838 178.646 77.3903C178.978 78.5082 178.916 79.7064 178.47 80.7841C178.162 81.5284 177.684 82.1906 177.074 82.7181C176.368 83.3224 175.512 83.7282 174.597 83.8936C174.103 83.9831 173.599 83.9991 173.101 83.941C172.581 83.8863 172.073 83.7486 171.597 83.5333C170.588 83.0851 169.75 82.327 169.203 81.3694C168.657 80.4119 168.431 79.305 168.559 78.2103C168.616 77.6912 168.753 77.1842 168.967 76.7077C169.165 76.247 169.434 75.8199 169.765 75.4422C170.324 74.7789 171.043 74.2683 171.854 73.9583C172.665 73.6482 173.542 73.5488 174.402 73.6694C175.56 73.8258 176.628 74.3767 177.426 75.2289C177.722 75.5375 177.967 75.8911 178.152 76.2764Z" fill="#263238"/>
<path d="M182.747 65.5684C182.804 65.6063 181.503 67.6872 179.832 70.2136C178.161 72.74 176.771 74.764 176.714 74.7261C176.657 74.6882 177.962 72.6073 179.628 70.0809C181.294 67.5545 182.671 65.5305 182.747 65.5684Z" fill="#263238"/>
<path d="M187.46 82.3907C187.018 82.3061 186.583 82.1872 186.16 82.0352C185.367 81.7934 184.261 81.4759 183.036 81.1772C181.812 80.8786 180.687 80.6511 179.87 80.4994C179.426 80.4403 178.986 80.3484 178.555 80.2245C179.006 80.2097 179.456 80.2447 179.899 80.3288C180.975 80.4766 182.043 80.6791 183.098 80.9355C184.153 81.1974 185.194 81.5139 186.216 81.8835C186.648 82.0085 187.065 82.1785 187.46 82.3907Z" fill="#263238"/>
<path d="M175.888 83.5049C176.067 83.8635 176.207 84.2401 176.305 84.6283C176.524 85.3345 176.78 86.3157 177.055 87.4154C177.331 88.5151 177.497 89.5199 177.611 90.2594C177.694 90.6521 177.735 91.0525 177.734 91.4539C177.598 91.0775 177.499 90.6885 177.44 90.2926C177.283 89.5721 177.07 88.5767 176.813 87.4817C176.557 86.3868 176.315 85.4009 176.135 84.6851C176.016 84.3003 175.933 83.9051 175.888 83.5049Z" fill="#263238"/>
<path d="M170.685 82.917C170.125 84.0885 169.49 85.2236 168.787 86.3156C168.149 87.4481 167.442 88.5404 166.67 89.5862C167.226 88.4123 167.86 87.2769 168.568 86.1876C169.203 85.0534 169.911 83.9609 170.685 82.917Z" fill="#263238"/>
<path d="M169.931 66.5308C170.417 67.6927 170.828 68.8849 171.16 70.1C171.572 71.2918 171.905 72.5094 172.157 73.745C171.668 72.5819 171.256 71.388 170.923 70.1711C170.513 68.9805 170.182 67.7645 169.931 66.5308Z" fill="#263238"/>
<path d="M168.858 77.8452C167.852 77.8721 166.845 77.8166 165.849 77.6793C164.845 77.6277 163.848 77.4913 162.868 77.2717C163.872 77.2449 164.877 77.3003 165.872 77.4376C166.877 77.4896 167.876 77.6259 168.858 77.8452Z" fill="#263238"/>
<path d="M175.056 82.5319C177.122 81.8017 178.204 79.5373 177.473 77.4742C176.742 75.4111 174.474 74.3305 172.408 75.0607C170.342 75.7909 169.26 78.0553 169.991 80.1184C170.723 82.1815 172.99 83.262 175.056 82.5319Z" fill="#263238"/>
<path d="M175.655 78.8358C175.052 78.4639 174.383 78.2098 173.685 78.0869C172.975 78.0543 172.266 78.1606 171.597 78.3997C171.597 78.3713 171.777 78.2101 172.152 78.0537C172.646 77.8567 173.181 77.7836 173.709 77.8406C174.238 77.8976 174.745 78.0831 175.185 78.3808C175.522 78.613 175.674 78.8168 175.655 78.8358Z" fill="#455A64"/>
<path d="M174.06 76.5132C173.82 77.1132 173.621 77.7294 173.467 78.357C173.392 79.0004 173.364 79.6483 173.382 80.2957C173.117 79.6695 173.06 78.9751 173.22 78.3144C173.303 77.6405 173.597 77.0101 174.06 76.5132Z" fill="#455A64"/>
<path d="M210.776 84.6945L209.969 83.2725L208.711 83.4574L207.667 82.1491L208.203 80.8504L206.779 79.9024L205.73 80.9594L204.349 80.7177L203.808 79.1582L202.127 79.3336L202.032 80.7556L200.784 81.367L199.46 80.419L198.116 81.3955L198.814 82.8981L198.012 84.102L196.559 84.0262L196.18 85.8132L197.561 86.344L197.68 87.8466L196.256 88.6714L196.939 90.2214L198.42 89.9938L199.403 91.1267L198.89 92.5487L200.248 93.4967L201.311 92.3544L202.782 92.7525L203.257 94.2646L204.89 94.1556L205.103 92.7952L206.504 91.9894L207.652 92.9042L209.1 91.8235L208.345 90.5342L209.057 89.2591L210.529 89.3634L211.004 87.6997L209.741 87.0171L209.575 85.5003L210.776 84.6945ZM205.08 89.5957C204.51 89.926 203.855 90.08 203.198 90.038C202.541 89.996 201.911 89.7599 201.389 89.3597C200.866 88.9595 200.474 88.4133 200.263 87.7904C200.052 87.1675 200.031 86.496 200.203 85.8611C200.375 85.2263 200.732 84.6568 201.228 84.2248C201.725 83.7929 202.339 83.518 202.992 83.4352C203.645 83.3523 204.308 83.4652 204.897 83.7595C205.486 84.0538 205.974 84.5161 206.3 85.0879C206.729 85.8474 206.842 86.7451 206.614 87.5869C206.385 88.4288 205.834 89.147 205.08 89.5862V89.5957Z" fill="#263238"/>
<path d="M204.899 85.794C204.899 85.794 204.8 85.6755 204.605 85.4859C204.328 85.2237 203.973 85.0575 203.594 85.0119C203.321 84.9836 203.045 85.0228 202.791 85.1261C202.537 85.2295 202.312 85.3937 202.137 85.6044C201.923 85.8608 201.794 86.1761 201.765 86.5082C201.736 86.8403 201.809 87.1732 201.975 87.4625C202.128 87.7255 202.35 87.9412 202.618 88.0858C202.885 88.2303 203.188 88.298 203.492 88.2813C203.796 88.2646 204.089 88.1642 204.339 87.9912C204.589 87.8182 204.786 87.5794 204.909 87.3013C205.062 86.9542 205.101 86.5672 205.018 86.1969C204.956 85.9314 204.876 85.7987 204.899 85.7845C205 85.893 205.072 86.025 205.108 86.1684C205.24 86.5598 205.227 86.9854 205.07 87.3677C204.955 87.6541 204.77 87.9069 204.531 88.1025C204.292 88.2981 204.007 88.4301 203.703 88.4863C203.326 88.5548 202.937 88.5051 202.589 88.3439C202.242 88.1827 201.952 87.9179 201.762 87.5859C201.571 87.254 201.487 86.8712 201.523 86.49C201.559 86.1089 201.712 85.7482 201.961 85.4574C202.164 85.2211 202.424 85.0407 202.717 84.9336C203.009 84.8265 203.324 84.7964 203.632 84.846C204.04 84.904 204.414 85.1058 204.686 85.4148C204.787 85.5219 204.86 85.6521 204.899 85.794Z" fill="#263238"/>
<path d="M206.48 82.0972C206.237 82.6831 205.918 83.2345 205.531 83.7372C205.219 84.2861 204.836 84.7913 204.391 85.2398C204.636 84.6544 204.955 84.1031 205.341 83.5997C205.653 83.0509 206.036 82.5457 206.48 82.0972Z" fill="#263238"/>
<path d="M208.094 87.8751C207.572 87.8097 207.057 87.6954 206.556 87.5338C206.037 87.4508 205.528 87.3142 205.037 87.1262C205.568 87.0733 206.104 87.1297 206.613 87.2921C207.142 87.3798 207.647 87.5785 208.094 87.8751Z" fill="#263238"/>
<path d="M204.107 88.2544C204.352 88.6608 204.513 89.1121 204.581 89.5816C204.73 90.0319 204.782 90.5083 204.733 90.9799C204.54 90.5515 204.408 90.0984 204.339 89.6337C204.197 89.1872 204.119 88.7228 204.107 88.2544Z" fill="#263238"/>
<path d="M202.336 88.0503C202.216 88.485 202.018 88.8945 201.752 89.259C201.555 89.6647 201.284 90.0309 200.955 90.3397C201.075 89.9048 201.272 89.4952 201.539 89.131C201.738 88.7263 202.008 88.3603 202.336 88.0503Z" fill="#263238"/>
<path d="M202.08 82.4287C202.322 82.7931 202.493 83.2 202.583 83.6279C202.746 84.034 202.836 84.4656 202.849 84.903C202.607 84.5386 202.436 84.1317 202.346 83.7038C202.182 83.2977 202.092 82.8661 202.08 82.4287Z" fill="#263238"/>
<path d="M201.733 86.3111C201.392 86.3916 201.036 86.3916 200.694 86.3111C200.341 86.3172 199.992 86.2426 199.673 86.093C200.013 86.0019 200.369 85.9937 200.713 86.0693C201.067 86.0706 201.416 86.1533 201.733 86.3111Z" fill="#263238"/>
<path d="M204.581 85.9649C204.711 86.1982 204.769 86.4644 204.748 86.7303C204.728 86.9963 204.629 87.2503 204.465 87.4608C204.301 87.6713 204.078 87.829 203.825 87.9142C203.572 87.9994 203.299 88.0084 203.041 87.94C202.783 87.8717 202.551 87.729 202.373 87.5298C202.195 87.3306 202.08 87.0836 202.042 86.8196C202.004 86.5556 202.044 86.2862 202.158 86.0449C202.272 85.8036 202.454 85.601 202.683 85.4625C202.839 85.3674 203.014 85.3048 203.195 85.2786C203.377 85.2524 203.562 85.2631 203.739 85.31C203.916 85.357 204.082 85.4391 204.227 85.5517C204.372 85.6642 204.492 85.8048 204.581 85.9649Z" fill="#263238"/>
<path d="M204.04 86.6523C203.993 86.7044 203.727 86.5101 203.357 86.4769C202.986 86.4437 202.683 86.5622 202.649 86.5006C202.616 86.439 202.911 86.183 203.38 86.2304C203.85 86.2778 204.107 86.6144 204.04 86.6523Z" fill="#455A64"/>
<path d="M203.494 85.8557C203.551 85.8936 203.428 86.159 203.371 86.5003C203.314 86.8416 203.328 87.1355 203.262 87.1544C203.195 87.1734 203.053 86.8606 203.124 86.4577C203.195 86.0548 203.442 85.7941 203.494 85.8557Z" fill="#455A64"/>
</svg>
