<svg width="37" height="37" viewBox="0 0 37 37" fill="none" xmlns="http://www.w3.org/2000/svg">
<circle cx="18.5" cy="18.5" r="18.5" fill="#008ED6"/>
<path d="M25.0345 10H10.9895C8.23386 10 6 12.2339 6 14.9895V22.0105C6 24.7661 8.23386 27 10.9895 27H25.0345C27.7901 27 30.024 24.7661 30.024 22.0105V14.9895C30.024 12.2339 27.7901 10 25.0345 10ZM21.6602 18.8416L15.0909 21.9748C14.9158 22.0583 14.7136 21.9306 14.7136 21.7367V15.2745C14.7136 15.0779 14.9211 14.9504 15.0965 15.0393L21.6659 18.3683C21.8612 18.4673 21.8578 18.7474 21.6602 18.8416Z" fill="white"/>
</svg>
